<svg width="19" height="16" viewBox="0 0 19 16" fill="none" xmlns="http://www.w3.org/2000/svg">
<path d="M9.51406 8.79679L3.13906 15.1718C2.69844 15.6124 1.98594 15.6124 1.55 15.1718L0.490625 14.1124C0.05 13.6718 0.05 12.9593 0.490625 12.5234L5.00937 8.0046L0.490625 3.48584C0.05 3.04522 0.05 2.33272 0.490625 1.89678L1.54531 0.828028C1.98594 0.387402 2.69844 0.387402 3.13437 0.828028L9.50937 7.20303C9.95469 7.64366 9.95469 8.35616 9.51406 8.79679ZM18.5141 7.20303L12.1391 0.828028C11.6984 0.387402 10.9859 0.387402 10.55 0.828028L9.49063 1.8874C9.05 2.32803 9.05 3.04053 9.49063 3.47647L14.0094 7.99522L9.49063 12.514C9.05 12.9546 9.05 13.6671 9.49063 14.103L10.55 15.1624C10.9906 15.603 11.7031 15.603 12.1391 15.1624L18.5141 8.78741C18.9547 8.35616 18.9547 7.64366 18.5141 7.20303Z" fill="black"/>
</svg>
