<svg width="24" height="20" viewBox="0 0 24 20" fill="none" xmlns="http://www.w3.org/2000/svg">
<path d="M0 5.87514V5.12514C0 4.50382 0.503672 4.00014 1.125 4.00014H18V1.75014C18 0.748567 19.214 0.248177 19.9205 0.95463L23.6705 4.70463C24.1098 5.14399 24.1098 5.8563 23.6705 6.29561L19.9205 10.0456C19.2167 10.7493 18 10.2559 18 9.25014V7.00014H1.125C0.503672 7.00014 0 6.49647 0 5.87514ZM22.875 13.0001H6V10.7501C6 9.75105 4.78772 9.24639 4.07948 9.95463L0.329484 13.7046C-0.109828 14.144 -0.109828 14.8563 0.329484 15.2956L4.07948 19.0456C4.78392 19.75 6 19.255 6 18.2501V16.0001H22.875C23.4963 16.0001 24 15.4965 24 14.8751V14.1251C24 13.5038 23.4963 13.0001 22.875 13.0001Z" fill="black"/>
</svg>
