<svg width="24" height="24" viewBox="0 0 24 24" fill="none" xmlns="http://www.w3.org/2000/svg">
<path d="M15.7734 7.5C15.0938 3.31406 13.4906 0.375 11.625 0.375C9.75937 0.375 8.15625 3.31406 7.47656 7.5H15.7734ZM7.125 12C7.125 13.0406 7.18125 14.0391 7.27969 15H15.9656C16.0641 14.0391 16.1203 13.0406 16.1203 12C16.1203 10.9594 16.0641 9.96094 15.9656 9H7.27969C7.18125 9.96094 7.125 10.9594 7.125 12ZM22.3453 7.5C21.0047 4.31719 18.2906 1.85625 14.9391 0.8625C16.0828 2.44687 16.8703 4.83281 17.2828 7.5H22.3453ZM8.30625 0.8625C4.95937 1.85625 2.24062 4.31719 0.904687 7.5H5.96719C6.375 4.83281 7.1625 2.44687 8.30625 0.8625ZM22.8469 9H17.4703C17.5688 9.98438 17.625 10.9922 17.625 12C17.625 13.0078 17.5688 14.0156 17.4703 15H22.8422C23.1 14.0391 23.2453 13.0406 23.2453 12C23.2453 10.9594 23.1 9.96094 22.8469 9ZM5.625 12C5.625 10.9922 5.68125 9.98438 5.77969 9H0.403125C0.15 9.96094 0 10.9594 0 12C0 13.0406 0.15 14.0391 0.403125 15H5.775C5.68125 14.0156 5.625 13.0078 5.625 12ZM7.47656 16.5C8.15625 20.6859 9.75937 23.625 11.625 23.625C13.4906 23.625 15.0938 20.6859 15.7734 16.5H7.47656ZM14.9437 23.1375C18.2906 22.1438 21.0094 19.6828 22.35 16.5H17.2875C16.875 19.1672 16.0875 21.5531 14.9437 23.1375ZM0.904687 16.5C2.24531 19.6828 4.95938 22.1438 8.31094 23.1375C7.16719 21.5531 6.37969 19.1672 5.96719 16.5H0.904687Z" fill="black"/>
</svg>
