<svg width="24" height="22" viewBox="0 0 24 22" fill="none" xmlns="http://www.w3.org/2000/svg">
<path d="M20 8.00003H15.2379L10.8587 0.335835C10.8003 0.233796 10.716 0.148996 10.6143 0.0900222C10.5126 0.031048 10.3971 -7.37198e-06 10.2795 1.31264e-09L7.55034 1.31264e-09C7.10742 1.31264e-09 6.78784 0.423752 6.9095 0.849586L8.95243 8.00003H4.66658L2.86657 5.60002C2.74074 5.4321 2.54282 5.33335 2.33323 5.33335H0.666976C0.233224 5.33335 -0.0851109 5.74085 0.0203063 6.16169L1.33323 10.6667L0.0203063 15.1717C-0.0851109 15.5926 0.233224 16.0001 0.666976 16.0001H2.33323C2.54323 16.0001 2.74074 15.9013 2.86657 15.7334L4.66658 13.3334H8.95243L6.9095 20.4834C6.78784 20.9092 7.10742 21.3334 7.55034 21.3334H10.2795C10.5187 21.3334 10.7395 21.2051 10.8583 20.9976L15.2379 13.3334H20C21.4729 13.3334 24 12.1396 24 10.6667C24 9.19378 21.4729 8.00003 20 8.00003Z" fill="black"/>
</svg>
