<svg width="24" height="22" viewBox="0 0 24 22" fill="none" xmlns="http://www.w3.org/2000/svg">
<path d="M21.75 0.5H15.75C14.5078 0.5 13.5 1.50781 13.5 2.75V8.75C13.5 9.99219 14.5078 11 15.75 11H19.5V14C19.5 15.6547 18.1547 17 16.5 17H16.125C15.5016 17 15 17.5016 15 18.125V20.375C15 20.9984 15.5016 21.5 16.125 21.5H16.5C20.6437 21.5 24 18.1437 24 14V2.75C24 1.50781 22.9922 0.5 21.75 0.5ZM8.25 0.5H2.25C1.00781 0.5 0 1.50781 0 2.75V8.75C0 9.99219 1.00781 11 2.25 11H6V14C6 15.6547 4.65469 17 3 17H2.625C2.00156 17 1.5 17.5016 1.5 18.125V20.375C1.5 20.9984 2.00156 21.5 2.625 21.5H3C7.14375 21.5 10.5 18.1437 10.5 14V2.75C10.5 1.50781 9.49219 0.5 8.25 0.5Z" fill="black"/>
</svg>
