<svg width="24" height="24" viewBox="0 0 24 24" fill="none" xmlns="http://www.w3.org/2000/svg">
<path d="M23.6775 0.89502C23.6218 0.635742 23.3654 0.379395 23.1053 0.32373C21.5961 0 20.4144 0 19.2379 0C14.3988 0 11.497 2.58765 9.33058 6H4.44552C3.67922 6.00073 2.7788 6.55664 2.43521 7.24146L0.11792 11.8733C0.0463074 12.0312 0.00625032 12.2017 0 12.375C0.00010775 12.6734 0.118706 12.9595 0.32972 13.1705C0.540734 13.3814 0.82689 13.5 1.12527 13.5H5.99138L4.93789 14.5532C4.40514 15.0858 4.3287 16.0653 4.93789 16.6743L7.32402 19.0605C7.84697 19.585 8.83134 19.6772 9.44639 19.0605L10.4999 18.0073V22.875C10.5 23.1734 10.6186 23.4595 10.8296 23.6705C11.0406 23.8814 11.3268 24 11.6252 24C11.7985 23.9936 11.969 23.9535 12.1271 23.8821L16.7549 21.5669C17.4407 21.2249 17.9975 20.3247 17.9975 19.5579V14.6624C21.4005 12.4915 23.9991 9.58081 23.9991 4.76733C24.0035 3.58594 24.0035 2.40454 23.6775 0.89502ZM18.0019 7.875C17.6311 7.87491 17.2686 7.76487 16.9603 7.55879C16.652 7.3527 16.4118 7.05984 16.2699 6.71722C16.1281 6.3746 16.091 5.99761 16.1634 5.63393C16.2358 5.27024 16.4144 4.93619 16.6767 4.67401C16.9389 4.41184 17.273 4.2333 17.6367 4.16099C18.0004 4.08868 18.3774 4.12584 18.72 4.26777C19.0626 4.4097 19.3554 4.65002 19.5614 4.95835C19.7674 5.26669 19.8773 5.62918 19.8773 6C19.8771 6.49727 19.6794 6.97409 19.3277 7.32567C18.976 7.67725 18.4992 7.87483 18.0019 7.875Z" fill="black"/>
</svg>
