<svg xmlns="http://www.w3.org/2000/svg" viewBox="0 0 72.35 65.27"><defs><style>.cls-1{fill:#333;fill-rule:evenodd;}</style></defs><title>access-to-remote-locations</title><g id="Слой_2" data-name="Слой 2"><g id="_1" data-name="1"><path class="cls-1" d="M16.09,8.71l-.74.56-2.08,1.59c-.43.4-.92.85-1.47,1.32s-1.13,1-1.66,1.61S9,15,8.38,15.7L6.62,18c-.6.79-1.13,1.7-1.72,2.61A11,11,0,0,0,4.09,22c-.27.49-.53,1-.79,1.49-.5,1-.91,2.16-1.38,3.25-.17.59-.36,1.16-.55,1.74a14.09,14.09,0,0,0-.49,1.8,28.65,28.65,0,0,0-.66,3.74C.16,34.69.05,35.33,0,36s0,1.3,0,2c0,.32,0,.66,0,1l.09,1c.08.66.12,1.32.21,2l.4,2a7.45,7.45,0,0,0,.22,1l.31,1c.22.64.39,1.28.64,1.89l.83,1.81a12,12,0,0,0,1,1.72c.35.57.66,1.12,1,1.68s.76,1,1.14,1.51.87,1,1.28,1.46a28.44,28.44,0,0,0,2.8,2.51A27.76,27.76,0,0,0,16,61.9a32.81,32.81,0,0,0,6,1.78,26.74,26.74,0,0,0,2.78.38l1.29.11,1.21,0,.9,0h.23l1.08-.06q.51,0,1,0l.89-.1c.57-.07,1.06-.11,1.49-.17s.8-.15,1.1-.21l.91-.15-.91.12c-.3,0-.68.09-1.12.15s-.92.07-1.49.11l-.87.06h-1c-.34,0-.68,0-1,0l-1.13-.08c-.4,0-.8,0-1.21-.08l-1.27-.15c-.87-.09-1.76-.32-2.7-.49a30.64,30.64,0,0,1-5.8-2,27.87,27.87,0,0,1-5.73-3.69A25.15,25.15,0,0,1,8.06,55c-.38-.45-.76-.93-1.13-1.38L5.85,52a24.18,24.18,0,0,1-2.93-6.74l-.27-.91c-.07-.29-.09-.61-.17-.91L2.2,41.63c-.07-.61-.07-1.23-.11-1.84L2,38.87a6.93,6.93,0,0,1,0-.91c0-.62.06-1.23.09-1.81s.17-1.2.25-1.8a29.14,29.14,0,0,1,.75-3.44,14.35,14.35,0,0,1,.55-1.64l.57-1.59c.49-1,.91-2,1.4-2.95.26-.45.53-.9.79-1.36s.49-.88.79-1.28c.59-.82,1.12-1.63,1.71-2.35s1.17-1.38,1.7-2,1.17-1.15,1.7-1.68a11.93,11.93,0,0,1,1.55-1.38l1.32-1.11c.91-.67,1.64-1.16,2.14-1.5l.75-.53-2-2.81ZM17.51,6l.85-.47c1.36.26,2.64.6,4.14.75,1.15-.6,2.36-1.17,3.51-1.77-.49-.08-1-.19-1.53-.27a2.57,2.57,0,0,1,.76-.41c.83-.08,1.64-.12,2.47-.21l1.76-.89c.26-.15.53-.28.81-.42C35.55-1.78,38.8.2,32,3.45c-.43.27-.83.5-1.21.7L31,4a.51.51,0,0,0,.17-.21.23.23,0,0,0,0-.2.23.23,0,0,0-.25-.06h0c-.13,0-.28.11-.43.17L30.13,4c-1.08.67-2.19,1.32-3.21,2.06h0l-.13.1a29.68,29.68,0,0,1-6.71,2.21c-.3.19-.7.41-1,.57h0l1.26-.72,1-.59.33-.21.09-.05s.06,0,0-.08-.08,0-.11,0l-.18.06a4.13,4.13,0,0,0-.45.17l-.38.17-.15.08a.19.19,0,0,0-.09,0l-.91.63a.38.38,0,0,1,.11-.67L17.51,6ZM30.24,4.48h0l-.18.09-1.72,1v0c-.29.15-.65.36-.91.53l0,0L25.92,7a0,0,0,0,0,0,0c-.55.27-1.51.72-1.93,1a8.45,8.45,0,0,1-.85.3l2.12-1.13h0a17.61,17.61,0,0,0,1.72-1.1h0c1-.73,2.15-1.38,3.21-2A3.25,3.25,0,0,1,31,3.61c.29,0,.27.22,0,.37a6.1,6.1,0,0,1-.64.44l-.1.06ZM18.77,8.93A1.48,1.48,0,0,0,19,8.8l1.46-1a5,5,0,0,1,1.3-.51S19.64,8.54,19,8.9l-.29,0s0,0,0,0Zm.44-2.85.17,0h0l.13,0h0v0l.08.15.08.15v0l0,0,0,0h0l-.08.11h0l0,0-.09.13v0l0,0h0l-.17,0h0l-.13,0h0v0l0,0L19,6.61,19,6.46l0,0v0l0,0h0L19,6.29h0l0,0,.09-.13h0l0,0v0h0Zm.17.1h0l-.17,0-.1.13h0L19,6.44l.07.15.08.15h.15l.17,0,.1-.13h0l.09-.13-.06-.15-.07-.16ZM35.69.26a8.51,8.51,0,0,1-1.06.4,2.18,2.18,0,0,1-.61,0c-.55-.08.15-.82,1.67-.42ZM31.91,1.64l.19-.08.13.27L32,1.92Zm.47-.21.17-.09.13.28-.19.08Zm.45-.21L33,1.13l.14.28L33,1.49ZM30.21,4.55a2.59,2.59,0,0,0,.41,0,1,1,0,0,0,.14.38,2.63,2.63,0,0,0,.18.34,2.24,2.24,0,0,1-.49.23s-.05,0-.11,0c-.28.09-1.1.45-1.27.36s.23-.27.42-.44l-1,.21c.53-.32,1.06-.62,1.58-.94l.14-.08ZM27.64,6.06c.22,0,.47,0,.73-.13a2,2,0,0,0,.12.38,1.41,1.41,0,0,0,.19.3c-.17.09-.38.21-.59.3a.06.06,0,0,1-.06,0c-.21.09-.45.2-.68.28a1.69,1.69,0,0,1-.34.09.27.27,0,0,1-.24,0c0-.1.15-.23.24-.31a2,2,0,0,0-.87.06l1.27-.76h0l.19-.12ZM30.7,4.49c.13,0,.41.57.32.69h0a1.35,1.35,0,0,0-.3-.7ZM28.43,5.91c.09,0,.34.42.32.64,0,0,0,0,0,0a1.28,1.28,0,0,0-.28-.66ZM22.25,7.4c3.1-1.55,5.75-2.92,9-4.59C31.72,2.57,35.48.6,35.65.58c-.21.57-4.21,2.5-5,2.91l0,0c-1.57.81-3.14,1.63-4.72,2.42-1.31.68-2.16,1.11-3.25,1.6-.13,0-.27-.09-.4-.13Zm42.1,49.89a27.39,27.39,0,0,1-11.88,7A42.47,42.47,0,0,0,58,53.32h9.65a26.18,26.18,0,0,1-3.29,4ZM39.88,64.8h0a39.43,39.43,0,0,1-6.25-11.48H44V65.27a25.46,25.46,0,0,1-4.14-.47ZM17.77,39H29a49.08,49.08,0,0,0,1.84,12.28H21.23A27,27,0,0,1,17.77,39ZM46.1,22.64h0V10.71a24.83,24.83,0,0,1,3.36.34,39.13,39.13,0,0,1,6.39,11.59Zm10.39,2h0A45.23,45.23,0,0,1,58.42,37H46.1V24.64ZM44,22.64H33.63a40.05,40.05,0,0,1,6.25-11.46A27.89,27.89,0,0,1,44,10.71Zm0,2h0V37H31A46.41,46.41,0,0,1,33,24.64ZM29,37H17.77a26.89,26.89,0,0,1,3.48-12.32h9.62A49.25,49.25,0,0,0,29,37ZM31,39H44V51.32H33A46.52,46.52,0,0,1,31,39ZM46.1,53.32h9.75A39,39,0,0,1,49.46,65a33.54,33.54,0,0,1-3.36.32Zm0-2h0V39H58.42a45.71,45.71,0,0,1-1.91,12.28ZM60.42,39H72.35a27.17,27.17,0,0,1-3.54,12.41v-.13H58.61A48.62,48.62,0,0,0,60.42,39Zm0-2.08h0a47.92,47.92,0,0,0-1.83-12.32H68.87A27.13,27.13,0,0,1,72.35,37Zm7.2-14.32H58a42.46,42.46,0,0,0-5.5-10.93,27.43,27.43,0,0,1,11.88,7,28.16,28.16,0,0,1,3.27,4Zm-41.85-4h0A26.86,26.86,0,0,1,36.82,12a42.35,42.35,0,0,0-5.33,10.68h-9a29.76,29.76,0,0,1,3.29-4ZM22.46,53.32h9A43.38,43.38,0,0,0,36.82,64a26.79,26.79,0,0,1-11-6.73,26.31,26.31,0,0,1-3.31-4Z"/></g></g></svg>