<svg width="3556" height="787" viewBox="0 0 3556 787" fill="none" xmlns="http://www.w3.org/2000/svg">
<path d="M3536.64 307.55C3534.43 306.22 3466.26 284.63 3466.26 284.63C3445.58 230.31 3427.8 182.92 3407.75 126.63L3393.12 122.63L3396.92 166.01C3392.83 165.94 3386.08 166.13 3385.55 168.3C3385.02 170.47 3393.12 173.55 3397.76 175.09L3399.85 199.52C3399.85 199.52 3386.05 198.62 3385.34 201.69C3384.63 204.76 3400.74 209.54 3400.74 209.54L3402.74 231.29C3402.74 231.29 3388.11 230.78 3387.8 235.34C3387.49 239.9 3404.29 244.94 3404.29 244.94L3407.29 266.71C3375.69 256.536 3343.52 248.235 3310.95 241.85L3289 193.43L3275.86 191.5C3288.24 248.16 3287.77 241.44 3248.33 280.44L3258.33 288.01L3305.26 260.67C3305.26 260.67 3310.1 263.27 3324.14 268.37C3338.18 273.47 3397.79 294 3397.79 294L3382.88 308.82C3382.88 308.82 3365.73 303.89 3364.23 306.48C3362.73 309.07 3378.41 316.23 3378.41 316.23L3361.41 336.64C3361.41 336.64 3347.16 331.64 3346.12 334.97C3345.08 338.3 3355.41 343.5 3355.41 343.5L3340.94 360.6C3336.09 359.68 3328.01 358.6 3327.33 360.77C3326.85 362.72 3331.44 365.65 3335.02 367.53L3305.83 402L3322.65 409C3369.65 373.72 3410.91 342.07 3459.07 311.15C3515.91 326.51 3525.59 329.38 3525.59 329.38C3555.2 332.62 3569 325.22 3536.59 307.54L3536.64 307.55Z" fill="white"/>
<path d="M39.0001 302.14C33.8783 302.124 28.8039 303.12 24.0683 305.072C19.3327 307.023 15.0293 309.891 11.4053 313.51C7.78134 317.129 4.90819 321.429 2.95091 326.162C0.993637 330.895 -0.00918242 335.968 6.33544e-05 341.09C6.33544e-05 389.65 39.0001 423.69 39.0001 423.69C39.0001 423.69 77.8501 389.69 77.8501 341.09C77.8632 335.98 76.868 330.917 74.9215 326.192C72.975 321.467 70.1154 317.172 66.5066 313.554C62.8977 309.936 58.6105 307.065 53.8904 305.107C49.1704 303.148 44.1103 302.14 39.0001 302.14ZM63.2301 341.09C63.2202 345.892 61.7865 350.583 59.1104 354.571C56.4342 358.558 52.6358 361.662 48.1954 363.491C43.7551 365.319 38.8722 365.79 34.1643 364.844C29.4564 363.897 25.1349 361.576 21.7462 358.173C18.3576 354.77 16.0541 350.439 15.1269 345.728C14.1998 341.016 14.6907 336.135 16.5375 331.702C18.3843 327.269 21.5041 323.484 25.5024 320.824C29.5007 318.164 34.1979 316.75 39.0001 316.76C45.4338 316.792 51.5935 319.368 56.1335 323.927C60.6736 328.486 63.2249 334.656 63.2301 341.09Z" fill="white"/>
<path d="M2370.69 786.09C2358.24 786.113 2345.82 784.7 2333.69 781.88C2328.55 780.68 2323.4 779.23 2318.36 777.57L2319.89 772.93C2324.79 774.54 2329.81 775.93 2334.8 777.13C2346.56 779.861 2358.6 781.23 2370.68 781.21C2375.32 781.21 2380.04 781.01 2384.68 780.62L2385.09 785.49C2380.32 785.89 2375.46 786.09 2370.69 786.09ZM2407.43 782.21L2406.43 777.43C2427.97 772.852 2448.56 764.587 2467.29 753L2469.85 757.16C2450.64 769.039 2429.52 777.513 2407.43 782.21ZM2297.43 769.21C2277.06 759.491 2258.46 746.411 2242.43 730.52L2245.85 727.04C2261.49 742.541 2279.62 755.305 2299.49 764.8L2297.43 769.21ZM2488.3 744.35L2485.3 740.5C2502.72 727.053 2517.47 710.468 2528.8 691.6L2533 694.09C2521.37 713.475 2506.22 730.517 2488.33 744.34L2488.3 744.35ZM2227.3 713.98C2212.93 696.648 2201.11 677.353 2192.19 656.68L2196.67 654.74C2205.39 674.98 2216.95 693.873 2231 710.85L2227.3 713.98ZM2543.17 673.98L2538.66 672.1C2545.38 656.098 2549.07 638.989 2549.55 621.64C2549.55 620.28 2549.61 618.92 2549.61 617.57C2549.61 614.39 2549.51 611.16 2549.32 607.98L2554.19 607.69C2554.39 610.97 2554.49 614.29 2554.49 617.57C2554.49 618.97 2554.49 620.37 2554.49 621.77C2553.96 639.708 2550.12 657.393 2543.15 673.93L2543.17 673.98ZM2184.17 635.71C2177.13 614.313 2173.28 591.998 2172.74 569.48L2177.63 569.38C2178.15 591.419 2181.92 613.261 2188.82 634.2L2184.17 635.71ZM1042.17 595.92C1033.17 595.92 1023.96 595.6 1014.87 594.92L1015.21 590.05C1024.21 590.68 1033.21 591.05 1042.21 591.05C1055.32 591.05 1068.42 590.359 1081.46 588.98L1081.97 593.84C1068.75 595.217 1055.47 595.895 1042.18 595.87L1042.17 595.92ZM992.59 592.77C970.391 589.91 948.457 585.272 927 578.9L928.39 574.22C949.605 580.504 971.292 585.069 993.24 587.87L992.59 592.77ZM1104.11 590.77L1103.3 585.95C1120.33 583.08 1137.11 578.942 1153.52 573.57C1158.07 572.08 1162.68 570.47 1167.23 568.8L1168.92 573.38C1164.32 575.08 1159.65 576.7 1155.05 578.21C1138.41 583.643 1121.38 587.828 1104.12 590.73L1104.11 590.77ZM2546.52 586.25C2542.52 565.99 2534.69 545.36 2523.08 524.95L2527.33 522.53C2539.19 543.41 2547.26 564.53 2551.33 585.32L2546.52 586.25ZM905.71 572C884.61 564.525 864.125 555.418 844.44 544.76L846.76 540.47C866.223 551.005 886.477 560.006 907.34 567.39L905.71 572ZM1189.71 565.07L1187.78 560.58C1208.11 551.804 1227.85 541.729 1246.89 530.42L1249.37 534.63C1230.15 546.037 1210.23 556.201 1189.71 565.06V565.07ZM384.57 548.64C377.57 548.64 370.42 548.52 363.41 548.26L363.59 543.38C370.59 543.63 377.59 543.76 384.59 543.76C399.16 543.76 413.92 543.21 428.44 542.11L430 542L430.38 546.87L428.8 546.99C414.14 548.09 399.27 548.64 384.57 548.64ZM2178.34 547.37L2173.47 546.95L2173.59 545.68C2175.65 523.717 2180.54 502.113 2188.16 481.41L2192.75 483.08C2185.28 503.374 2180.48 524.55 2178.45 546.08L2178.34 547.37ZM341.11 547C318.823 545.349 296.652 542.393 274.71 538.15L275.64 533.36C297.394 537.562 319.375 540.49 341.47 542.13L341.11 547ZM452.6 544.71L452.05 539.86C473.66 537.42 495.73 533.86 517.64 529.14L518.64 533.92C496.59 538.66 474.37 542.29 452.6 544.74V544.71ZM825.05 533.56C805.942 521.898 787.801 508.723 770.8 494.16L773.98 490.45C790.786 504.843 808.716 517.868 827.6 529.4L825.05 533.56ZM252.87 533.45C231.114 528.328 209.704 521.832 188.77 514L190.49 509.43C211.227 517.201 232.436 523.648 253.99 528.73L252.87 533.45ZM540.41 529L539.25 524.25C560.25 519.08 581.78 512.8 603.07 505.58L604.63 510.21C583.21 517.43 561.6 523.75 540.41 529ZM1268.41 523L1265.8 518.87C1282.65 508.21 1300.59 495.87 1320.65 481.2L1323.54 485.14C1303.39 499.87 1285.35 512.25 1268.41 523ZM2511.41 506.22C2498.83 488.022 2484.64 470.997 2469 455.35L2472.47 451.92C2488.32 467.77 2502.71 485.016 2515.47 503.45L2511.41 506.22ZM168 505.67C147.431 496.886 127.508 486.661 108.38 475.07L110.92 470.89C129.847 482.368 149.563 492.49 169.92 501.18L168 505.67ZM625.63 502.72L624 498.14C644.32 490.65 665 482.14 685.52 472.79L687.52 477.23C666.9 486.61 646.1 495.19 625.66 502.72H625.63ZM754.2 479.16C746.36 471.64 738.867 463.837 731.72 455.75C723.673 459.897 715.673 463.897 707.72 467.75L705.59 463.36C713.197 459.7 720.813 455.913 728.44 452C721.947 444.46 715.797 436.727 709.99 428.8L713.93 425.91C719.883 434.03 726.217 441.957 732.93 449.69C743.49 444.203 754.043 438.487 764.59 432.54L766.98 436.8C756.77 442.55 746.5 448.12 736.25 453.47C743.05 461.117 750.18 468.52 757.64 475.68L754.2 479.16ZM1341.39 471.85L1338.45 467.94C1352.1 457.69 1365.88 447.06 1379.22 436.78L1391.41 427.38L1394.41 431.25L1382.22 440.64C1368.88 450.93 1355.08 461.57 1341.42 471.85H1341.39ZM89.6001 463C71.0768 450.44 53.5666 436.447 37.2301 421.15L40.5701 417.59C56.7195 432.711 74.0292 446.544 92.3401 458.96L89.6001 463ZM2201.13 462.72L2196.69 460.72C2206.1 440.349 2217.68 421.049 2231.21 403.15L2235.11 406.08C2221.79 423.684 2210.4 442.666 2201.13 462.7V462.72ZM2453.07 440C2448.51 435.78 2443.72 431.51 2438.84 427.3C2426.96 417.07 2414.54 407.06 2401.93 397.57L2404.87 393.67C2417.56 403.22 2430.07 413.3 2442.03 423.6C2446.95 427.85 2451.78 432.15 2456.39 436.41L2453.07 440ZM786.27 425.62L783.79 421.42C795.51 414.51 807.41 407.21 819.15 399.73C826.64 394.96 833.52 390.46 840.15 385.99L842.88 390.04C836.2 394.54 829.29 399.04 821.76 403.85C810 411.36 798 418.69 786.27 425.62ZM1412.08 417.74L1409.08 413.85C1430.41 397.62 1447.08 385.44 1463.01 374.36L1465.8 378.36C1449.93 389.41 1433.35 401.55 1412.08 417.74ZM697.31 410.31C685.993 392.718 676.255 374.159 668.21 354.85C667.64 353.48 667.08 352.09 666.52 350.71L671.06 348.9C671.6 350.26 672.16 351.62 672.72 352.98C680.653 372.022 690.257 390.323 701.42 407.67L697.31 410.31ZM2249 388.82L2245.29 385.64C2259.9 368.676 2276.01 353.066 2293.43 339L2296.5 342.8C2279.31 356.675 2263.41 372.077 2249 388.82ZM2384 384.49C2366.06 371.82 2347.23 359.75 2328 348.62L2330.45 344.39C2349.78 355.6 2368.74 367.75 2386.8 380.5L2384 384.49ZM861.2 377.32L858.36 373.32C876.458 360.535 893.708 346.589 910 331.57L913.33 335.14C896.892 350.313 879.485 364.403 861.22 377.32H861.2ZM1484.2 365.94L1481.51 361.86L1486.51 358.61C1503.43 347.61 1521.1 337.2 1539.04 327.61L1541.35 331.92C1523.52 341.46 1505.97 351.82 1489.17 362.72C1487.5 363.78 1485.85 364.85 1484.21 365.94H1484.2ZM2308.7 337.78C2289.38 327.32 2269.27 317.52 2248.92 308.65L2250.92 304.17C2271.39 313.09 2291.63 322.96 2311.07 333.48L2308.7 337.78ZM658.92 329.63C652.013 308.28 647.253 286.295 644.71 264L649.56 263.45C652.075 285.407 656.765 307.06 663.56 328.09L658.92 329.63ZM2314.08 329.37L2311.24 325.37L2312.06 324.78C2330.04 312.045 2348.89 300.6 2368.49 290.53L2370.73 294.86C2351.34 304.833 2332.68 316.161 2314.89 328.76L2314.08 329.37ZM1561.08 321.75L1558.91 317.37C1578.7 307.54 1599.3 298.43 1620.11 290.3L1621.89 294.85C1601.16 302.93 1580.7 312 1561 321.75H1561.08ZM929.26 319.41L925.67 316C940.996 300.114 954.522 282.585 966 263.73L970.19 266.24C958.529 285.418 944.786 303.25 929.21 319.41H929.26ZM2228.52 300.08C2208.13 291.86 2187.04 284.36 2165.85 277.79L2167.3 273.13C2188.61 279.74 2209.83 287.28 2230.35 295.55L2228.52 300.08ZM1642.66 287.08L1641.01 282.49C1661.83 275.04 1683.33 268.37 1704.93 262.67L1706.17 267.39C1684.66 273.06 1663.29 279.69 1642.61 287.08H1642.66ZM2390.66 285.15L2388.6 280.72C2408.88 271.359 2429.62 263.058 2450.76 255.85L2452.35 260.47C2431.36 267.619 2410.75 275.857 2390.61 285.15H2390.66ZM2144.58 271.51C2123.37 265.56 2101.58 260.38 2079.87 256.12L2080.81 251.32C2102.67 255.61 2124.57 260.82 2145.9 266.81L2144.58 271.51ZM1727.64 262L1726.52 257.25C1748.06 252.19 1770.17 247.95 1792.23 244.64L1792.96 249.47C1771 252.78 1749.05 257 1727.64 262ZM2473.37 253.54L2471.91 248.88C2491.98 242.61 2513.08 236.88 2536.42 231.22L2537.57 235.97C2514.33 241.58 2493.33 247.33 2473.37 253.56V253.54ZM2058 252.13C2036.24 248.46 2014 245.6 1992 243.64L1992.43 238.78C2014.58 240.78 2036.91 243.62 2058.79 247.32L2058 252.13ZM1814.93 246.5L1814.34 241.65C1836.34 238.96 1858.77 237.12 1881.02 236.18L1881.23 241.05C1859.1 242 1836.8 243.82 1814.93 246.5ZM980.8 246.43L976.39 244.34C985.865 224.44 992.271 203.219 995.39 181.4L1000.22 182.08C997.04 204.389 990.492 226.086 980.8 246.43ZM3296.41 242.76C3285.68 240 3274.76 237.31 3263.95 234.76L3265.06 230C3275.91 232.55 3286.86 235.24 3297.63 238L3296.41 242.76ZM1969.9 242C1952.32 240.9 1934.48 240.34 1916.9 240.34C1912.42 240.34 1907.9 240.34 1903.43 240.45L1903.35 235.57C1907.83 235.49 1912.35 235.46 1916.9 235.46C1934.61 235.46 1952.55 236.02 1970.24 237.13L1969.9 242ZM642.9 241.74C642.69 237.08 642.59 232.36 642.59 227.74C642.559 209.967 644.139 192.228 647.31 174.74L652.11 175.62C648.992 192.807 647.439 210.242 647.47 227.71C647.47 232.28 647.58 236.92 647.78 241.52L642.9 241.74ZM2559.2 231L2558.13 226.24L2559.04 226.03C2580.35 221.29 2602.09 216.92 2623.65 213.03L2624.51 217.84C2603.02 221.68 2581.35 226.03 2560.1 230.76L2559.2 231ZM3242.29 229.9C3220.71 225.16 3198.72 220.83 3176.92 217.01L3177.77 212.2C3199.63 216.03 3221.69 220.38 3243.34 225.13L3242.29 229.9ZM2646.4 214.09L2645.61 209.27C2667.47 205.68 2689.73 202.51 2711.77 199.84L2712.36 204.69C2690.39 207.35 2668.2 210.51 2646.4 214.09ZM3155 213.3C3133.2 209.79 3111 206.7 3089 204.12L3089.57 199.27C3111.57 201.86 3133.88 204.96 3155.76 208.48L3155 213.3ZM2734.41 202.18L2733.89 197.32C2755.89 194.97 2778.33 193.05 2800.47 191.63L2800.79 196.5C2778.73 197.92 2756.4 199.83 2734.43 202.18H2734.41ZM3066.94 201.67C3044.94 199.4 3022.61 197.56 3000.54 196.2L3000.84 191.33C3022.98 192.69 3045.39 194.53 3067.44 196.82L3066.94 201.67ZM2822.94 195.23L2822.69 190.35C2844.83 189.23 2867.31 188.57 2889.49 188.35V193.23C2867.46 193.46 2845.05 194.12 2823 195.23H2822.94ZM2978.35 195C2956.26 193.95 2933.85 193.36 2911.74 193.24V188.35C2933.92 188.47 2956.39 189.07 2978.55 190.12L2978.35 195ZM1002.16 159.66L997.27 159.52C997.33 157.65 997.36 155.77 997.36 153.92C997.517 133.808 993.985 113.838 986.94 95L991.5 93.26C998.761 112.653 1002.4 133.213 1002.24 153.92C1002.24 155.81 1002.21 157.75 1002.16 159.66ZM657 154.11L652.29 152.82C658.128 131.076 667.066 110.286 678.83 91.09L683 93.66C671.483 112.461 662.727 132.819 657 154.11ZM695.5 75.6L691.64 72.6C695.14 68.07 698.87 63.6 702.72 59.44C714.139 47.0606 727.305 36.4149 741.8 27.84L744.3 32.04C730.205 40.3672 717.403 50.7099 706.3 62.74C702.6 66.86 699 71.18 695.54 75.6H695.5ZM977.58 75.24C976.04 72.55 974.4 69.88 972.69 67.29C962.28 51.6387 948.616 38.4178 932.63 28.53L935.22 24.39C951.819 34.6366 966.003 48.3538 976.8 64.6C978.57 67.27 980.27 70.04 981.86 72.83L977.58 75.24ZM763.83 22L761.83 17.54C782.468 8.34864 804.493 2.66074 827 0.71L827.43 5.58C805.464 7.47692 783.969 13.0265 763.83 22ZM913.31 18.45C893.81 10.04 872.31 5.45 849.31 4.92L849.45 0C873.03 0.58 895.17 5.27 915.24 13.93L913.31 18.45Z" fill="white"/>
</svg>
