<svg xmlns="http://www.w3.org/2000/svg" viewBox="0 0 845.31 122.71"><defs><style>.cls-1,.cls-2{fill:#fff;}.cls-2{stroke:#fff;stroke-miterlimit:10;}</style></defs><title>Ресурс 3</title><g id="Слой_2" data-name="Слой 2"><g id="Layer_1" data-name="Layer 1"><path class="cls-1" d="M833.25,11.46c-1.13.39-29.3,18.35-29.3,18.35-25.62-8.94-47.89-16.84-74-26.59l-5.82,4L740.75,19c-1.25,1.44-3.21,3.92-2.59,4.77s4.14-1.14,6.08-2.34L753.61,28s-4.47,4.68-3.58,5.86,7.42-3.16,7.42-3.16l8.37,5.84s-4.57,5.09-3,6.57,8.38-3,8.38-3l8.69,5.48a393,393,0,0,0-37.79,27.08l-23.88-6.72-4.63,4.13c24,12.62,21.43,10.77,23.54,36.66l5.71-1.33,4.31-25.07a76.43,76.43,0,0,0,8.42-4.45c6-3.44,31.24-18.67,31.24-18.67l.82,9.82s-6.9,4.66-6.43,6,7.74-2.15,7.74-2.15l2.18,12.26s-6.06,3.61-5.18,5,5.83-.77,5.83-.77l1.77,10.34c-1.78,1.47-4.6,4-4,4.93s3,0,4.73-.72l3.56,20.83,7.56-3.92c1.49-27.51,2.55-51.83,5.95-78.42C833.82,24.61,837.75,22,837.75,22c10-9.65,11.53-16.83-4.5-10.54Z"/><path class="cls-1" d="M17.7,11.13A17.69,17.69,0,0,0,0,28.89C0,51,17.7,66.56,17.7,66.56S35.34,51,35.34,28.89A17.68,17.68,0,0,0,17.7,11.13Zm11,17.76a11,11,0,1,1-11-11.1,11.08,11.08,0,0,1,11,11.1Z"/><path class="cls-2" d="M657,100.63h-1.13v-.86c2,0,4,0,6-.06l0,.86C660.28,100.6,658.62,100.63,657,100.63Zm-5-.07h-.35c-1.93,0-3.85-.14-5.71-.25l0-.87c1.86.12,3.77.2,5.69.26H652Zm13.73-.13,0-.87c2-.09,4-.21,6-.37l.07.87C669.79,100.21,667.76,100.34,665.75,100.43ZM642.13,100c-2-.18-4.07-.39-6-.65l.11-.86c1.95.25,4,.47,6,.64Zm33.49-.29-.08-.87c2-.19,4-.42,6-.67l.11.86C679.65,99.31,677.62,99.53,675.62,99.73Zm-43.32-.9c-2-.32-4-.69-6-1.1l.18-.85c1.92.41,3.91.77,5.92,1.09Zm53.15-.3-.13-.86c2-.29,4-.62,5.95-1l.15.85C689.44,97.91,687.43,98.23,685.45,98.53Zm-62.87-1.65c-2-.5-4-1-5.85-1.63l.26-.83c1.87.58,3.82,1.13,5.8,1.61Zm72.62,0L695,96c2-.39,3.94-.82,5.9-1.27l.19.85C699.16,96,697.17,96.45,695.2,96.84ZM556.62,95.29c-2,0-4,0-6.06-.13l0-.87c2,.09,4,.13,6,.14Zm3.84-.05,0-.86c2-.06,4-.16,6-.31l.07.87C564.53,95.08,562.49,95.19,560.46,95.24Zm-13.74-.3c-2-.13-4-.31-6-.53l.1-.86c2,.21,4,.39,6,.53Zm158.13-.27-.21-.84c1.94-.49,3.9-1,5.83-1.56l.24.83C708.77,93.65,706.8,94.18,704.85,94.67Zm-134.5-.08-.09-.86c2-.21,4-.47,6-.78l.13.86C574.38,94.12,572.36,94.38,570.35,94.59ZM613.08,94c-1.93-.69-3.83-1.45-5.65-2.24l.35-.8c1.8.79,3.68,1.54,5.59,2.22ZM536.87,94c-2-.26-4-.55-6-.89l.14-.85c2,.33,4,.63,6,.88Zm43.28-.8L580,92.3c2-.37,4-.8,5.88-1.28l.21.84C584.13,92.34,582.14,92.78,580.15,93.15Zm-53.06-.76c-2-.36-4-.77-5.94-1.2l.19-.85c2,.43,4,.84,5.91,1.2ZM714.39,92l-.25-.83c1.91-.58,3.85-1.2,5.75-1.84l.27.82C718.25,90.81,716.31,91.43,714.39,92ZM589.8,90.87l-.24-.83c1.92-.56,3.85-1.18,5.72-1.86l.29.82C593.68,89.68,591.74,90.31,589.8,90.87Zm-72.39-.54c-1.93-.46-3.91-1-5.88-1.48l.23-.84c2,.53,3.92,1,5.85,1.48Zm86.53-.17c-1.61-.81-3.2-1.67-4.73-2.56h0l0,0-.54-.32.24-.41v0h0l.18-.3.22.13c1.72-.72,3.42-1.49,5.06-2.3l.38.78c-1.46.72-3,1.42-4.5,2.07,1.34.77,2.72,1.5,4.12,2.2ZM723.79,88.9l-.29-.81c1.88-.68,3.78-1.39,5.64-2.13l.32.81C727.59,87.51,725.68,88.22,723.79,88.9Zm-216-1.07c-1.91-.54-3.86-1.12-5.8-1.72l.25-.83c1.94.6,3.89,1.18,5.79,1.72ZM733,85.33l-.33-.8c1.85-.77,3.71-1.58,5.53-2.41l.36.79C736.75,83.74,734.88,84.55,733,85.33Zm-137.67-.16-.75-.52c-1.4-1-2.79-2-4.13-3.13l.55-.67c1.32,1.09,2.69,2.13,4.07,3.09l.74.51Zm-97-.22c-1.89-.62-3.82-1.27-5.74-1.94l.28-.82c1.92.67,3.85,1.32,5.72,1.93Zm109.75-1.63-.42-.76c1.77-1,3.51-2,5.15-3.12l.47.72C611.66,81.26,609.91,82.33,608.12,83.32ZM489,81.73c-1.86-.68-3.77-1.39-5.67-2.12l.31-.81c1.89.73,3.8,1.44,5.66,2.11Zm253-.43-.37-.79c1.81-.86,3.63-1.76,5.41-2.67l.4.77C745.71,79.53,743.88,80.43,742.06,81.3ZM79.83,79.7c-1.65,0-3.31,0-4.94-.07l0-.86c2,0,4,.07,6,.06v.87Zm5-.07,0-.86c2,0,4-.14,6-.25l0,.86C88.81,79.5,86.77,79.58,84.79,79.63Zm-13.74-.15c-2-.1-4.06-.24-6-.41l.07-.87c2,.18,4,.32,6,.42Zm23.62-.35-.07-.87c2-.15,4-.33,6-.54l.09.87C98.68,78.79,96.65,79,94.67,79.13ZM587.57,79c-1.47-1.38-2.9-2.86-4.24-4.38L584,74c1.32,1.5,2.72,2.95,4.18,4.32ZM61.18,78.69c-2-.23-4-.5-6-.8l.13-.86c2,.3,4,.57,6,.8Zm418.58-.47-.3-.12c-1.72-.68-3.51-1.41-5.31-2.15l.33-.8c1.8.74,3.58,1.46,5.3,2.14l.3.12Zm-375.25-.06-.1-.86c2-.24,4-.51,6-.8l.12.86C108.5,77.65,106.48,77.92,104.51,78.16Zm512-.22-.51-.69c1.63-1.21,3.19-2.49,4.66-3.8l.57.64C619.72,75.42,618.13,76.72,616.48,77.94ZM51.39,77.26c-2-.37-4-.77-5.94-1.21l.19-.85c1.93.44,3.92.84,5.9,1.2Zm699.51-.44-.41-.77c1.77-1,3.54-1.94,5.27-2.94l.43.75C754.45,74.86,752.67,75.86,750.9,76.82Zm-636.59,0-.14-.86c2-.32,4-.66,6-1l.15.85C118.28,76.11,116.27,76.46,114.31,76.78Zm-72.6-1.64c-2-.51-3.93-1.06-5.84-1.65l.26-.83C38,73.25,40,73.8,41.92,74.3ZM124,75l-.17-.85c1.95-.39,3.94-.81,5.91-1.24l.19.85C128,74.21,126,74.63,124,75Zm346.57-.54L465,72.11l.34-.8c1.91.83,3.78,1.62,5.56,2.37Zm-336.9-1.55-.19-.85c1.93-.45,3.9-.93,5.86-1.43l.21.84C137.63,72,135.65,72.47,133.71,72.93ZM32.22,72.3c-1.92-.66-3.83-1.37-5.69-2.11l.32-.81c1.84.74,3.75,1.45,5.65,2.1Zm727.27-.4-.44-.75c1.71-1,3.43-2.12,5.11-3.21l.47.73C762.94,69.77,761.22,70.85,759.49,71.9Zm-178.62-.3c-1.25-1.61-2.42-3.3-3.49-5l.73-.46c1,1.68,2.21,3.34,3.44,4.93ZM624,71.43l-.61-.61a57.48,57.48,0,0,0,4-4.5l.68.54A59.64,59.64,0,0,1,624,71.43Zm-162.48-.85C459.77,69.82,458,69,456,68.14l.35-.79,5.53,2.44Zm-318.21,0-.22-.84c1.92-.51,3.88-1,5.82-1.6l.24.84C147.2,69.48,145.23,70,143.31,70.53ZM23,68.71c-1.85-.81-3.7-1.68-5.5-2.58l.38-.78c1.79.9,3.62,1.76,5.46,2.56Zm129.85-.85-.24-.83c1.88-.55,3.82-1.13,5.79-1.74l.25.83C156.66,66.73,154.71,67.31,152.83,67.86Zm299.65-1.28L447,64.09l.35-.79,5.52,2.48Zm315.35,0-.48-.72c1.34-.91,2.69-1.85,4-2.8l.5.71C770.53,64.69,769.18,65.63,767.83,66.55ZM162.29,65l-.26-.83,5.76-1.83.26.82C166.08,63.79,164.14,64.41,162.29,65Zm468.06-1.24-.72-.49a49.42,49.42,0,0,0,3.09-5.15l.76.4A50,50,0,0,1,630.35,63.75Zm-54.91-.5a56.52,56.52,0,0,1-2.6-5.53l.8-.32a54.72,54.72,0,0,0,2.56,5.44Zm-132-.73-.2-.1L438,60l.35-.79,5.31,2.39.21.1ZM171.7,62l-.27-.82,5.73-1.91.28.82Zm9.15-3-.3-.89,6.19-2.11.3.88Zm253.62-.48c-2-.9-3.81-1.71-5.53-2.46l.35-.8,5.53,2.47ZM190.42,55.62l-.28-.82L195,53.13l.87-.3.28.82-.87.3ZM635.14,55l-.8-.34c.14-.33.28-.67.41-1A36,36,0,0,0,636.26,49l.84.21A38.84,38.84,0,0,1,635.55,54C635.42,54.33,635.28,54.67,635.14,55Zm-209.7-.56c-1.95-.85-3.76-1.64-5.55-2.4l.34-.8c1.79.77,3.61,1.55,5.55,2.41Zm146.08-.37a51,51,0,0,1-1.5-5.93l.84-.16a48.72,48.72,0,0,0,1.49,5.82ZM199.76,52.4l-.28-.82,5.72-2,.28.82Zm216.61-1.85c-1.91-.8-3.79-1.58-5.59-2.31l.33-.8c1.8.73,3.68,1.51,5.59,2.31ZM209.11,49.2l-.28-.82,5.73-1.93.28.82Zm198.12-2.39c-1.91-.76-3.8-1.49-5.63-2.19l.3-.81c1.84.7,3.74,1.44,5.65,2.19Zm-188.76-.74-.27-.83L224,43.37l.26.83Zm419.4-.67-.86-.14a42.19,42.19,0,0,0,.48-6h.86A44.16,44.16,0,0,1,637.87,45.4Zm-68.42-1.09a44.82,44.82,0,0,1-.24-4.62c0-.5,0-1,0-1.49l.86,0c0,.48,0,1,0,1.46a43.1,43.1,0,0,0,.24,4.53ZM398,43.29c-1.91-.71-3.83-1.39-5.69-2l.29-.82c1.86.65,3.78,1.33,5.7,2ZM227.87,43l-.26-.83c2-.62,3.92-1.22,5.79-1.78l.25.83C231.78,41.82,229.84,42.42,227.87,43Zm9.45-2.87-.24-.84c2-.57,3.92-1.14,5.81-1.66l.23.83C241.23,39,239.28,39.59,237.32,40.17ZM388.7,40c-1.93-.64-3.87-1.25-5.75-1.83l.25-.83c1.89.58,3.83,1.19,5.77,1.83ZM246.82,37.49l-.23-.84c2-.53,3.95-1,5.86-1.52l.21.84C250.75,36.45,248.78,37,246.82,37.49Zm132.46-.37L378,36.74c-1.49-.42-3-.83-4.49-1.22l.21-.84c1.51.4,3,.81,4.51,1.23l1.34.38Zm258.08-1.64a44,44,0,0,0-.86-5.94l.84-.19a44.24,44.24,0,0,1,.88,6.06Zm-381-.42-.2-.84c2-.48,4-.93,5.9-1.35l.18.84C260.33,34.14,258.35,34.59,256.38,35.06Zm113.37-.47c-1.94-.47-3.92-.93-5.88-1.35l.18-.85c2,.43,3.95.88,5.9,1.36Zm200.65-.16-.85-.1c.05-.45.12-.91.19-1.35a33.24,33.24,0,0,1,1.07-4.65l.82.25a34.61,34.61,0,0,0-1,4.54C570.52,33.55,570.46,34,570.4,34.43ZM266,32.92l-.18-.85c2-.4,4-.79,5.95-1.14l.15.85C270,32.13,268,32.52,266,32.92Zm94.11-.45c-2-.39-4-.76-5.93-1.1l.14-.86c2,.34,4,.71,6,1.11ZM275.7,31.12l-.15-.85c1.74-.29,3.48-.56,5.18-.8l.81-.12.12.86-.8.11C279.16,30.57,277.42,30.84,275.7,31.12Zm74.71-.37c-2-.31-4-.6-6-.85l.11-.86c2,.26,4,.54,6,.85Zm-65-1-.1-.86c2-.25,4-.47,6-.66l.09.86C289.45,29.24,287.44,29.46,285.45,29.71Zm55.19-.27c-2-.23-4-.43-6-.6l.08-.87c2,.18,4,.38,6,.61Zm-45.38-.73-.07-.86c2-.17,4-.3,6-.41l0,.86C299.28,28.41,297.25,28.55,295.26,28.71Zm35.57-.17c-2-.14-4-.26-6-.35l0-.87c2,.09,4.05.21,6.05.35Zm-25.73-.42,0-.86c2-.08,4.05-.13,6.06-.16V28C309.13,28,307.1,28.05,305.1,28.12ZM321,28.05c-2-.06-4-.09-6-.1v-.87c2,0,4.05,0,6.06.1Zm314.56-2.2a41.77,41.77,0,0,0-2.17-5.59l.78-.37a42.18,42.18,0,0,1,2.21,5.71ZM572.92,25l-.79-.33a40.1,40.1,0,0,1,2.8-5.45l.74.46A38.32,38.32,0,0,0,572.92,25Zm58.67-8.1A36.22,36.22,0,0,0,628.13,12l.66-.56a37.61,37.61,0,0,1,3.54,5Zm-53.78-.36-.69-.52a42.94,42.94,0,0,1,4-4.6l.61.62A42.12,42.12,0,0,0,577.81,16.54Zm6.77-7L584,8.83a40.17,40.17,0,0,1,5-3.49l.44.75A37.59,37.59,0,0,0,584.58,9.51Zm40.94-.24a30.73,30.73,0,0,0-4.71-3.64l.46-.73a31.17,31.17,0,0,1,4.84,3.74ZM592.85,4.34l-.36-.79a34.75,34.75,0,0,1,5.76-2l.21.84A33.6,33.6,0,0,0,592.85,4.34Zm24.63-.49a27.69,27.69,0,0,0-4.37-1.56c-.42-.11-.84-.21-1.27-.3l.18-.85c.44.09.88.2,1.31.31a28.82,28.82,0,0,1,4.51,1.61ZM602.17,1.62l-.11-.86a29.9,29.9,0,0,1,6.12-.18l-.07.87A28.88,28.88,0,0,0,602.17,1.62Z"/></g></g></svg>