<svg xmlns="http://www.w3.org/2000/svg" viewBox="0 0 57.77 52.76"><defs><style>.cls-1{fill:#333;fill-rule:evenodd;}</style></defs><title>flexible-schedule
</title><g id="Слой_2" data-name="Слой 2"><g id="_5" data-name="5"><path class="cls-1" d="M1.11,43.12a.89.89,0,0,1-.77-.32A1,1,0,0,1,0,42V1.09A1.11,1.11,0,0,1,.34.32,1.09,1.09,0,0,1,1.11,0H56.6a1,1,0,0,1,.77.32,1,1,0,0,1,.4.77V42a.9.9,0,0,1-.4.78.83.83,0,0,1-.77.32ZM14.85,5.52a7,7,0,0,1,5,2.06,7,7,0,0,1,0,9.94,7,7,0,1,1-5-12Zm-5.59,10,1.23-.71.22.39-1.22.72ZM8.52,12h1.89v1.13H8.52Zm1-2.8,1.22.72-.22.4L9.26,9.58Zm2.7,7.47.4.22-.72,1.25-.4-.23ZM11.87,7l.72,1.25-.4.23L11.47,7.2Zm2.41,10h1.14v1.89H14.28Zm0-10.74h1.14V8.12H14.28ZM17.82,7l.4.23L17.5,8.45l-.4-.23Zm2.4,2.21.23.4-1.25.72L19,9.9Zm1,3.93H19.29V12h1.89Zm-1,2.8L19,15.19l.23-.39,1.25.71Zm-2.4,2.21-.72-1.25.4-.22.72,1.24Zm-.06-7.44h0a.2.2,0,0,0-.3,0l-2.31,1.64a.49.49,0,0,0-.24-.07c-.06,0-.1,0-.11,0l-1.67-1.4a.2.2,0,0,0-.32,0L12.7,11a.22.22,0,0,0,0,.32l1.66,1.42v0a.54.54,0,0,0,.45.53v3H15v-3a.56.56,0,0,0,.46-.53.07.07,0,0,0,0-.06L17.74,11a.22.22,0,0,0,.08-.31Zm1.93-3a6.82,6.82,0,0,0-9.69,0,6.84,6.84,0,1,0,9.69,9.67,6.84,6.84,0,0,0,0-9.67ZM26,16.53c-.34-.9-2.25-3.3-2.55-4.29a2.86,2.86,0,0,1,.93-.28c.91.32,2.74,2,4.08,2.4a9,9,0,0,0,2.93.09c1.72-.37,4.61-1.62,6.78-2.36S43,10.43,44.43,10a7,7,0,0,1,2.23-.55A6.31,6.31,0,0,1,49.6,10c.18.16.25.21.08.46a3.3,3.3,0,0,1-.49.45c-.17.14-.36.27-.49.36l-.12.1c.06.07.16.2.1.28a3.6,3.6,0,0,1-.74.49s0,.08,0,.11a.24.24,0,0,1,.19.08.43.43,0,0,1,.08.3.27.27,0,0,1-.32.15.25.25,0,0,1-.21,0,.24.24,0,0,1-.14-.17.25.25,0,0,1,0-.26.24.24,0,0,1,.19-.08.08.08,0,0,0,0-.07,3.59,3.59,0,0,1-.49.18c-.15,0-.21-.11-.25-.2-.6.22-2.95,1-3.68,1.32l-.11,0a1.51,1.51,0,0,1,.09.56v.08l-.32.15a5.59,5.59,0,0,1-.64.3c-.46.19-1,.36-1.19.44s-.17.09-.25,0,0-.21-.49-.12c-.15,0-.19-.3-.23-.36a1,1,0,0,0-.22.08l-1.69.6.08,0h0a.51.51,0,0,1,0,.31.42.42,0,0,1,.3.11.49.49,0,0,1,.09.43.39.39,0,0,1-.47.25.38.38,0,0,1-.3,0,.46.46,0,0,1-.15-.68.7.7,0,0,1,.28-.12.25.25,0,0,0-.09-.24l-.78.28a1,1,0,0,1-.28.09c0,.08,0,.16,0,.21a.35.35,0,0,1,.28.12.46.46,0,0,1,.09.41.37.37,0,0,1-.45.25.34.34,0,0,1-.3,0,.36.36,0,0,1-.21-.25.37.37,0,0,1,.06-.4.41.41,0,0,1,.28-.09.23.23,0,0,0,0-.17h0c-1,.34-2.15.79-3.08,1a17.36,17.36,0,0,1-3,.53,33.85,33.85,0,0,1-4.76.25s0,0,0,0,0,0,0,0h0a29.64,29.64,0,0,0,4.55-1.35q2.44-.83,4.86-1.68c1.23-.41,2.43-.86,3.64-1.3,1.84-.66,3.67-1.27,5.52-1.91,1.33-.47,2.65-.89,4-1.3a11.36,11.36,0,0,0-2.23.3c-2.19.64-7.26,2.38-10.68,3.63-1.39.49-2.79,1-4.19,1.47s-2.57.87-3.86,1.29a6.85,6.85,0,0,1-2,.52.76.76,0,0,1-.23-.47c.23-.19.51-.19.68-.36Zm21.3-6.91c-.09.05.17.45.32.43.38,0,.78-.05,1.15-.11s-.86-.42-1.47-.32ZM37.13,16.14c.1,0,.19.09.21.22s0,.27-.11.29a.25.25,0,0,1-.21-.23c0-.15,0-.27.11-.28Zm-.41,0a.15.15,0,0,0-.15.09.45.45,0,0,0,0,.44.24.24,0,0,0,.23,0,.33.33,0,0,1-.13-.58ZM48,12.36s.11.05.13.15,0,.19-.08.19-.13-.06-.13-.15,0-.19.08-.19Zm-.29,0a.16.16,0,0,0-.11.07.29.29,0,0,0,0,.29.15.15,0,0,0,.17,0,.22.22,0,0,1-.1-.39Zm-9.14,3.38c.09,0,.19.08.21.23s0,.26-.12.28a.26.26,0,0,1-.21-.23c0-.15,0-.26.12-.28Zm-.49,0a.19.19,0,0,0-.15.09.41.41,0,0,0,0,.42.22.22,0,0,0,.23.07.33.33,0,0,1-.13-.58Zm6.76-4.88.08,0s.09,0,.09,0l.06.23s0,.09-.06.09l-.07,0a.12.12,0,0,1-.1,0L44.8,11a.11.11,0,0,1,.06-.1Zm-8.6,3,.08,0s.07,0,.07.06l.06.22s0,.08-.06.1l-.07,0a.07.07,0,0,1-.1,0l0-.23a.07.07,0,0,1,0-.09Zm.55-.19.08,0a.11.11,0,0,1,.09.06L37,14s0,.08-.06.1l-.07,0s-.08,0-.08,0l-.06-.23s0-.09.06-.09Zm.51-.21.1,0a0,0,0,0,1,.07,0l.06.23s0,.09-.06.09l-.07,0a.11.11,0,0,1-.1-.06l0-.23a.07.07,0,0,1,0-.09Zm.59-.21.07,0a.08.08,0,0,1,.1,0l0,.23a.07.07,0,0,1-.06.09l-.08,0a.07.07,0,0,1-.07-.06l-.06-.22a.11.11,0,0,1,.06-.1Zm-2.19.78.07,0a.07.07,0,0,1,.1,0l0,.22a.12.12,0,0,1,0,.1l-.1,0s-.07,0-.07,0l-.06-.23a.1.1,0,0,1,.06-.09Zm2.7-1,.07,0s.08,0,.08,0l0,.23a.07.07,0,0,1,0,.09l-.08,0a0,0,0,0,1-.07,0l-.06-.23s0-.08.06-.1Zm.49-.19H39s.08,0,.1.05l0,.21c0,.06,0,.1,0,.1l-.1,0s-.07,0-.07-.05L38.85,13a.11.11,0,0,1,.06-.1Zm.51-.17h.08a0,0,0,0,1,.07,0l.06.23a.09.09,0,0,1-.06.09l-.07,0a.08.08,0,0,1-.1,0l0-.23s0-.08.06-.1Zm.51-.16.08,0s.07,0,.07,0l.06.23a.09.09,0,0,1-.06.09l-.07,0a.08.08,0,0,1-.1,0l0-.23a.07.07,0,0,1,.06-.09Zm.49-.18.08,0s.07,0,.07,0l.06.23a.09.09,0,0,1-.06.09l-.07,0s-.08,0-.1,0l0-.21s0-.1.05-.1Zm-7.75,2.74h.08a0,0,0,0,1,.07,0l.06.23s0,.1-.06.1l-.07,0a.11.11,0,0,1-.1-.06l0-.22s0-.08.05-.1Zm.61-.21.07,0a.11.11,0,0,1,.1.06l0,.22a.08.08,0,0,1,0,.1h-.1a0,0,0,0,1-.07,0L33.22,15a.12.12,0,0,1,.06-.1Zm.66-.24.07,0s.08,0,.1.06l.06.23a.07.07,0,0,1-.06.07l-.1,0s-.07,0-.07-.06l-.06-.22a.11.11,0,0,1,.06-.1Zm.66-.23.08,0s.07,0,.07,0l.06.23a.09.09,0,0,1-.06.09l-.07,0a.08.08,0,0,1-.1,0l0-.23s0-.08.06-.1Zm.57-.18.07,0a.12.12,0,0,1,.1.05l0,.23s0,.08,0,.09l-.1,0s-.05,0-.07,0l-.06-.23s0-.09.06-.09Zm5.72-2H41a.07.07,0,0,1,.09,0l0,.23a.07.07,0,0,1,0,.1H41s-.08,0-.08,0l0-.23a.12.12,0,0,1,0-.1Zm.51-.18.1,0s.08,0,.08.05l.05.23a.09.09,0,0,1-.05.09l-.08,0a.08.08,0,0,1-.1,0l0-.23c0-.06,0-.09,0-.09Zm.51-.17.08,0s.07,0,.09,0l.06.22a.11.11,0,0,1-.06.1H42s-.06,0-.08,0l0-.23a.11.11,0,0,1,0-.09Zm.5-.17.09,0s.06,0,.08.05l.05.21s0,.1-.05.1l-.08,0a.09.09,0,0,1-.09-.05l-.06-.23a.1.1,0,0,1,.06-.09Zm.51-.15.07,0a.12.12,0,0,1,.1.05l0,.23a.08.08,0,0,1,0,.1H43s-.07,0-.07-.05l-.06-.21q0-.09.06-.09Zm.47-.18.09,0s.08,0,.08.05l.06.23a.11.11,0,0,1-.06.1h-.08a.07.07,0,0,1-.09,0l0-.23s0-.1,0-.1Zm.51-.18.07,0a.08.08,0,0,1,.1,0l0,.23a.08.08,0,0,1,0,.1l-.1,0s-.07,0-.07,0l-.06-.23a.09.09,0,0,1,.06-.09Zm.49-.15.07,0s.08,0,.08.05l.06.23a.09.09,0,0,1-.06.09l-.08,0s-.07,0-.09-.05l0-.21a.06.06,0,0,1,.06-.09Zm-36.32,25a.64.64,0,0,1-.66-.66.65.65,0,0,1,.66-.66h39a.67.67,0,0,1,.68.66.66.66,0,0,1-.68.66Zm0-2.89a.67.67,0,0,1,0-1.34H48.26a.67.67,0,0,1,0,1.34Zm0-2.91a.65.65,0,0,1-.66-.66A.64.64,0,0,1,8.07,29H48.72a.65.65,0,0,1,.66.66.67.67,0,0,1-.66.66Zm0-2.89a.67.67,0,0,1,0-1.34H49.72a.67.67,0,0,1,0,1.34Zm0-2.91a.65.65,0,0,1-.66-.66.64.64,0,0,1,.66-.66H49.72a.65.65,0,0,1,.66.66.67.67,0,0,1-.66.66ZM48.85,48.7H34.49a1.37,1.37,0,0,1-1.36,1.36H24.91a1.42,1.42,0,0,1-1.36-1.36H9.2a2,2,0,0,0-2,2.06,2,2,0,0,0,2,2H48.85a2,2,0,0,0,2.06-2,2,2,0,0,0-2.06-2.06ZM15,47.34h0a2.65,2.65,0,0,1-.72-.06c-.18-.13-.26-.21-.26-.34V44c0-.13.08-.19.26-.32a2.65,2.65,0,0,1,.72-.06H43.35a2.54,2.54,0,0,1,.7.06c.21.13.26.19.26.32v2.91c0,.13-.05.21-.26.34a2.54,2.54,0,0,1-.7.06Zm28.33-.4h0v0ZM16,46.56H42.31V44.43H16ZM56.6,42h0v0ZM2.27,40.93H55.5V2.25H2.27Z"/></g></g></svg>