<svg width="2095" height="952" viewBox="0 0 2095 952" fill="none" xmlns="http://www.w3.org/2000/svg">
<path d="M795.442 2.59896C796.509 3.05895 797.912 3.72019 798.95 4.20893L796.113 6.36513C828.387 29.3646 868.897 39.7432 899.523 65.3876C874.906 55.3828 852.851 40.2319 826.556 33.7633C830.186 40.9794 841.076 39.8869 844.279 47.5342L840.619 47.7642C829.363 63.9214 869.598 77.0024 870.056 77.0886C871.689 75.3739 873.037 73.4351 874.052 71.3387C882.136 73.7537 923.683 92.297 934.024 102.963C931.736 102.359 931.736 102.359 917.216 94.3382C917.46 94.827 969.44 157.587 976.456 161.123C996.65 171.272 999.121 183.72 999.914 187.831C987.712 180.615 977.798 170.409 965.993 162.589L963.461 165.464L965.108 168.828C962.646 168.441 960.362 167.37 958.55 165.752L956.476 168.627C959.467 173.297 963.585 177.237 968.494 180.126C970.446 178.697 972.722 177.713 975.144 177.251L975.419 176.935C995.613 188.751 1063.88 266.547 1043.78 314.932C1041.18 314.34 1038.69 313.37 1036.4 312.057C1034.66 315.249 1030.3 326.921 1047.5 343.107C1074.96 369.24 1072.55 389.106 1068.85 419.091C1059.7 412.651 1056.93 401.698 1049.06 394.396L1045.37 395.431C1036.79 430.792 1090.27 447.179 1075.87 484.352C1033.8 458.88 1055.04 404.86 1020.75 375.852C1018.83 377.515 1017.35 379.571 1016.42 381.861L1012.97 383.183C996.437 372.546 997.474 347.793 975.358 341.64C945.799 366.451 953.242 424.18 953.456 424.669C966.817 458.593 959.557 471.358 953.12 482.627C948.666 482.455 947.202 482.397 941.65 472.565L886.742 389.623C874.784 393.303 874.784 393.303 838.85 367.199C836.501 365.502 834.304 363.921 822.164 370.074C802.488 379.992 777.566 376.916 777.322 376.858C772.38 375.996 771.221 371.109 767.987 368.665C754.901 375.478 754.901 375.478 732.511 369.729C722.322 367.141 716.252 344.113 707.131 354.376C701.914 360.126 701.914 360.126 742.943 396.897C753.955 395.661 758.836 385.857 767.347 381.286C856.115 406.729 761.551 477.596 760.483 478.286C711.462 509.163 711.462 509.163 690.811 473.658C679.066 460.347 662.472 450.831 655.456 433.782C654.968 432.604 654.205 431.109 653.656 429.987C643.559 409.431 621.047 398.593 609.272 379.36C597.863 360.787 616.806 337.759 599.51 320.021C598.626 319.13 596.46 319.216 595.27 319.302C580.018 320.337 564.918 323.356 549.513 323.327C532.98 323.327 523.798 283.653 521.357 300.126C519.954 309.671 529.777 320.05 518.978 328.876C512.145 328.157 511.779 327.352 509.522 322.148C497.991 295.785 488.87 274.971 458.396 263.183C440.673 279.772 492.592 281.181 489.083 303.95C486.625 303.33 484.129 302.85 481.61 302.513L480.115 305.761C481.335 308.636 484.203 315.249 469.255 331.089C456.047 325.742 456.047 325.742 454.247 321.487C474.624 309.987 485.85 303.605 435.029 273.993C430.423 277.041 428.135 278.564 419.777 283.423C405.775 280.088 405.043 280.864 402.786 289.173C400.193 298.631 369.505 334.281 369.231 334.424C363.557 337.788 363.557 337.788 328.477 332.872C324.389 309.039 338.269 283.998 338.421 283.797C350.196 271.089 364.747 283.998 377.498 280.002C383.354 265.627 368.346 255.134 369.292 241.593C385.825 234.118 385.825 234.118 386.344 233.514C423.987 232.249 422.095 194.587 443.54 178.401L446.591 180.615C446.072 196.916 446.072 196.916 448.634 198.785C451.217 198.169 453.715 197.271 456.077 196.111C458.469 197.01 460.647 198.349 462.483 200.05C486.613 191.425 498.723 187.113 500.004 166.7C500.645 156.581 487.314 153.734 486.857 144.218C486.46 136.169 494.788 133.38 498.082 127.544C486.46 123.835 473.679 149.566 475.936 153.619C480.939 162.446 480.939 162.446 469.622 186.394C462.941 188.032 457.816 193.552 450.343 193.207C450.343 192.057 450.343 190.534 450.343 189.384C452.184 187.754 453.935 186.037 455.589 184.238C454.418 178.357 451.274 172.985 446.621 168.914C440.52 172.795 422.37 184.669 429.721 154.281C430.362 151.406 475.143 104.142 482.067 101.382C505.678 91.9233 527.031 111.415 550.337 106.068C551.507 104.03 553.143 102.262 555.126 100.893C555.126 100.893 555.126 100.893 601.341 84.8797C602.256 79.9348 600.212 75.1049 600.883 70.16C607.716 67.5438 615.891 69.9588 622.236 65.2439L621.809 61.6502C628.673 56.9065 630.411 48.3392 637.061 43.4231C637.174 41.3486 637.927 39.3502 639.227 37.6732C667.749 37.6732 695.996 32.0671 724.64 33.5908C724.932 31.2813 724.497 28.9421 723.39 26.8634C729.491 21.8323 730.833 21.7173 747.61 20.1936C748.19 19.2161 749.013 17.8649 749.593 16.8587C753.612 16.1259 757.703 15.8077 761.795 15.9099L763.808 12.8625L762.527 8.92383C762.527 8.92383 774.729 -5.82461 795.442 2.59896Z" fill="#F3F3F3"/>
<path d="M771.4 514.884C772.01 519.685 772.407 522.848 768.624 537.424C767.313 542.484 763.927 555.162 763.896 555.277C753.799 592.277 715.089 613.408 704.534 650.15C695.017 683.183 723.447 713.83 711.489 747.007C704.32 766.959 664.634 769.201 674.212 796.226C679.612 811.463 669.576 818.535 663.597 822.79C656.733 827.62 657.069 835.785 653.53 842.167C628.882 886.154 575.011 892.996 564.121 885.09L531.024 841.305C524.923 826.067 524.923 826.067 508.359 802.665C505.884 799.107 503.109 795.742 500.061 792.603C496.462 789.067 496.462 789.067 503.996 743.959C507.383 723.835 488.927 712.047 482.826 695.516C482.491 694.625 482.094 693.389 481.728 692.641C475.993 678.267 456.165 674.271 452.749 658.142C450.034 645.32 462.693 632.44 452.749 619.618C451.037 617.881 448.959 616.5 446.648 615.564C439.479 612.258 431.884 617.692 424.715 614.558C416.601 611.051 415.777 600.356 406.412 598.085H403.362C393.539 598.804 393.539 598.804 365.749 611.712C357.635 615.478 351.229 607.256 343.42 608.837C338.65 609.94 334.026 611.541 329.632 613.609C324.233 616.053 322.951 615.823 319.779 614.673C302.879 608.607 302.879 608.607 257.763 545.675C253.614 539.925 257.458 466.413 257.549 465.751C260.112 449.91 277.408 422.627 277.561 422.627L345.25 343.883C345.921 344.314 345.921 344.314 438.656 327.553C441.706 327.726 451.59 328.186 444.757 348.943C443.597 352.594 442.255 356.705 450.4 361.276C450.705 361.449 490.056 379.014 499.787 379.762C502.624 379.992 505.888 378.957 505.064 372.805C504.454 367.86 503.478 360.356 519.035 358.114C536.575 355.584 550.516 367.716 567.233 368.636C573.7 369.01 575.194 359.666 582.485 361.65C588.006 363.145 595.297 366.049 598.835 371.252L650.083 455.373L681.656 491.396C697.792 495.392 702.033 511.118 713.289 519.915C733.971 535.986 748.461 506.432 766.946 502.062C769.997 504.764 769.997 504.764 771.492 515.143" fill="#F3F3F3"/>
<path d="M1.58804 489.096C1.58804 489.269 1.58804 499.043 1.58804 499.043C0.61189 497.06 -0.24224 482.168 0.0628064 465.205L0.61189 449.163C2.77772 426.307 6.52979 395.862 10.4344 373.207C10.8573 370.342 11.5307 367.515 12.4477 364.755C12.4477 365.1 12.4477 365.1 7.29241 391.377C5.24764 399.72 4.0828 408.233 3.81488 416.791C3.81488 430.102 1.46602 443.27 0.764413 456.552C0.093311 467.477 1.74056 478.344 1.71006 489.24" fill="#F3F3F3"/>
<path d="M269.631 111.876C265.421 115.005 260.77 117.569 255.812 119.494C255.812 118.258 255.812 118.258 258.527 112.623L257.032 112.048C236.564 132.173 236.564 132.173 230.005 132.92C226.772 125.848 234.337 121.593 235.069 115.671C232.598 115.671 231.042 115.671 230.341 111.904C235.099 107.333 237.814 107.017 239.492 106.816C239.81 107.766 240.329 108.647 241.017 109.403C249.498 109.231 266.458 97.7022 265.757 88.9624C264.842 88.4162 263.56 87.7549 262.706 87.295C261.089 87.8699 259.259 88.5312 249.65 94.5398C244.342 97.8747 237.692 98.3635 232.415 101.813C227.138 105.263 225.643 111.329 219.542 113.658C219.586 112.634 219.771 111.619 220.091 110.639C218.596 110.409 218.597 110.409 213.472 112.336C213.601 110.602 213.929 108.886 214.448 107.218L213.258 106.298C199.714 109.173 185.163 115.642 178.666 121.852C178.666 121.852 169.515 131.483 169.209 132.115C164.39 139.13 167.196 148.531 161.156 155.115C155.116 161.698 147.155 165.953 142.853 173.773L144.348 174.521C145.491 174.116 146.594 173.615 147.643 173.026C152.951 169.346 156.459 164.085 160.973 159.715C166.342 154.569 174.487 154.252 180.252 149.825C183.716 147.447 186.563 144.361 188.58 140.798C194.681 130.879 223.63 112.479 223.203 124.152C222.806 135.048 210.391 138.526 206.974 147.554L207.676 148.934C213.777 147.899 217.742 142.753 223.935 142.12C222.654 147.669 216.614 155.172 211.733 161.181C207.493 166.672 207.34 173.514 203.954 179.235C198.311 188.924 190.624 197.376 185.316 207.266C183.73 210.141 185.621 213.591 183.913 216.523C183.913 216.523 172.138 233.543 170.43 234.319C169.667 234.032 169.667 234.032 157.587 224.487C157.16 214.54 173.755 215.862 172.138 205.282C167.288 206.404 163.963 199.935 158.746 202.925L140.444 223.481C137.79 228.339 144.104 233.773 139.376 238.517C138.908 238.842 138.364 239.059 137.79 239.149C131.872 240.817 125.893 242.197 119.975 243.922C118.755 235.843 118.755 235.843 117.901 235.297C115.55 236.028 113.248 236.892 111.007 237.884C110.519 238.172 109.939 238.603 109.512 238.919C105.699 241.535 104.601 246.25 100.788 248.866C96.9745 251.483 92.5818 250.304 89.1958 252.863C89.1958 252.863 76.0178 265.972 73.9435 268.416C35.9347 315.364 35.9347 315.364 30.1083 333.936C26.4172 345.694 24.953 349.374 22.7262 352.738C18.6691 334.626 37.3379 321.315 34.3179 303.433L32.5487 304.008C32.0606 304.985 31.3895 306.279 30.8404 307.228C31.1349 303.879 31.8622 300.578 33.0062 297.395C32.3891 298.192 31.8674 299.05 31.4505 299.954L39.5647 280.232C62.1687 232.221 63.0533 230.352 80.2274 203.126C108.902 161.641 111.251 158.248 134.129 132.575C146.178 120.184 162.346 103.826 175.036 91.9811C179.337 88.1862 187.238 81.1138 199.44 71.4253L201.758 69.6141C236.137 44.1996 236.777 43.7396 256.666 31.4924C261.089 28.79 262.279 28.1287 263.774 27.2662C263.774 27.7262 263.774 28.33 263.774 28.7612C248.949 41.4684 248.949 41.4684 239.797 49.6908C240.332 50.5372 241.088 51.2401 241.994 51.732C241.994 52.2207 241.994 52.8532 241.994 53.3419H243.641C239.462 59.9543 233.696 65.5029 229.273 71.9715L230.31 73.1215C232.127 73.0752 233.944 73.1811 235.74 73.4378C235.008 75.9102 232.69 77.4627 231.561 79.6189C233.818 81.3438 233.818 81.3438 237.662 81.6026L237.967 83.1263L239.675 83.73C262.889 71.0803 262.889 71.0803 263.835 70.9653C261.303 76.5139 255.08 78.6126 251.267 82.9538V84.42C265.635 81.8613 274.267 64.4392 291.96 70.5053C292.809 71.1035 293.533 71.8442 294.095 72.6903C287.995 90.5149 269.692 111.761 269.448 111.933" fill="#F3F3F3"/>
<path d="M169.238 704.744C172.014 722.569 160.087 740.652 170.367 758.333C170.611 758.735 190.897 801.055 182.721 807.839C182.477 807.839 160.026 805.166 173.57 822.645C191.293 845.386 206.5 871.965 225.77 891.465C243.27 903.965 256.27 926.465 317.003 951.5L316.057 951.184C301.5 948.965 271 940.5 256.5 933.5C220 911 203.808 894.172 180 867L162.192 847.686C95.9662 784.437 50.2093 701.639 31.0218 650.005C25.531 632.756 18.1489 609.986 13.6647 592.506C6.14215 559.185 2.39956 525.204 2.5 491.136C2.98807 490.734 2.98807 490.734 6.86216 478.688L9.54657 477.94C10.0853 476.59 10.8472 475.329 11.8039 474.203C15.1899 480.413 16.0136 487.399 18.4539 493.925C21.2909 498.927 21.8399 499.962 23.9143 504.045C25.7711 503.477 27.7598 503.413 29.6533 503.861C31.5467 504.308 33.2683 505.248 34.6214 506.574C44.4744 520.173 39.3191 537.221 46.1216 551.539C51.4599 562.78 64.4244 568.386 69.4882 579.914C70.4033 582.07 78.6396 609.21 78.8226 609.44C91.9701 655.439 161.368 654.203 169.238 704.744Z" fill="#F3F3F3"/>
<path d="M1105.1 592.594C1090.33 644.026 1089.84 646.039 1077.43 674.731C1070.11 689.91 1060.38 710.179 1052.2 724.956C1045.99 736.082 1038.74 746.665 1030.54 756.58C1030.39 755.545 1030.18 754.252 1035.15 747.093C1042.51 736.514 1048.76 725.287 1053.82 713.571C1062.15 695.718 1068.15 677.002 1076.7 659.235C1076.7 659.235 1090.85 631.089 1091.95 628.933C1098.23 616.858 1110.25 567.725 1111.26 562.608C1111.21 563.39 1111.11 564.168 1110.95 564.937L1105.07 592.536" fill="#F3F3F3"/>
<path d="M428.836 57.0215C424.199 63.2314 414.957 61.4489 409.832 66.7963C404.066 72.8336 400.223 80.3372 393.542 85.6846C392.266 86.7095 390.932 87.6692 389.546 88.5596C381.218 93.562 381.218 93.562 379.449 97.6731C375.362 106.499 370.938 107.477 369.261 107.85L340.434 116.159C339.643 116.448 338.887 116.814 338.176 117.251C323.626 125.531 323.626 125.531 319.599 125.876C311.729 126.739 308.8 127.227 307.885 127.802L288.484 143.126C283.935 147.209 279.06 150.957 273.903 154.338C272.042 155.402 271.768 155.316 270.517 154.913C269.724 152.814 271.524 150.572 270.182 148.473C268.839 146.375 267.131 148.157 265.85 147.726C265.636 145.282 270.944 134.559 275.398 129.269C289.705 112.192 289.705 112.192 290.01 112.048C294.86 107.649 302.822 107.908 306.757 102.129C309.472 98.1044 311.18 93.5045 314.84 89.9683C329.361 76.1686 329.361 76.1686 330.306 74.0986C332.167 70.1025 324.846 70.6774 322.131 68.895C323.02 66.1333 324.681 63.6481 326.941 61.7005C329.201 59.7528 331.975 58.4147 334.973 57.8265H335.675C337.719 58.0565 337.719 58.0565 360.994 52.0766L409.527 48.7992L429.263 55.7853C429.186 56.1964 429.042 56.594 428.836 56.964" fill="#F3F3F3"/>
<path d="M1118.45 449.853C1118.45 447.611 1118.03 445.397 1118 443.155C1118 441.372 1117.66 437.721 1117.63 437.405L1118.45 450.026" fill="#F3F3F3"/>
<path d="M1104.18 416.791C1104.82 422.714 1104.18 428.693 1105.09 434.587C1106.19 441.199 1108.91 447.553 1108.97 454.367L1107.5 499.963C1106.99 502.587 1106.15 505.144 1105 507.582C1101.43 506.403 1101.43 506.403 1099.48 509.019C1096.95 507.984 1096.95 507.984 1096.43 508.128C1094.78 506.518 1090.12 481.506 1090.18 472.651C1090.18 460.72 1096.28 449.652 1096.28 437.749L1096.98 405.493C1097.01 405.222 1097.06 404.953 1097.13 404.688C1097.13 404.688 1103.54 411.214 1104.15 416.791" fill="#F3F3F3"/>
<path d="M1105.09 541.132C1104.33 547.199 1097.68 551.367 1096.95 551.798C1095.39 552.747 1094.23 551.051 1092.8 551.223C1091.37 551.396 1090.03 552.92 1088.35 553.178H1087.83C1087.54 553.151 1087.25 553.068 1087 552.935C1086.74 552.801 1086.51 552.62 1086.33 552.402C1086.06 552.086 1085.79 551.655 1085.48 551.338C1083.83 551.338 1083.22 551.338 1082.06 549.153C1074.59 534.29 1068.73 518.794 1062.02 503.643C1054.76 487.285 1054.76 487.285 1051.53 482.829C1048.75 478.948 1044.51 476.216 1042.22 471.99C1041.43 470.466 1040.58 466.93 1042.22 465.263C1042.37 465.114 1042.54 464.979 1042.71 464.86C1043.72 464.4 1048.81 462.273 1051.59 464.515L1076.3 492.316L1084.38 512.44C1084.99 514.557 1085.27 516.746 1085.21 518.938C1085.79 538.286 1085.79 538.286 1087.4 539.494L1093.26 539.925C1094.11 539.465 1094.48 538.487 1095 537.05C1095 536.734 1095 536.734 1102.01 531.444C1104.08 534.239 1105.15 537.582 1105.06 540.989" fill="#F3F3F3"/>
<path d="M785.466 732C785.131 734.645 755.358 803.499 755.114 803.873C752.552 807.438 737.208 815.603 731.168 807.812C728.58 802.406 727.468 796.476 727.935 790.562C728.697 783.059 736.72 778.545 737.086 770.84C737.269 765.579 734.585 760.49 735.805 755.143C736.008 754.338 736.305 753.557 736.69 752.814C738.391 748.845 741.509 745.561 745.505 743.528C754.34 740.108 761.499 733.699 765.577 725.56C773.082 711.185 773.082 711.185 774.729 709.23C775.155 708.667 775.75 708.237 776.437 707.994C781.501 707.994 786.168 727.055 785.589 731.913" fill="#F3F3F3"/>
<path d="M999.425 158.306C1000.5 159.519 1001.43 160.84 1002.2 162.244C1004.95 167.506 1008.3 172.479 1010.86 177.798C1012.6 181.305 1012.48 185.359 1014.46 188.838C1016.45 192.316 1019.07 195.536 1020.75 199.216C1020.91 199.579 1021.04 199.954 1021.14 200.337C1017.31 197.981 1013.89 195.071 1011.02 191.713C997.412 176.648 993.904 155.977 979.414 141.372C966.846 128.665 949.763 120.845 938.08 107.218C937.735 106.878 937.483 106.464 937.348 106.011C939.941 105.321 942.076 107.189 944.547 107.218C944.779 106.885 944.944 106.515 945.035 106.126C947.754 107.683 950.345 109.432 952.783 111.358C957.054 115.297 959.891 120.299 963.887 124.468C969.988 130.678 977.401 135.393 983.624 141.401C989.114 146.634 997.991 156.523 999.425 158.306Z" fill="#F3F3F3"/>
<path d="M405.622 214.367L400.284 222.819C399.772 223.49 399.076 224.017 398.27 224.343C394.915 225.982 394.915 225.982 385.123 227.477C381.066 228.109 378.076 231.013 374.172 231.961C373.943 232.052 373.696 232.096 373.447 232.09C373.199 232.085 372.955 232.03 372.73 231.93C372.506 231.83 372.306 231.686 372.145 231.508C371.983 231.33 371.863 231.122 371.792 230.898C370.786 228.569 379.358 210.773 379.449 210.773C380.791 208.473 383.598 208.502 385.55 207.294C387.502 206.087 386.801 200.452 384.513 199.043C382.886 197.804 381.606 196.206 380.787 194.392C379.968 192.577 379.634 190.601 379.815 188.636L381.218 181.938C381.554 180.845 386.404 172.479 391.01 171.99C395.83 172.249 396.837 174.031 397.63 176.188C399.064 180.184 396.623 183.921 396.684 187.687C396.916 190.97 397.374 194.236 398.057 197.462C398.423 198.756 399.735 199.503 400.162 200.74C401.046 203.298 399.704 206.202 401.504 208.617C402.45 209.911 404.554 209.709 405.408 211.032C405.749 211.507 405.932 212.068 405.932 212.642C405.932 213.216 405.749 213.776 405.408 214.252" fill="#F3F3F3"/>
<path d="M1114.52 435.564C1114.52 436.082 1116.35 497.663 1115.46 501.027C1115.07 500.538 1115.16 499.819 1114.64 499.388C1113.85 499.675 1113.51 499.819 1113.08 504.908C1113.05 506.529 1112.76 508.136 1112.23 509.68L1111.86 509.421C1111.13 504.017 1109.7 447.668 1111.1 443.672L1111.71 443.93C1112.66 443.266 1113.38 442.343 1113.76 441.285C1114.27 438.152 1113.24 435.018 1113.76 431.884C1114.21 432.603 1114.3 432.747 1114.55 435.564" fill="#F3F3F3"/>
<path d="M379.815 132.172C378.749 133.725 377.345 135.048 375.697 136.054C373.287 137.056 370.811 137.91 368.285 138.612C365.234 139.618 362.885 141.487 360.048 142.551C359.49 142.754 358.919 142.926 358.34 143.068C357.11 141.87 355.465 141.125 353.703 140.97C350.378 140.28 349.89 140.165 349.951 138.785C349.936 138.613 349.936 138.439 349.951 138.267C350.165 136.427 350.958 134.674 351.019 132.805C351.019 131.597 350.317 130.39 351.019 129.182C353.051 126.672 355.92 124.88 359.164 124.094C359.691 124.116 360.191 124.32 360.567 124.669C361.624 125.603 363.023 126.117 364.472 126.106C368.651 126.25 372.616 124.755 376.673 124.755C381.524 124.899 379.907 131.741 379.724 132.172" fill="#F3F3F3"/>
<path d="M1091.3 340.462C1092.92 345.896 1091.3 345.206 1090.84 344.861C1089.72 344.142 1089.23 342.819 1087.95 342.216C1087.25 341.871 1086.51 342.561 1085.81 342.216C1084.8 341.645 1083.94 340.857 1083.31 339.916C1080.48 335.642 1078.16 331.08 1076.42 326.317V325.196C1068.79 306.624 1069.52 305.071 1070.32 303.605C1073.06 300.73 1078.77 314.702 1080.81 323.241C1081.75 327.442 1083.43 331.465 1085.78 335.143C1086.57 334.655 1085.78 333.447 1086.94 333.045C1087.71 333.197 1088.46 333.439 1089.17 333.763C1090.41 336.02 1091.37 338.403 1092.03 340.864" fill="#F3F3F3"/>
<path d="M17.6958 406.7C17.0247 409.201 16.0485 409.575 15.5299 408.713C15.3063 407.391 15.184 406.055 15.1639 404.717C14.9809 403.279 14.6453 403.049 14.2793 403.049C14.2168 403.061 14.1524 403.061 14.09 403.049C14.0276 403.036 13.9687 403.012 13.917 402.977C13.8653 402.941 13.8219 402.897 13.7898 402.845C13.7576 402.793 13.7373 402.735 13.7302 402.675C13.6972 400.966 13.8712 399.259 14.2487 397.587C14.7368 394.712 16.2316 373.725 13.6692 372.431C13.3536 372.636 13.0576 372.867 12.7845 373.121C13.089 370.01 14.1315 367.004 15.835 364.324C17.2687 364.554 17.2687 364.554 17.6043 365.387C17.9093 368.665 18.0313 378.468 18.0313 378.583C18.0313 383.011 17.3907 387.438 17.4822 391.894C17.5738 396.35 18.2449 400.174 18.2144 404.371C18.1791 405.158 18.0565 405.938 17.8483 406.7" fill="#F3F3F3"/>
<path d="M378.625 201.574C377.71 203.212 376.002 204.276 374.995 205.857C374.527 206.942 374.14 208.057 373.836 209.192C372.931 211.851 371.41 214.286 369.382 216.322C368.687 216.763 367.871 217.002 367.033 217.012C365.294 217.115 363.622 217.683 362.214 218.651C360.653 219.705 359.022 220.665 357.333 221.526C357.073 221.648 356.795 221.736 356.509 221.784C355.838 221.784 354.282 222.244 353.459 219.513C353.101 218.228 353.028 216.887 353.245 215.574L353.428 215.086C354.496 212.728 356.479 210.831 357.394 208.387C358.309 205.943 357.973 203.845 359.499 201.919C361.024 199.992 362.854 200.424 364.41 199.475C365.966 198.526 367.674 196.6 369.565 195.249L370.236 194.817C371.282 194.242 372.473 193.944 373.683 193.955C379.266 194.156 380.547 198.037 378.564 201.516" fill="#F3F3F3"/>
<path d="M24.7416 428.09C24.3756 429.872 23.918 430.562 23.6435 430.591C23.3694 430.612 23.0939 430.612 22.8199 430.591C22.2708 430.419 21.9352 429.959 21.3861 429.786C20.227 429.441 18.7627 430.246 17.7866 429.067C16.5676 426.508 15.4983 423.888 14.5836 421.219C14.5836 420.385 14.5836 417.05 15.8038 417.338C16.3529 417.481 16.8714 418.603 17.329 417.999C17.7866 417.395 18.0001 417.136 18.0916 414.348C18.3357 408.598 18.3357 408.598 19.0983 408.253C19.6779 409.173 19.8609 410.208 20.41 411.128C20.9591 412.048 21.9047 411.502 22.1182 412.335C22.1345 412.382 22.1345 412.432 22.1182 412.479C22.4538 413.888 22.4538 415.354 22.7893 416.763C23.1249 418.171 23.918 420.299 24.3146 422.081C24.4758 422.706 24.598 423.34 24.6806 423.979C24.9707 425.335 24.9707 426.733 24.6806 428.09" fill="#F3F3F3"/>
<path d="M2092.87 303.203L2092.59 302.513C2092.59 302.513 2083.23 284.602 2046.84 294.089C2010.44 303.576 1987.32 291.214 1901.11 342.302C1876.86 356.677 1827.9 383.586 1769.09 416.389C1664.15 403.394 1393.43 369.786 1357.74 364.64C1328.63 360.5 1310.58 370.821 1301.61 378.411C1300.78 379.102 1300.16 379.988 1299.81 380.978C1299.47 381.968 1299.4 383.028 1299.63 384.048C1299.86 385.068 1300.38 386.013 1301.12 386.785C1301.86 387.557 1302.81 388.13 1303.86 388.445C1473.41 439.906 1570.41 480.874 1617.45 503.155C1581.61 524.4 1546.62 545.79 1515.11 566.202L1379.33 525.694C1374.1 524.135 1368.58 523.586 1363.11 524.079C1357.65 524.573 1352.34 526.1 1347.52 528.569L1322.05 541.564C1321.35 541.919 1320.75 542.422 1320.29 543.035C1319.83 543.647 1319.54 544.352 1319.42 545.092C1319.31 545.832 1319.38 546.587 1319.62 547.297C1319.87 548.007 1320.3 548.653 1320.86 549.182L1379.33 604.381L1325.1 603.26C1325.1 603.26 1297.43 601.851 1283.4 610.562C1278.13 613.85 1272.62 616.79 1266.92 619.36C1266.31 619.597 1265.8 620.015 1265.46 620.551C1265.12 621.088 1264.98 621.713 1265.05 622.332C1265.13 622.952 1265.41 623.533 1265.86 623.987C1266.31 624.441 1266.91 624.744 1267.56 624.851L1399.25 654.779C1398.19 656.38 1397.64 658.231 1397.65 660.118C1397.66 662.006 1398.24 663.851 1399.32 665.44C1400.4 667.03 1401.93 668.298 1403.75 669.098C1405.56 669.897 1407.58 670.196 1409.56 669.959C1415.05 669.355 1420.48 668.636 1425.94 667.86L1455.05 716.561C1455.1 716.666 1455.18 716.758 1455.28 716.833C1455.38 716.907 1455.49 716.962 1455.61 716.995C1455.73 717.027 1455.85 717.036 1455.98 717.021C1456.1 717.005 1456.22 716.967 1456.33 716.906C1465.19 711.749 1473.76 706.164 1482.01 700.174C1497.05 689.709 1500.74 666.394 1501.53 651.933C1506.08 650.639 1510.69 649.317 1515.14 647.908C1575.2 629.307 1672.54 596.763 1747.83 560.538C1764.7 604.18 1769.67 658.286 1770.71 672.086C1770.74 672.408 1770.85 672.718 1771.04 672.987C1771.23 673.255 1771.49 673.473 1771.8 673.62C1772.11 673.767 1772.45 673.838 1772.79 673.826C1773.13 673.814 1773.46 673.72 1773.76 673.552C1783.43 668.15 1791.91 661.044 1798.74 652.623C1812.71 635.373 1872.17 516.178 1893.55 472.853C1994.25 411.3 2109.28 342.532 2092.87 303.203Z" fill="#F3F3F3"/>
</svg>
