<svg xmlns="http://www.w3.org/2000/svg" viewBox="0 0 76.57 49.4"><defs><style>.cls-1{fill:#333;fill-rule:evenodd;}</style></defs><title>heavy-or-dangerous-goods</title><g id="Слой_2" data-name="Слой 2"><g id="_5" data-name="5"><path class="cls-1" d="M45.43,43.88a5.51,5.51,0,1,1-5.52-5.5,5.48,5.48,0,0,1,5.52,5.5Zm-8-33.3v5.6h3.69V6.9a3.69,3.69,0,0,0-3.69,3.68Zm0,7.38v5.49a3.69,3.69,0,0,0,3.69,3.69V18ZM63.21,6.9v9.28H66.9v-5.6A3.7,3.7,0,0,0,63.21,6.9Zm0,11.06v9.18a3.71,3.71,0,0,0,3.69-3.69V18ZM57.69,3.21a1.85,1.85,0,0,0-1.85-1.83H48.49a1.84,1.84,0,0,0-1.83,1.83V6.9H43v9.28H61.38V6.9H57.69ZM43,18v9.18H61.38V18ZM55.84,6.9H48.49V3.21h7.35ZM29.44,37.27,16.08,6.33H3.16A3.21,3.21,0,0,1,0,3.16,3.21,3.21,0,0,1,3.16,0l17,.23L33.41,31h40a3.17,3.17,0,0,1,0,6.33Zm45.24,6.61a5.51,5.51,0,1,1-5.52-5.5,5.47,5.47,0,0,1,5.52,5.5Z"/></g></g></svg>