<svg width="659" height="333" viewBox="0 0 659 333" fill="none" xmlns="http://www.w3.org/2000/svg">
<path d="M411.778 302.416C324.621 291.497 239.999 280.578 185.112 322.402C241.267 293.447 318.967 304.659 397.739 315.773C496.302 329.811 596.718 343.752 658.917 279.019C593.403 324.839 501.177 313.628 411.778 302.416ZM176.728 278.336C171.951 276.191 163.469 279.701 152.94 269.269C154.11 273.364 156.157 275.119 158.887 278.044C146.603 276.776 140.754 269.367 134.807 261.568C139.194 275.996 156.84 290.912 176.728 278.336ZM195.641 258.448C188.817 258.838 173.998 256.108 167.759 252.793C170.781 256.791 176.533 258.545 179.262 259.228C164.249 266.442 147.383 257.278 140.461 249.771C148.358 265.077 181.407 272.584 195.641 258.448ZM179.847 237C183.845 239.925 191.059 241.095 196.323 240.51C177.8 249.771 153.622 244.799 143.678 236.025C159.959 259.228 209.68 252.793 216.894 230.078C209.095 233.49 195.446 239.145 179.847 237ZM10.6034 214.382C2.99917 217.209 -2.36281 221.109 1.04936 229.201C21.3274 206.973 35.6586 270.537 49.2098 286.135C80.9918 344.435 132.369 343.362 189.499 310.118C121.353 340.145 87.0362 315.383 77.6771 290.717C70.7553 272.682 77.0921 254.548 93.1781 257.863C80.0169 248.699 104 245.482 107.997 242.947C88.2061 244.994 68.8054 241.972 57.789 227.641C57.3015 227.056 56.7166 226.471 56.1316 225.886C56.6191 232.515 59.2514 237.682 62.3711 240.705C51.4521 237.585 52.622 226.179 46.87 222.279C38.6808 216.722 32.1489 229.786 34.3912 239.242C37.7059 254.061 69.1954 252.891 54.1818 278.726C56.3266 242.947 24.5447 259.91 33.8063 227.446C19.9626 224.326 25.5196 218.379 8.55616 218.672C19.9626 208.63 18.8902 216.624 21.3274 218.087C24.1547 217.404 26.2995 217.014 26.6894 215.65C22.3023 214.382 20.7425 214.87 18.3052 212.725C24.6421 206.68 48.4299 207.07 57.4965 213.017C56.5216 213.602 55.5467 214.285 54.5718 214.87C53.4019 227.251 87.0362 245.579 106.729 242.654C90.8384 241.68 65.0033 229.493 61.3962 216.429C63.4435 214.87 65.9782 213.797 68.903 213.212C57.8865 206.778 48.1374 204.536 39.6557 204.536C26.2995 204.536 16.3554 210.288 10.6034 214.382ZM192.326 213.407C196.128 215.65 202.758 214.577 206.755 214.187C192.034 225.594 167.856 229.981 144.946 218.282C167.466 241.485 226.838 225.399 224.498 201.221C215.042 206.29 199.833 213.212 192.326 213.407ZM197.396 182.308C208.12 180.358 215.724 178.018 218.746 175.386C206.56 203.561 167.466 206.583 145.726 202.196C183.065 221.207 238.049 190.887 229.373 160.665C229.275 160.665 217.186 174.021 197.396 182.308ZM197.786 147.308C207.535 145.359 213.677 142.239 216.601 139.802C197.688 179.675 162.689 184.55 146.116 187.28C183.065 193.422 246.239 153.743 236.587 110.749C231.81 123.716 202.563 144.189 197.786 147.308ZM195.836 97.8807C200.71 93.0062 216.211 76.3352 219.819 68.2435C222.451 111.042 184.917 152.963 145.433 171.194C199.151 159.202 254.233 93.2012 221.573 39.0938C215.432 70.3883 207.145 79.065 195.836 97.8807ZM109.849 124.983C97.9552 128.98 71.1452 141.557 83.429 161.347C89.181 146.236 102.635 155.79 109.069 164.857C136.951 203.463 121.548 233.978 113.651 271.999C159.374 181.82 102.537 157.448 118.428 134.147C166.101 89.984 180.432 64.1489 192.326 24.8601C193.106 91.2513 167.954 117.866 138.999 153.06C173.803 128.98 223.718 59.2744 197.298 0C188.329 44.1633 151.38 103.633 109.849 124.983Z" fill="url(#paint0_linear_313_6327)"/>
<path d="M293.034 210.775C290.304 213.797 287.574 216.917 284.845 219.939C280.75 224.911 277.728 228.421 275.875 230.566C274.023 232.71 272.658 234.855 271.683 237.097C273.146 228.323 274.608 219.549 276.07 210.775H260.082C256.865 229.883 253.745 248.991 250.528 268.1H266.516C267.296 263.42 268.076 258.838 268.856 254.158C271.781 250.941 274.706 247.724 277.63 244.507C279.775 252.306 281.92 260.203 284.065 268.002H300.931C297.323 256.108 293.619 244.214 290.012 232.418C296.446 225.204 302.88 217.989 309.217 210.775H293.034Z" fill="url(#paint1_linear_313_6327)"/>
<path d="M347.628 210.775C345.581 222.669 343.631 234.66 341.584 246.554C340.999 250.259 340.024 252.793 338.757 254.061C337.489 255.328 335.54 255.913 333.102 255.913C331.153 255.913 329.398 255.426 328.033 254.451C326.668 253.476 325.888 252.111 325.888 250.259C325.888 249.381 326.083 247.919 326.375 245.969C328.325 234.173 330.275 222.474 332.322 210.677H314.872C312.922 222.376 310.972 234.173 308.925 245.969C308.535 248.309 308.34 250.356 308.34 252.209C308.34 257.571 310.192 261.665 313.994 264.59C317.796 267.515 323.061 268.977 329.788 268.977C335.052 268.977 339.537 268.1 343.339 266.345C347.141 264.59 349.871 262.25 351.431 259.423C353.088 256.596 354.453 252.111 355.428 246.164C357.378 234.368 359.327 222.669 361.277 210.872H347.628V210.775Z" fill="url(#paint2_linear_313_6327)"/>
<path d="M370.539 210.775C367.322 229.883 364.202 248.991 360.985 268.1H400.176C400.956 263.517 401.638 258.935 402.418 254.353H380.678C383.115 239.827 385.455 225.301 387.892 210.775H370.539Z" fill="url(#paint3_linear_313_6327)"/>
<path d="M415.775 210.775C412.558 229.883 409.438 248.991 406.221 268.1H445.315C446.095 263.517 446.777 258.935 447.557 254.353H425.816C428.254 239.827 430.691 225.301 433.031 210.775H415.775Z" fill="url(#paint4_linear_313_6327)"/>
<path d="M491.915 210.775C490.16 221.596 488.308 232.515 486.456 243.337C485.773 247.334 485.286 249.966 484.798 251.234C484.311 252.501 483.531 253.476 482.263 254.353C481.094 255.231 479.339 255.621 477.194 255.621C475.634 255.621 473.489 255.328 470.662 254.841C469.882 259.325 469.2 263.712 468.42 268.197C472.027 268.977 475.439 269.367 478.754 269.367C484.408 269.367 488.795 268.587 491.915 267.222C495.035 265.76 497.375 263.712 498.934 261.178C500.494 258.643 501.664 254.548 502.639 248.894C504.784 236.318 506.831 223.644 508.976 210.97H491.915V210.775Z" fill="url(#paint5_linear_313_6327)"/>
<path d="M518.335 210.775C515.118 229.883 511.998 248.991 508.781 268.1H550.994C551.774 263.712 552.457 259.325 553.237 254.938H527.597C528.182 251.526 528.766 248.211 529.254 244.799H549.824C550.507 240.607 551.189 236.513 551.969 232.32H531.301C531.789 229.298 532.276 226.276 532.763 223.351H557.234C557.916 219.159 558.599 214.967 559.378 210.775H518.335Z" fill="url(#paint6_linear_313_6327)"/>
<path d="M563.473 210.677C562.693 215.065 562.011 219.452 561.231 223.839H573.515C571.078 238.56 568.543 253.378 566.106 268.1H582.679C585.116 253.378 587.554 238.657 590.088 223.839H602.762C603.542 219.452 604.224 215.065 604.907 210.677H563.473Z" fill="url(#paint7_linear_313_6327)"/>
<defs>
<linearGradient id="paint0_linear_313_6327" x1="329.52" y1="-0.0744829" x2="329.52" y2="333.061" gradientUnits="userSpaceOnUse">
<stop stop-color="#075DA7"/>
<stop offset="0.4753" stop-color="#075DA7"/>
<stop offset="0.5433" stop-color="#075BA4"/>
<stop offset="0.6024" stop-color="#065599"/>
<stop offset="0.6582" stop-color="#064B87"/>
<stop offset="0.7119" stop-color="#053D6E"/>
<stop offset="0.7642" stop-color="#042B4D"/>
<stop offset="0.8146" stop-color="#021626"/>
<stop offset="0.8552" stop-color="#010101"/>
<stop offset="1" stop-color="#DCDADA"/>
</linearGradient>
<linearGradient id="paint1_linear_313_6327" x1="330.653" y1="-177.58" x2="330.653" y2="346.887" gradientUnits="userSpaceOnUse">
<stop stop-color="#075DA7"/>
<stop offset="0.4753" stop-color="#075DA7"/>
<stop offset="0.5363" stop-color="#075BA4"/>
<stop offset="0.5893" stop-color="#065599"/>
<stop offset="0.6393" stop-color="#064B87"/>
<stop offset="0.6875" stop-color="#053D6E"/>
<stop offset="0.7344" stop-color="#042B4D"/>
<stop offset="0.7797" stop-color="#021626"/>
<stop offset="0.8161" stop-color="#010101"/>
<stop offset="1" stop-color="#DCDADA"/>
</linearGradient>
<linearGradient id="paint2_linear_313_6327" x1="329.653" y1="-174.053" x2="329.653" y2="341.643" gradientUnits="userSpaceOnUse">
<stop stop-color="#075DA7"/>
<stop offset="0.4753" stop-color="#075DA7"/>
<stop offset="0.5363" stop-color="#075BA4"/>
<stop offset="0.5893" stop-color="#065599"/>
<stop offset="0.6393" stop-color="#064B87"/>
<stop offset="0.6875" stop-color="#053D6E"/>
<stop offset="0.7344" stop-color="#042B4D"/>
<stop offset="0.7797" stop-color="#021626"/>
<stop offset="0.8161" stop-color="#010101"/>
<stop offset="1" stop-color="#DCDADA"/>
</linearGradient>
<linearGradient id="paint3_linear_313_6327" x1="328.883" y1="-177.58" x2="328.883" y2="346.887" gradientUnits="userSpaceOnUse">
<stop stop-color="#075DA7"/>
<stop offset="0.4753" stop-color="#075DA7"/>
<stop offset="0.5363" stop-color="#075BA4"/>
<stop offset="0.5893" stop-color="#065599"/>
<stop offset="0.6393" stop-color="#064B87"/>
<stop offset="0.6875" stop-color="#053D6E"/>
<stop offset="0.7344" stop-color="#042B4D"/>
<stop offset="0.7797" stop-color="#021626"/>
<stop offset="0.8161" stop-color="#010101"/>
<stop offset="1" stop-color="#DCDADA"/>
</linearGradient>
<linearGradient id="paint4_linear_313_6327" x1="329.841" y1="-177.58" x2="329.841" y2="346.887" gradientUnits="userSpaceOnUse">
<stop stop-color="#075DA7"/>
<stop offset="0.4753" stop-color="#075DA7"/>
<stop offset="0.5363" stop-color="#075BA4"/>
<stop offset="0.5893" stop-color="#065599"/>
<stop offset="0.6393" stop-color="#064B87"/>
<stop offset="0.6875" stop-color="#053D6E"/>
<stop offset="0.7344" stop-color="#042B4D"/>
<stop offset="0.7797" stop-color="#021626"/>
<stop offset="0.8161" stop-color="#010101"/>
<stop offset="1" stop-color="#DCDADA"/>
</linearGradient>
<linearGradient id="paint5_linear_313_6327" x1="329.241" y1="-173.738" x2="329.241" y2="339.383" gradientUnits="userSpaceOnUse">
<stop stop-color="#075DA7"/>
<stop offset="0.4753" stop-color="#075DA7"/>
<stop offset="0.5363" stop-color="#075BA4"/>
<stop offset="0.5893" stop-color="#065599"/>
<stop offset="0.6393" stop-color="#064B87"/>
<stop offset="0.6875" stop-color="#053D6E"/>
<stop offset="0.7344" stop-color="#042B4D"/>
<stop offset="0.7797" stop-color="#021626"/>
<stop offset="0.8161" stop-color="#010101"/>
<stop offset="1" stop-color="#DCDADA"/>
</linearGradient>
<linearGradient id="paint6_linear_313_6327" x1="329.409" y1="-177.58" x2="329.409" y2="346.887" gradientUnits="userSpaceOnUse">
<stop stop-color="#075DA7"/>
<stop offset="0.4753" stop-color="#075DA7"/>
<stop offset="0.5363" stop-color="#075BA4"/>
<stop offset="0.5893" stop-color="#065599"/>
<stop offset="0.6393" stop-color="#064B87"/>
<stop offset="0.6875" stop-color="#053D6E"/>
<stop offset="0.7344" stop-color="#042B4D"/>
<stop offset="0.7797" stop-color="#021626"/>
<stop offset="0.8161" stop-color="#010101"/>
<stop offset="1" stop-color="#DCDADA"/>
</linearGradient>
<linearGradient id="paint7_linear_313_6327" x1="583.061" y1="180.205" x2="583.061" y2="270.49" gradientUnits="userSpaceOnUse">
<stop stop-color="#075DA7"/>
<stop offset="0.4753" stop-color="#075DA7"/>
<stop offset="0.5363" stop-color="#075BA4"/>
<stop offset="0.5893" stop-color="#065599"/>
<stop offset="0.6393" stop-color="#064B87"/>
<stop offset="0.6875" stop-color="#053D6E"/>
<stop offset="0.7344" stop-color="#042B4D"/>
<stop offset="0.7797" stop-color="#021626"/>
<stop offset="0.8161" stop-color="#010101"/>
<stop offset="1" stop-color="#DCDADA"/>
</linearGradient>
</defs>
</svg>
