<svg width="594" height="301" viewBox="0 0 594 301" fill="none" xmlns="http://www.w3.org/2000/svg">
<path d="M371.167 272.694C292.564 262.826 216.337 252.985 166.868 290.706C217.512 264.601 287.526 274.678 358.558 284.781C447.446 297.389 537.9 310.024 594 251.679C534.846 292.925 451.779 282.797 371.167 272.563V272.694ZM159.246 250.948C154.938 249.043 147.289 252.201 137.761 242.725C138.743 245.769 140.551 248.48 142.982 250.557C131.914 249.434 126.614 242.725 121.237 235.703C125.335 248.756 141.207 262.226 159.141 250.87L159.246 250.948ZM176.24 232.962C167.617 232.941 159.084 231.22 151.127 227.898C153.864 230.935 157.541 232.966 161.569 233.667C148.02 240.141 132.853 231.892 126.588 225.13C133.663 238.966 163.422 245.675 176.188 232.962H176.24ZM161.882 213.67C166.342 216.326 171.559 217.419 176.71 216.777C160.003 225.104 138.257 220.693 129.225 212.704C143.922 233.588 188.692 227.845 195.271 207.483C188.248 210.616 175.979 215.68 161.882 213.801V213.67ZM9.55893 193.308C2.61497 195.867 -2.13616 199.391 0.970351 206.726C19.2439 186.678 32.2965 244.004 44.357 258.049C73.0727 310.625 119.331 309.633 170.784 279.69C109.359 306.735 78.4764 284.441 69.94 262.174C63.727 245.884 69.444 229.594 83.9585 232.57C72.0546 224.321 93.7218 221.371 97.3504 219.1C79.5206 220.927 62.0302 218.186 52.058 205.291C51.6143 204.795 51.066 204.194 50.5962 203.75C50.8101 208.72 52.7912 213.451 56.1827 217.09C46.341 214.271 47.3852 204.038 42.2164 200.513C34.8026 195.527 28.9811 207.248 30.939 215.837C33.9411 229.203 62.2651 228.106 48.7427 251.47C50.7267 219.178 22.0111 234.424 30.3386 205.291C17.9126 202.471 22.8464 197.094 7.60105 197.459C18.0431 188.427 16.9206 195.579 19.0873 196.911C21.6978 196.31 23.5774 195.919 23.9167 194.718C19.9488 193.622 18.6957 194.065 16.3985 192.107C22.1155 186.678 43.5217 186.886 51.7709 192.342L49.1604 194.039C48.1162 205.029 78.3198 221.528 96.1496 218.761C81.844 217.873 58.5582 206.935 55.269 195.11C57.2727 193.636 59.5844 192.637 62.0302 192.186C54.1037 187.256 44.9964 184.551 35.664 184.354C26.2436 184.458 17.1007 187.558 9.55893 193.204V193.308ZM173.368 192.369C176.788 194.379 182.714 193.413 186.421 193.073C178.421 198.853 168.954 202.261 159.105 202.907C149.257 203.553 139.426 201.412 130.739 196.728C151.022 217.612 204.538 203.124 202.397 181.352C193.809 185.947 180.156 192.134 173.395 192.369H173.368ZM177.885 164.306C187.517 162.556 194.435 160.442 197.15 158.04C186.134 183.519 150.918 186.234 131.313 182.214C164.963 199.365 214.536 172.007 206.731 144.753C198.481 153.099 188.671 159.742 177.859 164.306H177.885ZM178.224 132.771C184.326 131.868 190.129 129.543 195.166 125.983C178.12 162.008 146.585 166.551 131.653 168.822C164.937 174.382 221.898 138.592 213.205 99.7998C208.845 111.73 182.557 130.003 178.224 132.875V132.771ZM176.475 88.2352C180.887 83.7974 194.749 68.8131 198.038 61.5036C200.413 100.087 166.529 137.835 131.026 154.359C179.477 143.578 229.155 84.0323 199.709 35.2419C194.148 63.5137 186.656 71.3452 176.475 88.2875V88.2352ZM98.9428 112.722C88.2658 116.35 64.0403 127.706 75.1872 145.51C80.4082 131.857 92.4426 140.524 98.3424 148.669C123.508 183.467 109.568 211.008 102.493 245.257C143.583 163.94 92.4426 142.012 106.827 121.023C149.796 81.213 162.744 57.9011 173.473 22.4504C174.152 82.2833 151.414 106.326 125.309 138.018C156.635 116.324 201.666 53.5155 177.832 0C169.688 39.8625 136.404 93.4563 98.9428 112.722Z" fill="white"/>
<path d="M264.084 190.039L256.722 198.315C253.015 202.77 250.326 205.972 248.656 207.921C247.111 209.667 245.843 211.639 244.896 213.769C246.228 205.937 247.507 197.949 248.864 190.039H234.507L225.892 241.675H240.171C240.85 237.472 241.581 233.296 242.26 229.119L250.091 220.452C252.023 227.526 253.981 234.601 255.913 241.675H271.132C267.843 230.972 264.562 220.26 261.29 209.54L278.781 190.039H264.084Z" fill="white"/>
<path d="M264.084 190.045L256.723 198.321C253.016 202.811 250.327 205.995 248.656 207.927C247.112 209.673 245.844 211.645 244.897 213.775C246.228 205.943 247.508 197.955 248.865 190.045H234.507L225.893 241.681H240.172C240.851 237.478 241.582 233.301 242.26 229.125L250.092 220.458C252.024 227.532 253.982 234.607 255.913 241.681H271.133C267.843 230.978 264.563 220.275 261.291 209.572L278.782 190.045H264.084Z" fill="white"/>
<path d="M313.267 190.039L308.046 222.331C307.881 224.829 306.972 227.221 305.435 229.197C304.72 229.811 303.891 230.277 302.995 230.568C302.099 230.86 301.154 230.97 300.214 230.894C298.579 230.932 296.972 230.458 295.62 229.536C295.017 229.115 294.528 228.552 294.195 227.896C293.863 227.24 293.698 226.512 293.714 225.777C293.768 224.489 293.916 223.206 294.158 221.94C295.959 211.341 297.708 200.743 299.379 190.17H283.716C281.976 200.751 280.235 211.341 278.495 221.94C278.173 223.785 277.998 225.653 277.973 227.526C277.875 229.668 278.299 231.802 279.209 233.744C280.118 235.685 281.486 237.377 283.194 238.673C287.381 241.519 292.394 242.896 297.447 242.589C301.632 242.696 305.789 241.867 309.612 240.161C312.656 238.897 315.223 236.704 316.948 233.896C318.804 230.138 320.022 226.098 320.55 221.94C322.291 211.341 324.031 200.751 325.771 190.17L313.267 190.039Z" fill="white"/>
<path d="M333.941 190.04C331.07 207.234 328.207 224.446 325.353 241.676H360.647C361.3 237.551 361.978 233.427 362.657 229.276H343.078C345.254 216.206 347.429 203.153 349.604 190.118L333.941 190.04Z" fill="white"/>
<path d="M374.746 190.04L366.131 241.676H401.425C402.104 237.551 402.782 233.427 403.435 229.276H383.882C386.04 216.206 388.216 203.153 390.409 190.118L374.746 190.04Z" fill="white"/>
<path d="M374.744 190.045L366.129 241.681H401.423C402.102 237.556 402.781 233.432 403.434 229.281H383.881C386.039 216.211 388.214 203.159 390.407 190.124L374.744 190.045Z" fill="white"/>
<path d="M443.372 190.039C441.754 199.838 440.118 209.618 438.465 219.382C438.163 221.776 437.665 224.142 436.977 226.456C436.54 227.607 435.744 228.587 434.706 229.249C433.334 230.083 431.739 230.475 430.137 230.372C428.154 230.302 426.181 230.066 424.237 229.667C423.585 233.687 422.906 237.655 422.253 241.675C425.317 242.328 428.44 242.661 431.573 242.667C435.608 242.848 439.637 242.181 443.399 240.709C446.009 239.597 448.208 237.699 449.69 235.28C451.438 231.805 452.561 228.049 453.005 224.185C454.902 212.803 456.799 201.421 458.696 190.039H443.372Z" fill="white"/>
<path d="M467.285 190.04C464.414 207.234 461.551 224.446 458.697 241.676H496.706C497.385 237.708 498.037 233.844 498.716 229.824H475.639C476.135 226.77 476.657 223.742 477.179 220.687H495.74C496.366 216.954 496.993 213.195 497.646 209.462H479.033C479.476 206.852 479.946 204.032 480.39 201.343H502.449C503.102 197.558 503.728 193.799 504.355 190.04H467.285Z" fill="white"/>
<path d="M507.853 190.04C507.174 193.982 506.521 197.871 505.843 201.866H516.885L510.228 241.754H525.213L531.869 201.866H543.251C543.904 197.924 544.556 194.034 545.235 190.04H507.853Z" fill="white"/>
</svg>
