<svg xmlns="http://www.w3.org/2000/svg" viewBox="0 0 87.27 87.38"><defs><style>.cls-1{fill:#333;fill-rule:evenodd;}</style></defs><title>no-delays</title><g id="Слой_2" data-name="Слой 2"><g id="_1" data-name="1"><path class="cls-1" d="M51.52,46.7l-5.13-3A4.15,4.15,0,0,0,45,41.41V28a2.59,2.59,0,0,0-2.58-2.59h0A2.61,2.61,0,0,0,39.82,28l0,13.46A4.09,4.09,0,0,0,44,48.34l4.92,2.86a2.79,2.79,0,0,0,1.3.33,2.59,2.59,0,0,0,1.31-4.83ZM33.3,72.32V69.58H28.69c2.87-4.34,4-6.9,4-8.92a3.91,3.91,0,0,0-4.25-4.16A5.17,5.17,0,0,0,24,58.7l.36,2.55c.47-.72,1.65-2.36,3.57-2.36a2,2,0,0,1,2.14,2.21c0,1.13-.49,2.93-6.24,11.22Zm12.87-4.21V65.82H44.28v-9H41.91l-7.14,11.3h6.67v4.21h2.84V68.11Zm-4.73-2.29H38.63l2.81-4.67Zm22,6.5V66.37c0-3.12-1.27-5.29-4.73-5.29a4.33,4.33,0,0,0-2.3.74V55.71H53.67V72.32h2.76v-8a2.56,2.56,0,0,1,2.08-1c1.55,0,2.19,1,2.19,3v5.95ZM71.53,0H15.74A15.81,15.81,0,0,0,0,15.82V71.6A15.77,15.77,0,0,0,15.74,87.38H71.53A15.77,15.77,0,0,0,87.27,71.6V15.82A15.81,15.81,0,0,0,71.53,0Zm5.91,71.6a5.92,5.92,0,0,1-5.91,6H15.74a5.92,5.92,0,0,1-5.91-6V15.82a6,6,0,0,1,5.91-6H71.53a6,6,0,0,1,5.91,6V71.6Z"/></g></g></svg>