<svg xmlns="http://www.w3.org/2000/svg" viewBox="0 0 97.44 60.79"><defs><style>.cls-1{fill:#262626;fill-rule:evenodd;}</style></defs><title>Ресурс 28</title><g id="Слой_2" data-name="Слой 2"><g id="_6" data-name="6"><path class="cls-1" d="M97.31,40.05c-.53-1.42-2.85-2.25-5.46-2a10.39,10.39,0,0,0-2.1.46c-3.23,1-19.63,6.59-19.78,6.75l-.38.07.23.23c1.87,1.56,2.77,3.21,2.32,4.57-.53,2-3.23,3.21-7.65,3.59a55.87,55.87,0,0,1-14.61-1.12,17.74,17.74,0,0,1,2,.08c4.2,0,8.09,0,11.17-.23,4.72-.37,7-1.43,7.28-3.23.15-1.19-.53-2.17-2.18-2.91-1.79-.9-5.48-1.43-9.07-2a64.16,64.16,0,0,1-6.37-1.13c-5.69-1.5-11.53-3-18.35-2.46-1.06.15-2.17.23-3.15.45a133.42,133.42,0,0,0-15.65,3.67l-.68.08,7.94,11.39a27.15,27.15,0,0,1,4.27-.68,20.42,20.42,0,0,1,5.31.08c2.17.37,7.65,1.49,12.88,2.53,5.41,1.21,10.57,2.17,12.52,2.47a16,16,0,0,0,3.38.08c2.63-.23,5.38-1.66,7.94-3,.83-.52,1.64-.9,2.39-1.34L95,43.71c2.62-1.57,2.62-2.92,2.32-3.66ZM85.59,21a4.5,4.5,0,0,0-2.44-1.32c-1.62-2.25-3.56-2.42-8.31-3.05-11,.38-22,.76-32.94,1.8L30.05,14.17C26.28,9.45,22.29,4.69,18.49,0c-1.49.08-2.61.17-4,.23,1.57,6.42,3.2,12.83,4.78,19.39C16,18.77,13,18,9.66,17.18,9,17.05,8.08,17,8,17.18l9.55,4.76a4.17,4.17,0,0,0,1.28,2.67c4.71,1.17,9.41,2.19,14.14,3.17,4,.74,27.63,2.12,29.76,1.34a1.91,1.91,0,0,0,0,1.17.91.91,0,0,0,.7.48l1.21.28c.05.19.3.72.62.72,2.67.58,8.09-.47,8.92-1.12.76-.47,1-3-.34-4.29,4.1-.73,8.24-.39,11.62-4.28.31-.46.4-.46.17-1.08Zm-.32.71L83.91,20.5l-1.45-.07,1.36,1.21ZM74.58,20.47l-.23,0a.14.14,0,0,0-.13.11l0,.68a.13.13,0,0,0,.13.14h.21a.12.12,0,0,0,.13-.11l0-.68a.11.11,0,0,0-.11-.13Zm-8.9.72-.23,0a.12.12,0,0,0-.13.11l0,.68a.13.13,0,0,0,.13.13l.21,0c.08,0,.13,0,.13-.11l0-.68c0-.08,0-.13-.11-.13ZM37.82,23.3h-.21a.12.12,0,0,0-.13.11l0,.7s.06.11.14.13h.2a.11.11,0,0,0,.14-.11l0-.69a.13.13,0,0,0-.13-.13Zm1.27-.07-.21,0a.13.13,0,0,0-.13.13l0,.68a.14.14,0,0,0,.13.13l.21,0a.12.12,0,0,0,.13-.13l0-.68a.13.13,0,0,0-.13-.13Zm1.32-.08-.21,0a.13.13,0,0,0-.13.12l0,.68a.17.17,0,0,0,.13.15h.21c.08,0,.13,0,.13-.12l0-.67a.13.13,0,0,0-.13-.14Zm1.23-.07-.23,0s-.13.05-.13.11l0,.7a.15.15,0,0,0,.13.13h.21a.1.1,0,0,0,.13-.11l0-.68a.12.12,0,0,0-.11-.13Zm1.25-.17-.23,0a.13.13,0,0,0-.13.11l0,.68a.15.15,0,0,0,.13.15h.21a.12.12,0,0,0,.13-.11L43,23a.12.12,0,0,0-.11-.13Zm1.3-.1-.21,0a.13.13,0,0,0-.13.12l0,.7a.15.15,0,0,0,.13.13h.21a.1.1,0,0,0,.13-.11l0-.69a.13.13,0,0,0-.13-.13Zm1.23-.06h-.21a.12.12,0,0,0-.13.13l0,.68c0,.08,0,.13.11.13l.23,0c.06,0,.11-.06.13-.13l0-.68a.15.15,0,0,0-.13-.14Zm1.21-.09-.23,0s-.13.06-.13.11l0,.68a.17.17,0,0,0,.13.16h.21c.08,0,.13,0,.13-.12l0-.68a.12.12,0,0,0-.11-.13Zm1.17-.09-.23,0a.12.12,0,0,0-.13.11l0,.68a.12.12,0,0,0,.12.13l.22,0c.08,0,.14,0,.14-.11V22.7a.12.12,0,0,0-.11-.13Zm1.27-.08-.23,0a.12.12,0,0,0-.13.12l0,.7a.18.18,0,0,0,.11.13H49a.11.11,0,0,0,.13-.12l0-.68a.13.13,0,0,0-.11-.13Zm1.11-.07-.21,0a.13.13,0,0,0-.13.13l0,.68c0,.08,0,.13.11.13l.23,0a.14.14,0,0,0,.13-.13l0-.68a.13.13,0,0,0-.13-.13Zm1.23-.08-.21,0a.13.13,0,0,0-.13.13l0,.68a.14.14,0,0,0,.14.14l.2,0a.12.12,0,0,0,.13-.12l0-.7a.14.14,0,0,0-.13-.13Zm1.15-.11-.22,0a.13.13,0,0,0-.14.11l0,.7c0,.06.06.11.12.13h.22a.11.11,0,0,0,.14-.11l0-.68a.12.12,0,0,0-.12-.13Zm1.21-.08h-.23s-.13,0-.13.11l0,.68a.13.13,0,0,0,.13.14l.21,0a.13.13,0,0,0,.14-.12v-.7a.16.16,0,0,0-.11-.13ZM54.92,22l-.22,0a.13.13,0,0,0-.14.11l0,.7a.14.14,0,0,0,.12.13h.23a.1.1,0,0,0,.13-.11l0-.68a.13.13,0,0,0-.12-.13Zm1.46-.13-.23,0A.14.14,0,0,0,56,22l0,.68a.14.14,0,0,0,.13.13l.21,0a.13.13,0,0,0,.13-.13l0-.68c0-.08,0-.13-.11-.13Zm1.25-.1H57.4c-.06,0-.13,0-.13.12l0,.68a.13.13,0,0,0,.13.13l.21,0a.13.13,0,0,0,.13-.12l0-.7a.18.18,0,0,0-.11-.13Zm1.49-.07-.21,0a.13.13,0,0,0-.13.11l0,.7c0,.06,0,.11.11.13h.23c.06,0,.11,0,.13-.11l0-.68a.13.13,0,0,0-.13-.13Zm1.05-.08-.22,0a.14.14,0,0,0-.13.11l0,.69a.13.13,0,0,0,.13.13l.21,0a.12.12,0,0,0,.13-.12l0-.68c0-.07,0-.13-.12-.13Zm1.1-.05-.21,0a.13.13,0,0,0-.13.14l0,.68c0,.07,0,.13.12.13l.22,0a.15.15,0,0,0,.13-.13l0-.68a.13.13,0,0,0-.13-.13Zm1-.06-.2,0a.13.13,0,0,0-.14.13l0,.68c0,.08,0,.13.12.13l.22,0a.16.16,0,0,0,.14-.13l0-.68a.14.14,0,0,0-.14-.13Zm1.15-.15-.22,0a.13.13,0,0,0-.13.13l0,.68a.12.12,0,0,0,.13.13l.21,0a.13.13,0,0,0,.13-.13l0-.68a.14.14,0,0,0-.12-.13Zm1-.06-.23,0a.14.14,0,0,0-.13.13l0,.68a.13.13,0,0,0,.13.14l.21,0a.13.13,0,0,0,.13-.14l0-.68c0-.05,0-.13-.11-.13Zm2.42-.25h-.23c-.08,0-.13,0-.13.12l0,.68a.13.13,0,0,0,.11.13l.23,0a.12.12,0,0,0,.13-.11l0-.68a.18.18,0,0,0-.11-.16Zm1.17,0-.21,0c-.07,0-.13,0-.13.11l0,.68a.1.1,0,0,0,.11.13L68,22a.16.16,0,0,0,.13-.11l0-.68a.12.12,0,0,0-.13-.13Zm1.17-.19-.21,0a.13.13,0,0,0-.13.13l0,.68a.11.11,0,0,0,.11.13l.23,0a.13.13,0,0,0,.13-.13l0-.68a.14.14,0,0,0-.13-.13Zm1.06-.08-.23,0c-.06,0-.11.06-.13.12l0,.7a.15.15,0,0,0,.13.13h.21a.11.11,0,0,0,.13-.12l0-.68a.13.13,0,0,0-.13-.13Zm1.09-.06h-.2c-.08,0-.14,0-.14.12v.68a.1.1,0,0,0,.11.13l.22,0a.17.17,0,0,0,.14-.12l0-.67a.17.17,0,0,0-.14-.16Zm1-.05H72.2c-.08,0-.14,0-.14.11v.68c0,.08,0,.13.11.13l.22,0c.06,0,.14,0,.14-.11l0-.68a.16.16,0,0,0-.13-.15Zm1.15-.16h-.23a.12.12,0,0,0-.13.12l0,.68a.13.13,0,0,0,.13.13l.21,0a.13.13,0,0,0,.13-.11l0-.7a.16.16,0,0,0-.11-.14ZM19,3.65l7.41,11.79.34-.23L19.38,3.42Zm-2.16,1.1,7.39,11.79.36-.21L17.22,4.54Zm.34-1.51L24.63,15l.34-.2L17.56,3ZM.44,44.41H11a2,2,0,0,1,1.44.85l10,14.35c.32.47.21.85-.26.85H11.61a2,2,0,0,1-1.44-.85L.2,45.26c-.34-.47-.23-.85.24-.85Z"/></g></g></svg>