<svg xmlns="http://www.w3.org/2000/svg" viewBox="0 0 96.43 48.85"><defs><style>.cls-1{fill:#262626;fill-rule:evenodd;}</style></defs><title>Ресурс 29</title><g id="Слой_2" data-name="Слой 2"><g id="_6" data-name="6"><path class="cls-1" d="M48.94,10.22c2.25,0,4.09-3,4.09-5.56A4.4,4.4,0,0,0,48.94,0a4.4,4.4,0,0,0-4.08,4.66c0,2.58,1.83,5.56,4.08,5.56Zm.72,1.65L49.15,13h0l1.42,12.66c-.57,1.11-.85,1.7-1.42,2.82l-2-2.82L48.6,13h0l-.51-1.15a29.51,29.51,0,0,0-8.39,2,1.92,1.92,0,0,0-.17.13,3.42,3.42,0,0,0-.4.26,2.66,2.66,0,0,0-.26.31,2.4,2.4,0,0,0-.25.37,1.92,1.92,0,0,0-.17.44c0,.09-.07.15-.09.24l-2.55,13.1h4.33L42.23,18,43,17.8v11H54.78v-11l.76.26,1,10.7h4.1c-.53-4.67-1.19-10.55-2-13.25-.59-2-7.2-3.55-8.94-3.64ZM0,30.33H69.22c-.68.19-1.57.47-3.12,1-3.36,1.06-9.73,3.25-14.89,5S39.13,41,35.05,41.91c-4.28.17-4.3.29-7-.21-3.19-1-7.54-5-9.7-5.7a6.25,6.25,0,0,0-2.21.66c.74,2.32,5.26,8,6.09,10.17h0c-.43.41-1.1.43-1.63.88a2,2,0,0,0,.53,1.14H0Zm75.44,0h21V48.85h-61a41.79,41.79,0,0,0,5.16-1.08c2.21-.59,5-1.64,7.31-2.46h0a.56.56,0,0,1,.08.42.83.83,0,0,0-.84,1.17,1.06,1.06,0,0,0,.52.6.8.8,0,0,0,.69,0,.88.88,0,0,0,1.1-.59,1.13,1.13,0,0,0-.22-1,.78.78,0,0,0-.69-.26,3.85,3.85,0,0,0,0-.5l.7-.24,1.85-.66a.58.58,0,0,1,.23.58,1.2,1.2,0,0,0-.72.27A1.07,1.07,0,0,0,51,46.65a.78.78,0,0,0,.71,0A1,1,0,0,0,52.8,46a1.08,1.08,0,0,0-.23-1,.8.8,0,0,0-.72-.26,1.13,1.13,0,0,0-.07-.76h0l-.21.08,4-1.44c.12,0,.4-.17.51-.19.1.14.19.78.55.85,1.13-.21,1,.12,1.19.27s.3,0,.57-.06c.58-.21,1.74-.6,2.81-1.06a13.22,13.22,0,0,0,1.57-.7l.74-.37c0-.06,0-.12,0-.17a3.73,3.73,0,0,0-.23-1.35,1.66,1.66,0,0,0,.27-.11c1.75-.72,7.31-2.59,8.79-3.16.07.23.2.61.54.53a6.22,6.22,0,0,0,1.19-.49.73.73,0,0,1,0,.21.64.64,0,0,0-.47.17.6.6,0,0,0-.09.62.71.71,0,0,0,.33.42.57.57,0,0,0,.5,0,.61.61,0,0,0,.75-.4.81.81,0,0,0-.17-.68.56.56,0,0,0-.47-.17,1.56,1.56,0,0,0,0-.3,10.22,10.22,0,0,0,1.76-1.13c.11-.21-.12-.53-.26-.7l.28-.23c.34-.23.77-.53,1.19-.85a5.33,5.33,0,0,0,1.15-1.08c.42-.6.25-.71-.19-1.07a8,8,0,0,0-3-1ZM25.58,48.85H21.52a22.56,22.56,0,0,0,4.35-1.27c3.06-1,6.12-2.1,9.18-3.08,3.33-1.17,6.65-2.3,10-3.48,8.13-3,20.17-7.12,25.4-8.63a25.45,25.45,0,0,1,5.33-.74c-3.19,1-6.33,2-9.47,3.1-4.36,1.53-8.77,3-13.13,4.57-2.88,1-5.77,2.08-8.64,3.08l-11.58,4c-1.53.49-4.71,1.64-7.36,2.42ZM72.89,30.4c-.21.16.41,1.08.77,1,.91-.07,1.83-.13,2.74-.26,1.17-.09-2.08-1-3.51-.76ZM48.79,45.9c.21,0,.42.21.48.55s-.08.62-.29.66-.41-.21-.47-.53.07-.64.28-.68Zm-1,0a.59.59,0,0,0-.38.25,1,1,0,0,0,.15,1,.51.51,0,0,0,.55.17.81.81,0,0,1-.32-1.42Zm26.87-9c.13,0,.29.14.32.36s0,.44-.19.46-.28-.14-.32-.36,0-.44.19-.46Zm-.68,0a.41.41,0,0,0-.26.17.65.65,0,0,0,.11.68.32.32,0,0,0,.36.13.57.57,0,0,1-.21-1ZM52.25,45c.21,0,.41.19.47.53s-.07.63-.28.66S52,46,52,45.64,52,45,52.25,45Zm-1.17,0a.61.61,0,0,0-.38.25,1,1,0,0,0,.15,1c.21.21.38.23.53.17a.81.81,0,0,1-.3-1.42ZM67.16,33.43l.19-.06a.15.15,0,0,1,.21.11l.11.53a.2.2,0,0,1-.11.23l-.19,0a.15.15,0,0,1-.21-.11l-.11-.53a.18.18,0,0,1,.11-.22ZM46.69,40.59l.19-.06a.15.15,0,0,1,.19.12l.14.52a.2.2,0,0,1-.14.23l-.19.06a.15.15,0,0,1-.21-.12l-.11-.53a.2.2,0,0,1,.13-.22ZM48,40.13l.19-.05a.16.16,0,0,1,.2.11l.12.55a.18.18,0,0,1-.13.21l-.19.07a.18.18,0,0,1-.21-.13l-.11-.53a.2.2,0,0,1,.13-.23Zm1.23-.47.2-.06a.16.16,0,0,1,.19.12l.14.55a.18.18,0,0,1-.14.21l-.19.07a.17.17,0,0,1-.2-.13l-.12-.53a.24.24,0,0,1,.12-.23Zm1.38-.49.19-.06a.15.15,0,0,1,.2.12l.12.55A.18.18,0,0,1,51,40L50.8,40c-.1,0-.17,0-.21-.11l-.11-.53a.2.2,0,0,1,.13-.23ZM45.41,41l.19,0a.14.14,0,0,1,.19.11l.13.53a.2.2,0,0,1-.13.23l-.19.06a.16.16,0,0,1-.21-.12l-.11-.53a.22.22,0,0,1,.13-.23Zm6.41-2.28.19-.08a.18.18,0,0,1,.2.13l.12.53a.22.22,0,0,1-.14.23l-.18.06a.18.18,0,0,1-.21-.12l-.12-.55a.17.17,0,0,1,.14-.2ZM53,38.28l.2-.05a.15.15,0,0,1,.2.11l.13.53a.2.2,0,0,1-.13.22l-.2.06A.15.15,0,0,1,53,39l-.12-.53a.21.21,0,0,1,.12-.23Zm1.19-.41.21-.06a.13.13,0,0,1,.18.11l.14.53a.22.22,0,0,1-.14.23l-.18.06a.16.16,0,0,1-.21-.12l-.12-.53a.21.21,0,0,1,.12-.22Zm1.23-.42.18-.06a.16.16,0,0,1,.21.12l.12.53a.22.22,0,0,1-.14.23l-.19,0a.13.13,0,0,1-.18-.11l-.14-.55a.18.18,0,0,1,.14-.21ZM56.58,37l.19-.05a.13.13,0,0,1,.18.11l.14.53a.21.21,0,0,1-.14.23l-.18.06a.16.16,0,0,1-.21-.12l-.11-.53a.19.19,0,0,1,.13-.23ZM38.13,43.58l.19-.06a.16.16,0,0,1,.21.11l.11.55a.19.19,0,0,1-.11.21l-.19.07a.17.17,0,0,1-.21-.13L38,43.8a.17.17,0,0,1,.11-.22Zm1.48-.52L39.8,43a.15.15,0,0,1,.18.11l.14.55a.18.18,0,0,1-.14.21L39.8,44a.18.18,0,0,1-.21-.13l-.11-.53a.19.19,0,0,1,.13-.23Zm1.57-.54.19-.06a.15.15,0,0,1,.2.11l.12.53a.22.22,0,0,1-.14.23l-.18.06a.15.15,0,0,1-.19-.12L41,42.72a.18.18,0,0,1,.14-.2ZM42.72,42l.19-.06a.16.16,0,0,1,.21.12l.12.53a.2.2,0,0,1-.14.22l-.19.06c-.07,0-.16,0-.19-.12l-.13-.52a.22.22,0,0,1,.13-.23Zm1.39-.45.18-.06a.13.13,0,0,1,.19.11l.14.53a.21.21,0,0,1-.14.23l-.19.06a.18.18,0,0,1-.21-.12L44,41.72a.18.18,0,0,1,.14-.22Zm13.6-4.86.19-.06a.15.15,0,0,1,.21.12l.11.52a.17.17,0,0,1-.11.23l-.19.06a.15.15,0,0,1-.21-.12l-.11-.52a.21.21,0,0,1,.11-.23Zm1.23-.46.19,0a.14.14,0,0,1,.2.11l.12.53a.21.21,0,0,1-.12.23l-.2.06a.15.15,0,0,1-.19-.12l-.11-.53a.17.17,0,0,1,.11-.23Zm1.21-.39.19-.06a.14.14,0,0,1,.2.12l.12.52a.21.21,0,0,1-.13.23l-.19.06a.14.14,0,0,1-.19-.12L60,36a.19.19,0,0,1,.13-.23Zm1.17-.38.19-.08a.19.19,0,0,1,.21.14l.11.53a.19.19,0,0,1-.13.21l-.19.07a.17.17,0,0,1-.19-.11l-.13-.55a.18.18,0,0,1,.13-.21Zm1.21-.4.19,0a.13.13,0,0,1,.19.11l.13.53a.2.2,0,0,1-.13.22l-.19.06a.16.16,0,0,1-.21-.11l-.11-.53a.2.2,0,0,1,.13-.23Zm1.13-.39.19-.08a.17.17,0,0,1,.21.14l.11.52a.21.21,0,0,1-.11.23l-.19.06a.17.17,0,0,1-.21-.12l-.11-.55a.17.17,0,0,1,.11-.2Zm1.2-.44.18-.07a.18.18,0,0,1,.21.13l.11.53a.17.17,0,0,1-.11.23l-.19,0a.15.15,0,0,1-.2-.11l-.12-.55a.2.2,0,0,1,.12-.21ZM66,33.8l.19,0a.14.14,0,0,1,.2.11l.12.53a.22.22,0,0,1-.12.23l-.19.06a.17.17,0,0,1-.2-.12L65.89,34c0-.09,0-.21.12-.23Z"/></g></g></svg>