<svg xmlns="http://www.w3.org/2000/svg" viewBox="0 0 74.83 57.54"><defs><style>.cls-1{fill:#262626;fill-rule:evenodd;}</style></defs><title>Ресурс 15</title><g id="Слой_2" data-name="Слой 2"><g id="_5" data-name="5"><path class="cls-1" d="M4,14.59,32.81,16.5v-.08a1,1,0,0,1,.34-.75,4.56,4.56,0,0,0,8.76.32,1,1,0,0,1,.1.43v.08l28.8-1.91.75.47L46.09,18v4.2h.09v-.33h.21v-.09a.46.46,0,0,1,.46-.45h0a.45.45,0,0,1,.45.45v1a.46.46,0,0,1-.45.46h0a.47.47,0,0,1-.46-.46v-.09h-.21V22.3h-.09v.25h-.4V22.3H45.6v.38h-.19v.09a.46.46,0,0,1-.45.46h0a.46.46,0,0,1-.47-.46v-1a.45.45,0,0,1,.47-.45h0a.45.45,0,0,1,.45.45v.09h.19v.33h.09V18l-3.7.43a1,1,0,0,1-1,.85H37.7v2.23h.06v-.22h.13v0a.29.29,0,0,1,.28-.3h0a.29.29,0,0,1,.29.3v.62a.29.29,0,0,1-.29.29h0a.3.3,0,0,1-.28-.29v0h-.13V21.6H37.7v.15h-.25V21.6H37.4v.25h-.13v0a.3.3,0,0,1-.29.29h0a.3.3,0,0,1-.3-.29v-.62A.29.29,0,0,1,37,21h0a.3.3,0,0,1,.29.3v0h.13v.22h.05V19.31H33.82a1,1,0,0,1-1-.85l-3.12-.36v4.09h.09v-.33H30v-.09a.45.45,0,0,1,.45-.45h0a.46.46,0,0,1,.46.45v1a.47.47,0,0,1-.46.46h0a.46.46,0,0,1-.45-.46v-.09H29.8V22.3h-.09v.25h-.4V22.3h-.1v.38H29v.09a.47.47,0,0,1-.46.46h0a.45.45,0,0,1-.45-.46v-1a.44.44,0,0,1,.45-.45h0a.46.46,0,0,1,.46.45v.09h.18v.33h.1V18.05l-26-3ZM26.57,26.4h10l-.35,2.4h2.44l-.36-2.4h10l26.55,31L43,57.54l-1.17-7.75H33l-1.17,7.75L0,57.39Zm14.89,21L40,37.53H34.88l-1.49,9.83ZM39.72,35.94l-.94-6.31H36.07l-1,6.31ZM49.93,17.59a1.76,1.76,0,0,1,1.76,1.76,1.75,1.75,0,1,1-1.76-1.76Zm0,.63a1.13,1.13,0,0,1,0,2.26,1.13,1.13,0,1,1,0-2.26Zm-24.44-.59a1.75,1.75,0,1,1,0,3.5,1.75,1.75,0,0,1,0-3.5Zm0,.62a1.14,1.14,0,1,1-1.13,1.14,1.15,1.15,0,0,1,1.13-1.14Zm12.59-8.06a4.42,4.42,0,0,1,3.7,3L50,12.68l.26.17-8.32.91a5.56,5.56,0,0,1,.08.83,4.43,4.43,0,1,1-8.86,0,4.88,4.88,0,0,1,.07-.85l-8.28-.89.27-.17,8.16.51a4.43,4.43,0,0,1,3.71-3L37.57,0ZM35,12.42l5.06,0,.7,1.22H34.37Z"/></g></g></svg>