<svg width="22" height="22" viewBox="0 0 22 22" fill="none" xmlns="http://www.w3.org/2000/svg">
<path d="M10.5087 5.60927C7.52743 5.60927 5.12275 8.01396 5.12275 10.9952C5.12275 13.9765 7.52743 16.3811 10.5087 16.3811C13.4899 16.3811 15.8946 13.9765 15.8946 10.9952C15.8946 8.01396 13.4899 5.60927 10.5087 5.60927ZM10.5087 14.4968C8.58212 14.4968 7.00712 12.9265 7.00712 10.9952C7.00712 9.06396 8.57743 7.49365 10.5087 7.49365C12.4399 7.49365 14.0102 9.06396 14.0102 10.9952C14.0102 12.9265 12.4352 14.4968 10.5087 14.4968ZM17.3712 5.38896C17.3712 6.0874 16.8087 6.64521 16.1149 6.64521C15.4165 6.64521 14.8587 6.08271 14.8587 5.38896C14.8587 4.69521 15.4212 4.13271 16.1149 4.13271C16.8087 4.13271 17.3712 4.69521 17.3712 5.38896ZM20.9384 6.66396C20.8587 4.98115 20.4743 3.49053 19.2415 2.2624C18.0134 1.03428 16.5227 0.649902 14.8399 0.565527C13.1056 0.46709 7.90712 0.46709 6.17275 0.565527C4.49463 0.645215 3.004 1.02959 1.77119 2.25771C0.538379 3.48584 0.158691 4.97646 0.0743163 6.65927C-0.0241211 8.39365 -0.0241211 13.5921 0.0743163 15.3265C0.154004 17.0093 0.538379 18.4999 1.77119 19.728C3.004 20.9561 4.48994 21.3405 6.17275 21.4249C7.90712 21.5233 13.1056 21.5233 14.8399 21.4249C16.5227 21.3452 18.0134 20.9608 19.2415 19.728C20.4696 18.4999 20.854 17.0093 20.9384 15.3265C21.0368 13.5921 21.0368 8.39834 20.9384 6.66396ZM18.6977 17.1874C18.3321 18.1061 17.6243 18.814 16.7009 19.1843C15.3181 19.7327 12.0368 19.6061 10.5087 19.6061C8.98056 19.6061 5.69462 19.728 4.3165 19.1843C3.39775 18.8186 2.68994 18.1108 2.31963 17.1874C1.77119 15.8046 1.89775 12.5233 1.89775 10.9952C1.89775 9.46709 1.77588 6.18115 2.31963 4.80303C2.68525 3.88428 3.39306 3.17646 4.3165 2.80615C5.69931 2.25771 8.98056 2.38428 10.5087 2.38428C12.0368 2.38428 15.3227 2.2624 16.7009 2.80615C17.6196 3.17178 18.3274 3.87959 18.6977 4.80303C19.2462 6.18584 19.1196 9.46709 19.1196 10.9952C19.1196 12.5233 19.2462 15.8093 18.6977 17.1874Z" fill="black"/>
</svg>
