<svg width="15" height="24" viewBox="0 0 15 24" fill="none" xmlns="http://www.w3.org/2000/svg">
<path d="M14.5219 22.5141C13.8844 23.1937 12.1781 24 9.95626 24C4.29375 24 3.06563 19.8375 3.06563 17.4094V10.6594H0.839066C0.581253 10.6594 0.370316 10.4484 0.370316 10.1906V7.00312C0.370316 6.66562 0.581253 6.36562 0.900003 6.25312C3.80625 5.23125 4.72032 2.69062 4.85157 0.764062C4.88907 0.248437 5.15625 0 5.60626 0H8.92969C9.18751 0 9.39844 0.210938 9.39844 0.46875V5.86875H13.2891C13.5469 5.86875 13.7578 6.075 13.7578 6.33281V10.1625C13.7578 10.4203 13.5469 10.6313 13.2891 10.6313H9.37969V16.875C9.37969 18.4781 10.4906 19.3875 12.5672 18.5531C12.7922 18.4641 12.9891 18.4031 13.1625 18.45C13.3266 18.4922 13.4344 18.6094 13.5094 18.8203L14.5406 21.8344C14.625 22.0687 14.6953 22.3312 14.5219 22.5141Z" fill="black"/>
</svg>
