<svg width="21" height="19" viewBox="0 0 21 19" fill="none" xmlns="http://www.w3.org/2000/svg">
<path d="M20.9906 4.1998C20.8969 6.24355 19.4719 9.04198 16.7062 12.5951C13.8516 16.3076 11.4375 18.1639 9.45938 18.1639C8.23594 18.1639 7.2 17.0342 6.35156 14.7748C4.70156 8.71854 3.99844 5.17011 2.63438 5.17011C2.475 5.17011 1.92656 5.50292 0.984375 6.15917L0 4.88417C2.41875 2.76073 4.72969 0.398234 6.17813 0.266984C7.81406 0.107609 8.81719 1.22792 9.19687 3.61855C10.5422 12.1264 11.1375 13.4107 13.5844 9.55761C14.4609 8.17011 14.9344 7.11542 15 6.38886C15.225 4.2373 13.3219 4.38261 12.0328 4.93573C13.0641 1.55605 15.0375 -0.0845783 17.9484 0.00917167C20.0953 0.0654217 21.1125 1.46698 20.9906 4.1998Z" fill="black"/>
</svg>
