<svg width="21" height="15" viewBox="0 0 21 15" fill="none" xmlns="http://www.w3.org/2000/svg">
<mask id="mask0_123_2365" style="mask-type:alpha" maskUnits="userSpaceOnUse" x="0" y="0" width="21" height="15">
<path d="M19 0H2C0.89543 0 0 0.89543 0 2V13C0 14.1046 0.89543 15 2 15H19C20.1046 15 21 14.1046 21 13V2C21 0.89543 20.1046 0 19 0Z" fill="white"/>
</mask>
<g mask="url(#mask0_123_2365)">
<path d="M19 0H2C0.89543 0 0 0.89543 0 2V13C0 14.1046 0.89543 15 2 15H19C20.1046 15 21 14.1046 21 13V2C21 0.89543 20.1046 0 19 0Z" fill="#006331"/>
<path fill-rule="evenodd" clip-rule="evenodd" d="M10.498 7.25002L9.028 8.02302L9.30799 6.38602L8.12 5.22602L9.76299 4.98902L10.498 3.49902L11.232 4.98902L12.875 5.22602L11.685 6.38602L11.967 8.02202" fill="#FFC500"/>
<path fill-rule="evenodd" clip-rule="evenodd" d="M14.965 5.93801C14.988 6.12201 15 6.31001 15 6.50001C15 8.98501 12.985 11 10.5 11C8.015 11 6 8.98501 6 6.50001C6 6.31001 6.012 6.12201 6.035 5.93701C6.312 7.66501 8.205 9.00001 10.5 9.00001C12.795 9.00001 14.688 7.66401 14.965 5.93701V5.93801Z" fill="#FFC500"/>
<path d="M19 0.5H2C1.17157 0.5 0.5 1.17157 0.5 2V13C0.5 13.8284 1.17157 14.5 2 14.5H19C19.8284 14.5 20.5 13.8284 20.5 13V2C20.5 1.17157 19.8284 0.5 19 0.5Z" stroke="black" stroke-opacity="0.1"/>
</g>
</svg>
