<svg width="21" height="15" viewBox="0 0 21 15" fill="none" xmlns="http://www.w3.org/2000/svg">
<mask id="mask0_123_2398" style="mask-type:alpha" maskUnits="userSpaceOnUse" x="0" y="0" width="21" height="15">
<path d="M19 0H2C0.89543 0 0 0.89543 0 2V13C0 14.1046 0.89543 15 2 15H19C20.1046 15 21 14.1046 21 13V2C21 0.89543 20.1046 0 19 0Z" fill="white"/>
</mask>
<g mask="url(#mask0_123_2398)">
<path d="M19 0H2C0.89543 0 0 0.89543 0 2V13C0 14.1046 0.89543 15 2 15H19C20.1046 15 21 14.1046 21 13V2C21 0.89543 20.1046 0 19 0Z" fill="#00773C"/>
<path fill-rule="evenodd" clip-rule="evenodd" d="M16.0001 9.99976V8.99976H5.0001L7.0001 9.99976H13.0001C13.0001 10.5518 13.6721 10.9998 14.5001 10.9998C15.3281 10.9998 16.0001 10.5518 16.0001 9.99976ZM8.7301 3.90576C8.7181 3.90576 8.7001 3.91176 8.6771 3.92576C8.62311 3.96176 8.5171 4.07276 8.5131 4.20076C8.5101 4.27376 8.49611 4.27376 8.54311 4.32076C8.57711 4.36876 8.6131 4.36476 8.6811 4.32776C8.7211 4.29776 8.73411 4.28076 8.74811 4.23176C8.7641 4.15176 8.6611 4.27176 8.6481 4.17976C8.6251 4.09576 8.69111 4.05976 8.75311 3.97976C8.75511 3.93976 8.7551 3.90976 8.7301 3.90776V3.90576ZM9.7331 3.91076C9.7131 3.91476 9.6901 3.94076 9.6571 3.99876C9.6341 4.06076 9.53311 4.15476 9.60711 4.34876C9.66511 4.47176 9.6901 4.67076 9.66311 4.89376C9.62111 4.95676 9.6131 4.97876 9.5581 5.04176C9.4821 5.12476 9.39811 5.10376 9.33611 5.07176C9.27611 5.03176 9.2301 5.01176 9.2031 4.88576C9.20811 4.68576 9.2201 4.35376 9.1831 4.28376C9.1291 4.17576 9.03911 4.21376 9.00111 4.24676C8.81811 4.41676 8.7271 4.69976 8.6711 4.92676C8.6211 5.09076 8.5661 5.04276 8.5281 4.97676C8.4351 4.88876 8.4281 4.20676 8.3161 4.31976C8.1361 4.83376 8.41911 5.39676 8.61611 5.34176C8.7561 5.40176 8.84611 5.13176 8.90411 4.83676C8.94411 4.75376 8.97411 4.74376 8.99411 4.78676C8.98911 5.17876 9.0241 5.26676 9.1241 5.38476C9.3481 5.55876 9.5341 5.40676 9.5491 5.39276L9.7241 5.21876C9.7641 5.17876 9.81411 5.17476 9.86911 5.21076C9.92311 5.26076 9.91611 5.34376 10.0291 5.40076C10.1271 5.44076 10.3321 5.41076 10.3791 5.32776C10.4441 5.21776 10.4591 5.17976 10.4891 5.13776C10.5351 5.07776 10.6141 5.10476 10.6141 5.12376C10.6071 5.15876 10.5611 5.19376 10.5921 5.25376C10.6471 5.29376 10.6601 5.26776 10.6921 5.25876C10.8061 5.20476 10.8921 4.95676 10.8921 4.95676C10.8971 4.86476 10.8451 4.87176 10.8121 4.89076C10.7671 4.91776 10.7651 4.92676 10.7221 4.95376C10.6651 4.96176 10.5571 4.99876 10.5041 4.91576C10.4491 4.81576 10.4491 4.67776 10.4071 4.57576C10.4071 4.56976 10.3341 4.41876 10.4011 4.40976C10.4341 4.41576 10.5081 4.43476 10.5191 4.37376C10.5551 4.31376 10.4421 4.14376 10.3651 4.05976C10.2991 3.98676 10.2071 3.97776 10.1181 4.05176C10.0551 4.10976 10.0651 4.17376 10.0521 4.23476C10.0371 4.30476 10.0401 4.39176 10.1121 4.48476C10.1741 4.60676 10.2871 4.76476 10.2491 4.98676C10.2491 4.98676 10.1841 5.09276 10.0691 5.07876C10.0191 5.06876 9.9411 5.04876 9.89911 4.73876C9.8691 4.50576 9.9071 4.17876 9.8091 4.02576C9.78611 3.96876 9.7671 3.91276 9.7351 3.91576L9.7331 3.91076ZM9.4151 3.93676C9.3851 3.93976 9.3521 3.97476 9.3251 4.04176C9.3021 4.09376 9.2731 4.36176 9.2781 4.36176C9.2581 4.44176 9.3611 4.47576 9.4081 4.37376C9.47811 4.18376 9.47811 4.10376 9.48211 4.02576C9.47211 3.96576 9.44511 3.93576 9.4151 3.93776V3.93676ZM10.5881 3.95676C10.5581 3.96076 10.5331 3.97876 10.5241 4.02476C10.5111 4.13076 10.5181 4.18976 10.5361 4.27876C10.5491 4.33876 10.6361 4.43676 10.6781 4.49476C10.8811 4.76776 11.0781 5.04176 11.2661 5.32476C11.2961 5.53676 11.3161 5.74276 11.3311 5.94876C11.3631 6.39876 11.3711 6.95876 11.3441 7.43376C11.4281 7.43676 11.5641 7.29676 11.6111 7.09376C11.6411 6.80976 11.6011 6.23376 11.5971 6.06576L11.5871 5.82776C11.8071 6.18776 12.0191 6.56776 12.2271 6.98376C12.3041 6.94776 12.2871 6.51876 12.2431 6.45876C12.0751 6.09876 11.8431 5.74276 11.7701 5.60576C11.7431 5.55576 11.6521 5.41876 11.5451 5.25976C11.5251 5.03176 11.5031 4.83976 11.4891 4.78176C11.4541 4.54176 11.5871 4.80876 11.5691 4.66976C11.5251 4.42976 11.3931 4.26776 11.2371 4.04776C11.1871 3.97776 11.1871 3.96176 11.1101 4.06576C11.0651 4.17076 11.0651 4.25876 11.0801 4.34076C11.0581 4.31076 11.0331 4.27676 10.9971 4.23276L10.7421 4.01676C10.7071 3.99176 10.6391 3.95376 10.5881 3.95676ZM14.0641 3.99376C14.0491 3.99176 14.0341 3.99876 14.0141 4.02576C13.9791 4.05576 13.9421 4.11276 13.9441 4.18576C13.9511 4.31076 13.9741 4.43976 13.9821 4.56576L13.9921 4.61576C13.9781 4.59976 13.9661 4.58576 13.9591 4.57976C13.7121 4.31976 14.0721 4.53576 13.9111 4.33676C13.7761 4.18676 13.7361 4.14076 13.6211 4.05076C13.5611 4.01476 13.5271 3.94276 13.5081 4.06476C13.5001 4.17176 13.4921 4.29676 13.4981 4.38676C13.4981 4.43676 13.5511 4.53176 13.5961 4.58676C13.7601 4.78976 13.9281 5.00476 14.0961 5.22876C14.1321 5.68576 14.1411 6.10476 14.1761 6.56276C14.1721 6.75876 14.1121 7.01876 14.0561 7.04276C14.0561 7.04276 13.9681 7.09276 13.9101 7.03776C13.8671 7.02076 13.6981 6.75476 13.6981 6.75476C13.6111 6.67476 13.5531 6.69776 13.4921 6.75476C13.3221 6.91876 13.2441 7.22676 13.1291 7.43876C13.0991 7.48576 13.0161 7.52676 12.9231 7.43476C12.6861 7.11076 12.8231 6.64976 12.7951 6.76876C12.5851 7.00676 12.6771 7.40076 12.7251 7.48576C12.7951 7.62576 12.8511 7.71576 12.9851 7.78276C13.1101 7.87276 13.2051 7.81776 13.2591 7.75276C13.3831 7.62476 13.3851 7.29576 13.4431 7.23076C13.4831 7.11076 13.5861 7.13076 13.6361 7.18476C13.6861 7.25476 13.7421 7.29976 13.8131 7.33776C13.9291 7.43976 14.0671 7.45776 14.2031 7.36476C14.2961 7.31276 14.3571 7.24476 14.4111 7.11076C14.4711 6.95476 14.4411 6.13476 14.4281 5.67876L14.6881 6.05476C14.7241 6.45476 14.7411 6.84976 14.7281 7.22776C14.7201 7.30276 14.9911 7.00376 14.9881 6.86176C14.9881 6.73876 14.9901 6.62576 14.9881 6.52176C15.1211 6.73176 15.2481 6.94476 15.3681 7.16176C15.4431 7.12176 15.4181 6.69876 15.3711 6.64176C15.2451 6.42976 15.0831 6.20176 14.9581 6.02376C14.9331 5.80076 14.9001 5.53776 14.8841 5.45676C14.8611 5.33076 14.8371 5.14176 14.8011 4.99276C14.7911 4.93576 14.7611 4.74976 14.7711 4.73276C14.7851 4.68976 14.8411 4.73276 14.8681 4.68476C14.9081 4.63976 14.7261 4.16476 14.6331 4.03076C14.6001 3.97076 14.5391 3.99076 14.4651 4.09076C14.3951 4.15476 14.4211 4.30276 14.4471 4.44376C14.5151 4.80376 14.5771 5.16776 14.6251 5.53376C14.5351 5.39876 14.4251 5.23676 14.3171 5.08176L14.3031 5.01176C14.3031 5.00376 14.2891 4.71676 14.2761 4.64876C14.2731 4.62076 14.2661 4.61276 14.2961 4.61676C14.3261 4.64276 14.3301 4.64376 14.3491 4.65276C14.3811 4.65676 14.4091 4.60476 14.3891 4.55576L14.0991 4.02176C14.0891 4.00876 14.0751 3.99676 14.0591 3.99476L14.0641 3.99376ZM5.0941 4.00376C5.0391 4.00176 4.98111 4.03376 5.00411 4.09876C4.99011 4.13376 5.10811 4.25176 5.12911 4.31676C5.14611 4.36376 5.10911 4.51176 5.14911 4.52676C5.18411 4.54176 5.2331 4.42276 5.2511 4.31376C5.2611 4.25376 5.2541 4.04776 5.1141 4.00576C5.1071 4.00376 5.1001 4.00376 5.0921 4.00276L5.0941 4.00376ZM15.3141 4.00376C15.3011 4.00576 15.2861 4.02376 15.2641 4.07376C15.2091 4.16376 15.1901 4.32376 15.2121 4.46376C15.3421 5.35376 15.4421 6.21576 15.4621 7.00376C15.4501 7.07976 15.4461 7.11976 15.4121 7.21376C15.3341 7.31376 15.2481 7.43776 15.1671 7.49776C15.0871 7.55776 14.9151 7.61576 14.8591 7.65976C14.6791 7.76176 14.6791 7.87976 14.8231 7.88476C15.0711 7.85476 15.3651 7.83476 15.5671 7.52976C15.6211 7.44476 15.6851 7.21276 15.6871 7.06976C15.7071 6.23976 15.6771 5.42476 15.5521 4.82376C15.5441 4.76376 15.5181 4.63076 15.5281 4.61376C15.5431 4.57176 15.6241 4.61676 15.6531 4.56976C15.6961 4.52576 15.4431 4.20276 15.3551 4.06476C15.3371 4.03076 15.3251 4.00176 15.3111 4.00476L15.3141 4.00376ZM12.7111 4.01776C12.7011 4.01976 12.6871 4.03576 12.6591 4.07276C12.5891 4.29876 12.5651 4.48276 12.5921 4.62476C12.7721 5.55476 12.9521 6.39976 12.9241 7.28476C13.0081 7.28476 13.1061 7.09176 13.1481 6.89976C13.1711 6.63476 13.1321 6.47376 13.1261 6.31976C13.1191 6.16376 12.9501 4.90376 12.9161 4.78676C12.8741 4.56476 13.0801 4.75676 13.0581 4.62876C12.9861 4.46476 12.8081 4.22876 12.7541 4.08576C12.7341 4.04776 12.7301 4.01276 12.7141 4.01576L12.7111 4.01776ZM6.3771 4.03576C6.3571 4.03976 6.33411 4.05776 6.32711 4.08576C6.32211 4.10576 6.3351 4.13876 6.3171 4.14876C6.3071 4.15876 6.2691 4.15176 6.2711 4.09876C6.2711 4.08076 6.2581 4.06276 6.2511 4.05176C6.2431 4.04776 6.2381 4.04676 6.2241 4.04676C6.2071 4.04676 6.2071 4.05176 6.1981 4.06676C6.1941 4.08076 6.18811 4.09476 6.18811 4.11076C6.18611 4.13076 6.1781 4.13576 6.1651 4.13876C6.1491 4.13876 6.1521 4.14076 6.1401 4.13176C6.1301 4.12476 6.12211 4.12176 6.12211 4.10776C6.12211 4.09276 6.1181 4.06776 6.1141 4.05976C6.1071 4.04976 6.0961 4.04576 6.08411 4.04276C6.01811 4.04276 6.01411 4.12076 6.01711 4.14876C6.01211 4.15476 6.0101 4.28876 6.1001 4.32676C6.2201 4.38476 6.4481 4.35976 6.4401 4.16476C6.4401 4.14776 6.4351 4.08976 6.4331 4.07476C6.42111 4.04476 6.3981 4.03476 6.3761 4.03776L6.3771 4.03576ZM8.00311 4.03776C7.96111 4.03976 7.92311 4.05176 7.89311 4.06776C7.81311 4.14476 7.7931 4.26776 7.8571 4.34476C7.9171 4.37476 7.9801 4.43476 7.93911 4.46976C7.76511 4.65476 7.3121 4.96576 7.2891 5.02276V5.02876H7.29311V5.03076C7.31611 5.04576 7.60011 5.04576 7.6311 5.03076H7.6331C7.7311 4.99376 8.1931 4.46576 8.1931 4.46576C8.1691 4.44576 8.1471 4.42976 8.12311 4.40876C8.09711 4.38676 8.10011 4.36476 8.12311 4.34276C8.23711 4.27676 8.2011 4.12976 8.1411 4.06276C8.0911 4.04076 8.04511 4.03276 8.00311 4.03576V4.03776ZM12.2531 4.03776C12.2411 4.04076 12.2261 4.05776 12.2031 4.10776C12.1481 4.19776 12.1111 4.35276 12.1161 4.49776C12.2341 5.31776 12.2701 6.03476 12.3481 6.85476C12.3541 6.93476 12.3421 7.04876 12.2901 7.09476C12.0941 7.29876 11.8131 7.54876 11.5071 7.66476C11.4741 7.70176 11.5891 7.85876 11.7371 7.85876C11.9851 7.82876 12.2031 7.69076 12.4071 7.32376C12.4601 7.23876 12.5551 7.05576 12.5571 6.91376C12.5771 6.08176 12.5171 5.43376 12.3911 4.83376C12.3841 4.77376 12.3891 4.70376 12.3991 4.68776C12.4151 4.66776 12.4691 4.68776 12.4991 4.64076C12.5411 4.59676 12.3851 4.23776 12.2971 4.10076C12.2791 4.06576 12.2691 4.03776 12.2531 4.03876V4.03776ZM5.6691 4.06476C5.63511 4.06876 5.6031 4.09476 5.5871 4.13476C5.5821 4.26476 5.5811 4.39476 5.5971 4.51676C5.6571 4.72976 5.6741 4.91676 5.7031 5.13376C5.7131 5.42576 5.53511 5.25976 5.54311 5.11576C5.58311 4.92776 5.57311 4.63276 5.53711 4.55776C5.50711 4.48276 5.47511 4.46476 5.40511 4.47776C5.35011 4.47376 5.2071 4.62776 5.1671 4.88776C5.1671 4.88776 5.1331 5.01976 5.1191 5.13776C5.0991 5.27076 5.0111 5.36576 4.9491 5.11976C4.8961 4.93976 4.8641 4.49976 4.7751 4.60176C4.7491 4.94576 4.71911 5.55176 5.01111 5.61376C5.36511 5.64776 5.1691 5.01576 5.2971 4.90076C5.3221 4.84576 5.3671 4.84476 5.3701 4.91576V5.45276C5.3661 5.62676 5.48011 5.67876 5.57011 5.71476C5.66311 5.70776 5.72411 5.71076 5.76011 5.80076L5.8051 6.73076C5.8051 6.73076 6.0191 6.79076 6.0291 6.20776C6.0391 5.86476 5.9591 5.57776 6.0061 5.51076C6.0081 5.44476 6.09211 5.44076 6.1501 5.47376C6.24311 5.53876 6.2841 5.61876 6.4281 5.58676C6.6481 5.52676 6.77811 5.42076 6.78111 5.25276C6.77111 5.09276 6.75111 4.93276 6.68111 4.77276C6.69111 4.74476 6.6411 4.66976 6.6511 4.64076C6.6891 4.70076 6.7491 4.69676 6.76111 4.64076C6.72511 4.51776 6.6671 4.40076 6.5731 4.35076C6.4961 4.28076 6.38311 4.29576 6.3411 4.43776C6.32111 4.60176 6.4011 4.79576 6.5211 4.95476C6.5451 5.01676 6.5811 5.11976 6.5651 5.21276C6.5021 5.24876 6.43911 5.23276 6.38511 5.17776C6.38511 5.17776 6.2121 5.04776 6.2121 5.01776C6.2591 4.72276 6.2221 4.68776 6.1971 4.60776C6.1791 4.49376 6.1251 4.45776 6.0821 4.37976C6.0381 4.33276 5.9791 4.33276 5.95211 4.37976C5.87411 4.51276 5.9101 4.79976 5.9661 4.92676C6.0061 5.04476 6.0681 5.11876 6.0391 5.11876C6.0151 5.18376 5.9651 5.16876 5.9291 5.09176C5.8791 4.93176 5.86711 4.69576 5.86711 4.58876C5.85211 4.45676 5.83511 4.17376 5.74711 4.10176C5.72411 4.06976 5.6971 4.05876 5.6701 4.06176L5.6691 4.06476ZM6.9111 4.06476C6.8941 4.06876 6.8741 4.07876 6.8511 4.08476C6.7761 4.10776 6.7061 4.17276 6.72811 4.29876C6.8181 4.83876 6.87511 5.25176 6.96411 5.79176C6.97711 5.85576 6.9241 5.93876 6.8561 5.93176C6.7401 5.85176 6.7111 5.69176 6.5131 5.69976C6.3691 5.69976 6.2051 5.85776 6.1851 6.00776C6.1611 6.12776 6.1531 6.25776 6.1851 6.36176C6.2851 6.48176 6.4071 6.46976 6.5131 6.44176C6.6001 6.40676 6.67311 6.32176 6.7031 6.34176C6.7231 6.37476 6.70111 6.65576 6.29311 6.87176C6.04111 6.98576 5.8411 7.01176 5.7331 6.80776C5.6671 6.67976 5.7391 6.19176 5.5751 6.30376C5.0891 7.55576 6.71211 7.72976 6.89311 6.35576C6.90511 6.31576 6.9401 6.27776 6.9661 6.28776C6.9761 6.29276 6.9861 6.30776 6.9901 6.33576C6.9521 7.57976 5.7341 7.66576 5.5281 7.27376C5.4761 7.18176 5.4611 6.97576 5.4561 6.85376C5.4461 6.77876 5.4281 6.73576 5.4061 6.71876C5.3561 6.68176 5.2901 6.77876 5.2761 6.94576C5.2561 7.08076 5.26111 7.11776 5.26111 7.24776C5.3271 8.23076 6.8941 7.80776 7.14911 6.99776C7.2751 6.57776 7.14611 6.26076 7.18911 6.22176L7.1921 6.21976H7.19511L7.2001 6.21776C7.3561 6.38576 7.57411 6.23776 7.62211 6.18076C7.64211 6.15076 7.6941 6.13076 7.7301 6.17076C7.8501 6.25676 8.0641 6.21576 8.1081 6.06076C8.1341 5.91076 8.15611 5.75676 8.16111 5.59576C8.08111 5.62076 8.01711 5.63876 7.99111 5.66576C7.98511 5.67276 7.98111 5.68076 7.9791 5.68876L7.95911 5.82176C7.95911 5.82676 7.9571 5.82976 7.9551 5.83176C7.9521 5.83876 7.9451 5.84376 7.9411 5.84676C7.9131 5.86176 7.8641 5.85376 7.8611 5.81276C7.82411 5.64276 7.6691 5.62076 7.5751 5.88576C7.5121 5.93576 7.39511 5.94576 7.38511 5.86976C7.40011 5.69176 7.3281 5.66776 7.1851 5.75176L7.0471 4.71176C7.1071 4.70876 7.1611 4.75176 7.2171 4.68376C7.1571 4.49976 7.0321 4.12576 6.9611 4.08976H6.95911L6.9491 4.07976C6.9491 4.07776 6.9461 4.07676 6.9441 4.07576L6.9401 4.06976C6.93611 4.06976 6.9321 4.06776 6.9301 4.06676C6.9231 4.06476 6.9171 4.06476 6.9101 4.06476H6.9111ZM11.7531 4.06876C11.6911 4.06676 11.6231 4.10576 11.6491 4.18376C11.6331 4.22676 11.7821 4.37076 11.8061 4.44876C11.8491 4.56876 11.7731 4.68576 11.8181 4.70276C11.8601 4.72076 11.9181 4.57776 11.9381 4.44476C11.9641 4.33676 11.8881 4.11676 11.7781 4.07176L11.7531 4.06976V4.06876ZM7.9801 4.19976C8.00811 4.19776 8.04211 4.22376 8.06011 4.25976C8.07711 4.29976 8.0681 4.33676 8.0401 4.34376C8.0101 4.35076 7.9721 4.32576 7.9541 4.28576C7.93611 4.24576 7.9441 4.20876 7.9741 4.20176H7.9801V4.19976ZM14.9771 4.38176C14.9201 4.37976 14.8571 4.42176 14.8831 4.50676C14.8691 4.55276 15.0031 4.70876 15.0261 4.79476C15.0461 4.85476 14.9961 5.05076 15.0361 5.06876C15.0741 5.08876 15.1261 4.93276 15.1461 4.78876C15.1581 4.70876 15.1001 4.43376 15.0011 4.38476C14.9941 4.38276 14.9861 4.38076 14.9781 4.38076L14.9771 4.38176ZM11.1071 4.47776C11.1141 4.50076 11.1191 4.52376 11.1221 4.54776C11.1341 4.59776 11.1441 4.64776 11.1541 4.69976C11.1101 4.63776 11.0741 4.58776 11.0571 4.56976C10.9571 4.44976 11.0591 4.49176 11.1071 4.47776ZM12.0001 4.91576C11.9781 4.91976 11.9571 4.93876 11.9501 4.96876C11.9441 4.98676 11.9581 5.01876 11.9401 5.02876C11.9301 5.03876 11.8901 5.03276 11.8931 4.97876C11.8931 4.96076 11.8801 4.94176 11.8731 4.93176C11.8651 4.92676 11.8601 4.92476 11.8461 4.92476C11.8291 4.92476 11.8291 4.92976 11.8201 4.94476C11.8161 4.95876 11.8101 4.97276 11.8101 4.98976C11.8101 5.00976 11.8021 5.01576 11.7881 5.01976C11.7721 5.01976 11.7751 5.01976 11.7621 5.01276C11.7541 5.00276 11.7451 5.00076 11.7451 4.98676C11.7451 4.97176 11.7421 4.94876 11.7371 4.93876C11.7301 4.92876 11.7201 4.92576 11.7071 4.92176C11.6421 4.92176 11.6371 4.99776 11.6411 5.02576C11.6371 5.03176 11.6341 5.16776 11.7241 5.20576C11.8461 5.26276 12.0741 5.23576 12.0641 5.04176C12.0641 5.02476 12.0591 4.96676 12.0581 4.95176C12.0451 4.92176 12.0221 4.91176 12.0011 4.91476L12.0001 4.91576ZM7.9301 4.95576C7.9161 4.95576 7.89611 4.95976 7.87311 4.97376C7.7661 5.03176 7.72511 5.20376 7.79311 5.30376C7.85311 5.39376 7.9531 5.36076 7.9661 5.36076C8.07111 5.37476 8.13311 5.16476 8.13311 5.16476C8.13311 5.16476 8.1361 5.10476 8.0131 5.21676C7.9591 5.22676 7.9531 5.20676 7.93911 5.17676C7.9271 5.12376 7.9291 5.06676 7.9541 5.01376C7.9661 4.98076 7.9541 4.95976 7.9301 4.95776V4.95576ZM13.6831 4.98276C13.6231 4.97976 13.5601 5.01876 13.5431 5.09976C13.5431 5.14776 13.5651 5.17376 13.5611 5.21776C13.5561 5.24276 13.5311 5.25776 13.4691 5.22976C13.4791 5.21976 13.4291 5.15176 13.4291 5.15176C13.3821 5.12176 13.3191 5.15176 13.2771 5.17976C13.2541 5.22176 13.2371 5.29276 13.2631 5.36476C13.3311 5.49176 13.5661 5.70776 13.6781 5.70976C13.6801 5.59576 13.6911 5.44376 13.6981 5.34976C13.7001 5.31376 13.7081 5.27476 13.7431 5.26576C13.7771 5.25576 13.8361 5.29976 13.8361 5.26276C13.8301 5.19076 13.8161 5.08276 13.7761 5.03276C13.7541 5.00276 13.7191 4.98476 13.6841 4.98276H13.6831ZM8.9201 5.37976L8.9171 5.38276C8.9171 5.38276 8.9151 5.38276 8.9141 5.38476C8.9021 5.39476 8.88811 5.41476 8.85711 5.43476C8.80411 5.49476 8.7951 5.53776 8.7971 5.65776C8.80111 5.67076 8.8971 5.94076 8.9801 6.12976C9.0361 6.32676 9.08711 6.55276 9.05011 6.76576C8.9201 7.04776 8.6601 7.30076 8.4071 7.43876C8.2771 7.47876 8.1671 7.46476 8.1371 7.43676C8.06311 7.38676 8.06211 7.29676 8.06711 7.28276V7.27976C8.27911 7.13176 8.5221 7.01176 8.7121 6.61276C8.76811 6.45976 8.7861 6.36776 8.7301 6.13276C8.7081 6.04276 8.6801 5.97276 8.6201 5.90876H8.6221C8.6581 5.89176 8.75211 5.96076 8.76711 5.91876C8.74411 5.80476 8.6671 5.65376 8.5821 5.57576C8.5061 5.50576 8.42211 5.49876 8.3541 5.56176C8.2761 5.60576 8.2601 5.76176 8.2971 5.89776C8.3391 5.99976 8.4521 6.01776 8.5321 6.22476C8.5341 6.23876 8.5591 6.37976 8.5191 6.43776C8.48511 6.53976 8.06411 6.87176 8.03411 6.89176L8.03111 6.89376L8.02911 6.89576H8.02711H8.0251V6.89276C8.0231 6.88476 8.0251 6.86276 8.0251 6.82976C8.0221 6.76776 8.04811 6.62676 8.0451 6.60176V6.59976C7.9051 6.68976 7.85811 6.96476 7.83311 7.04676C7.48011 7.28976 7.0801 7.47076 6.8491 7.71676C6.7291 7.90676 7.67711 7.50276 7.78711 7.45376L7.7901 7.45676C7.8121 7.47976 7.8131 7.55976 7.8761 7.63276C7.9761 7.76576 8.1841 7.84776 8.3881 7.79676C8.7301 7.67376 8.92811 7.44076 9.12811 7.18176C9.15611 7.14176 9.20111 7.10776 9.2431 7.13976C9.38011 7.44776 9.77811 7.66776 10.2911 7.68976C10.4111 7.54576 10.3541 7.47476 10.3061 7.44476C10.2911 7.43476 10.0511 7.34076 10.0131 7.24776C9.9901 7.16176 10.0471 7.08476 10.1611 7.02776C10.4911 6.98776 10.8151 6.94276 11.1291 6.84176C11.1321 6.73576 11.1941 6.57876 11.2361 6.50976C11.2661 6.46276 11.2831 6.45776 11.2901 6.45176V6.44976H11.2921V6.44676V6.43676L11.2381 6.40476L10.1851 6.40076C10.1721 6.39576 10.1631 6.39076 10.1571 6.38576L10.1551 6.38276C10.1551 6.38276 10.1531 6.38276 10.1531 6.38076C10.1531 6.37876 10.1511 6.37876 10.1511 6.37876V6.37976V6.37776V6.37576V6.37376L10.1531 6.37076C10.1581 6.36476 10.1711 6.35776 10.1861 6.35076C10.4381 6.31776 10.8841 6.24476 10.9141 5.81576C10.9091 5.59176 10.8181 5.44576 10.5441 5.40576C10.3421 5.42076 10.1981 5.61576 10.2211 5.82976C10.2111 5.88676 10.2411 5.99976 10.1811 6.01276C9.7951 6.04876 9.37311 6.29076 9.35911 6.46476H9.35711H9.3551H9.3531C9.3531 6.46676 9.35111 6.46676 9.35011 6.46676H9.3461H9.3441H9.34011C9.3151 6.45876 9.2831 6.41676 9.28811 6.35976C9.27311 6.05976 9.1751 5.71976 9.0231 5.45976C8.9681 5.40476 8.9431 5.38276 8.9291 5.37976H8.9261H8.92311H8.9211H8.9201ZM9.92811 5.53776C9.90811 5.54176 9.88511 5.55976 9.87811 5.58976C9.87311 5.60976 9.8881 5.64176 9.8701 5.65176C9.8601 5.66176 9.8201 5.65576 9.8221 5.60176C9.8221 5.58476 9.8091 5.56576 9.8021 5.55476C9.79411 5.54976 9.7891 5.54876 9.7761 5.54876C9.7591 5.54876 9.7581 5.55276 9.7491 5.56676C9.7441 5.58076 9.73911 5.59676 9.73911 5.61176C9.73711 5.63176 9.7291 5.63776 9.7161 5.63976C9.7001 5.63976 9.7041 5.64276 9.6911 5.63476C9.6831 5.62676 9.67311 5.62276 9.67311 5.60876C9.67311 5.59376 9.67011 5.56876 9.66611 5.55876C9.65911 5.55176 9.6481 5.54876 9.6361 5.54476C9.5691 5.54476 9.56611 5.61976 9.56911 5.64876C9.56411 5.65376 9.5611 5.78876 9.6511 5.82676C9.7711 5.88476 10.0611 5.85076 9.99111 5.66376C9.99111 5.64676 9.9861 5.58876 9.9851 5.57376C9.9721 5.54376 9.9491 5.53376 9.9271 5.53676L9.92811 5.53776ZM13.9931 5.70476H13.9831C13.9831 5.70476 13.4211 6.10476 13.4081 6.11876C13.3521 6.16876 13.3801 6.34176 13.4081 6.32176C13.4481 6.33676 14.0131 5.95376 14.0021 5.90876C14.0271 5.91076 14.0391 5.71176 13.9921 5.70376L13.9931 5.70476ZM10.4591 5.76476C10.4811 5.76176 10.5111 5.76976 10.5391 5.78476C10.5821 5.81076 10.6091 5.84676 10.6041 5.87476V5.87876C10.6021 5.87876 10.6021 5.87876 10.6021 5.88076V5.88276C10.6021 5.88276 10.6001 5.88276 10.6001 5.88476C10.6001 5.88676 10.5971 5.88876 10.5951 5.89076C10.5751 5.91076 10.5291 5.90676 10.4851 5.88076C10.4431 5.85776 10.4181 5.82076 10.4201 5.79476V5.79176L10.4251 5.78176C10.4251 5.78176 10.4251 5.77976 10.4271 5.77876L10.4321 5.77276C10.4391 5.76776 10.4481 5.76276 10.4591 5.76276V5.76476ZM5.5411 5.86476C5.2511 5.87076 4.82411 6.24676 4.81311 6.45476L5.7331 6.01476C5.6831 5.93876 5.7301 5.87076 5.5411 5.86476ZM6.48411 5.99476C6.51211 5.99676 6.5421 6.01076 6.5581 6.05076C6.57211 6.08776 6.5581 6.12576 6.5411 6.14476V6.14776C6.5271 6.16376 6.4851 6.15776 6.4541 6.15776C6.4171 6.15576 6.3991 6.14976 6.3771 6.11976C6.3651 6.08476 6.39711 6.05176 6.41211 6.02776L6.41911 6.01776C6.42911 6.00776 6.4491 5.99976 6.4691 5.99776L6.4821 5.99576L6.48411 5.99476ZM13.8841 6.11176C13.8311 6.11776 13.7821 6.16676 13.8041 6.24476C13.7901 6.29076 13.8741 6.45176 13.8971 6.53676C13.9171 6.59676 13.8711 6.76976 13.9121 6.78676C13.9501 6.80676 14.0491 6.68676 14.0461 6.53276C14.0561 6.45276 14.0181 6.16276 13.9191 6.11476C13.9071 6.11176 13.8951 6.11076 13.8831 6.11176H13.8841ZM7.6001 6.39576C7.5541 6.39876 7.5131 6.42276 7.5321 6.48776C7.5291 6.53376 7.66211 6.59076 7.66911 6.69776C7.6871 6.74376 7.6391 6.88776 7.6791 6.89976C7.7151 6.91476 7.7651 6.79976 7.7841 6.69576C7.7941 6.63776 7.73811 6.43576 7.6441 6.39876C7.6291 6.39476 7.6141 6.39376 7.5991 6.39476L7.6001 6.39576ZM9.4801 6.65176H9.4921C9.6101 6.68376 9.7821 6.68776 9.93211 6.70176C10.0551 6.71176 10.1151 6.80576 10.0021 6.84676C9.8881 6.88476 9.77911 6.91676 9.77911 7.07876C9.79311 7.15876 9.78911 7.20076 9.77711 7.21876C9.77711 7.22176 9.7741 7.22376 9.7731 7.22476C9.7731 7.22476 9.7731 7.22676 9.7711 7.22676V7.22876H9.7681L9.7611 7.23176H9.7561C9.7291 7.23676 9.6901 7.21176 9.66111 7.19576C9.5911 7.14576 9.3961 7.02576 9.3681 6.76576C9.3641 6.70576 9.4081 6.65576 9.4781 6.65076L9.4801 6.65176ZM4.88611 6.85176C4.87911 6.85176 4.86611 6.87376 4.84611 6.89876C4.67211 7.17376 4.6561 7.58476 4.7521 7.70876C4.8021 7.76576 4.8861 7.79176 4.9481 7.77376C5.0581 7.72676 5.1051 7.50576 5.0781 7.42576C5.0431 7.36876 5.01411 7.35976 4.97811 7.40776C4.90111 7.56276 4.8681 7.45576 4.8631 7.36776C4.8511 7.20476 4.86711 7.05276 4.88511 6.93276C4.89511 6.87276 4.89511 6.84976 4.88511 6.84976L4.88611 6.85176ZM10.7831 7.21376C10.7701 7.21376 10.7571 7.21576 10.7431 7.22376C10.7401 7.22376 10.6191 7.30376 10.5801 7.36176C10.5561 7.37976 10.5601 7.39476 10.5661 7.42676C10.5841 7.46976 10.6161 7.45676 10.6541 7.43676C10.7041 7.42876 10.7271 7.46176 10.7241 7.52076C10.7011 7.59576 10.7341 7.62276 10.7341 7.62776C10.7341 7.63176 10.7811 7.67276 10.8371 7.64076C10.9541 7.59576 11.0271 7.55076 11.1921 7.51576C11.2351 7.51576 11.2321 7.39976 11.1641 7.39576C11.0741 7.39976 10.9941 7.40576 10.9041 7.47576C10.8491 7.48776 10.8401 7.45376 10.8271 7.42376C10.8131 7.34976 10.8591 7.29776 10.8491 7.24176C10.8511 7.24476 10.8211 7.21776 10.7821 7.21576L10.7831 7.21376ZM14.5591 7.35376L14.4791 7.36176C14.4431 7.36876 14.4311 7.38476 14.4241 7.42876C14.4271 7.49376 14.4671 7.49076 14.5091 7.51676C14.5331 7.54676 14.5491 7.57476 14.5071 7.62676C14.4671 7.66176 14.4401 7.68176 14.4001 7.71676C14.3831 7.74876 14.3701 7.79676 14.4281 7.81276C14.5331 7.84276 14.7761 7.68476 14.7761 7.68276C14.8161 7.65276 14.8021 7.59576 14.7991 7.59576C14.7751 7.56976 14.7231 7.58576 14.6891 7.58076C14.6721 7.58076 14.6191 7.57276 14.6431 7.52476C14.6651 7.49476 14.6731 7.47776 14.6881 7.44076C14.7031 7.40476 14.6881 7.38076 14.6301 7.36076C14.6001 7.35476 14.5801 7.35276 14.5571 7.35376H14.5591ZM13.1061 11.2138C13.3761 11.2268 13.6281 11.2168 13.8961 11.2298C13.9401 11.2658 13.9191 11.3498 13.8911 11.3638L13.8861 11.3658H13.8831H13.8791L13.6531 11.3598V11.3468C13.6311 11.2848 13.4811 11.2888 13.4451 11.3368V11.3398C13.4431 11.3398 13.4421 11.3428 13.4421 11.3438L13.4401 11.3488V11.3608C13.3201 11.3758 13.2151 11.3568 13.0971 11.3528C13.0621 11.3098 13.0671 11.2328 13.1071 11.2128L13.1061 11.2138Z" fill="white"/>
<path d="M19 0.5H2C1.17157 0.5 0.5 1.17157 0.5 2V13C0.5 13.8284 1.17157 14.5 2 14.5H19C19.8284 14.5 20.5 13.8284 20.5 13V2C20.5 1.17157 19.8284 0.5 19 0.5Z" stroke="black" stroke-opacity="0.1"/>
</g>
</svg>
