<svg width="482" height="70" viewBox="0 0 482 70" fill="none" xmlns="http://www.w3.org/2000/svg">
<path fill-rule="evenodd" clip-rule="evenodd" d="M152.096 27.4407C142.894 27.3447 136.51 34.1903 136.51 43.1547C136.51 51.5559 143.455 58.0193 151.901 57.9306C160.92 58.0193 167.114 51.3712 167.114 42.5951C167.114 34.0001 160.92 27.3447 152.096 27.4407ZM178.938 68.2768H167.489V61.3497H167.303C163.544 66.6197 156.224 69.9429 149.651 69.9429C141.582 69.9429 135.007 66.6197 130.5 61.3497C126.371 56.4546 124.023 49.7974 124.023 42.682C124.023 35.5757 125.902 29.661 130.69 24.3005C135.942 18.2952 142.421 15.432 150.026 15.432C157.162 15.432 163.358 18.5741 167.489 24.3005V17.0945H178.938V68.2768Z" fill="#4D5050"/>
<path fill-rule="evenodd" clip-rule="evenodd" d="M182.83 17.0933H196.725L208.833 50.7197L220.752 17.0933H234.647L213.621 68.2755H203.858L182.83 17.0933Z" fill="#4D5050"/>
<path fill-rule="evenodd" clip-rule="evenodd" d="M238.495 68.2755H250.984V17.0933H238.495V68.2755Z" fill="#4D5050"/>
<path fill-rule="evenodd" clip-rule="evenodd" d="M259.146 17.0945H270.691V21.8049H270.877C273.98 17.5581 279.612 15.432 285.054 15.432C290.5 15.432 296.131 17.8316 299.891 21.8049C300.356 22.2758 300.824 22.7303 301.201 23.2917C305.24 28.8279 305.336 35.2026 305.336 41.7584V68.2768H292.847V44.1689C292.847 40.1883 292.847 35.1121 290.686 31.6947C288.907 29.0163 285.62 27.4407 282.426 27.4407C279.046 27.4407 275.386 29.1938 273.694 31.9736C271.448 35.4797 271.632 41.0232 271.632 45.0925V68.2768H259.146V17.0945Z" fill="#4D5050"/>
<path fill-rule="evenodd" clip-rule="evenodd" d="M326.258 32.1493C323.353 35.0161 321.949 38.7105 321.949 42.778C321.949 51.0035 328.426 57.9306 336.96 57.9306C345.786 57.9306 352.263 51.3712 352.263 42.778C352.263 34.3714 345.602 27.4407 336.96 27.4407C333.116 27.4407 328.893 29.3821 326.258 32.1493ZM364.75 42.778C364.75 57.9306 352.263 69.9429 336.96 69.9429C321.949 69.9429 309.458 57.6535 309.458 42.778C309.458 27.4407 321.949 15.432 337.527 15.432C352.826 15.432 364.75 27.9025 364.75 42.778Z" fill="#4D5050"/>
<path fill-rule="evenodd" clip-rule="evenodd" d="M395.172 27.4383C387.186 27.4383 380.147 34.4632 380.147 42.3156C380.147 50.82 386.628 57.9282 395.356 57.9282C403.995 57.9282 410.752 51.0011 410.752 42.5927C410.752 34.0847 403.717 27.4383 395.172 27.4383ZM422.389 68.2744H410.94V61.3473H410.752C407.094 66.985 400.238 69.9405 393.483 69.9405C385.874 69.9405 379.308 66.5213 374.702 61.3473C370.291 56.3562 367.664 49.7045 367.664 42.8698C367.664 36.0297 370.015 29.2855 374.702 24.1115C379.4 18.9357 386.718 15.4296 393.851 15.4296C399.862 15.4296 405.961 17.8292 409.915 22.3585V0H422.389V68.2744Z" fill="#4D5050"/>
<path fill-rule="evenodd" clip-rule="evenodd" d="M469.421 37.2316C467.356 31.1395 461.63 27.4396 455.246 27.4396C449.05 27.4396 442.671 31.3188 440.79 37.2316H469.421ZM440.981 48.1338C442.857 54.0539 448.395 57.9295 454.687 57.9295C459.375 57.9295 463.884 56.171 466.322 53.4962H480.123C476.93 62.6362 466.136 69.9418 455.152 69.9418C440.041 69.9418 427.738 57.9295 427.738 43.0558C427.738 27.9014 439.754 15.4291 455.342 15.4291C470.175 15.4291 482 27.9956 482 42.3169C482 44.2547 481.626 46.1942 481.341 48.1338H440.981Z" fill="#4D5050"/>
<path fill-rule="evenodd" clip-rule="evenodd" d="M83.9105 39.4992C80.5982 42.9383 76.1819 46.381 71.0295 49.2767C68.6373 46.1981 64.957 44.2078 60.7247 44.2078C53.5482 44.2078 47.8437 49.82 47.8437 56.8847C47.8437 57.4262 47.8437 58.1524 48.0277 58.6957C41.0352 60.5067 34.4107 61.4122 28.5222 61.2311C25.946 61.0482 23.5538 60.686 21.5297 60.1427C22.2657 58.6957 22.6338 57.064 22.6338 55.253C22.6338 50.7255 19.8735 46.7432 15.8252 45.1133C16.9293 43.4816 18.2174 41.8535 19.8735 40.0425C24.4739 35.3339 30.7304 30.9875 37.9069 27.3656C39.379 28.8144 41.4032 29.9009 43.7954 29.9009C48.2117 29.9009 51.892 26.279 51.892 21.9326V21.7515C59.9886 19.2161 67.3492 17.9484 73.2377 17.9484C76.3659 17.9484 79.3101 18.3106 81.7023 18.8539C81.1503 20.1216 80.9663 21.3893 80.9663 22.8381C80.9663 27.7278 84.0945 31.7119 88.5108 33.1607C87.4068 35.3339 85.9347 37.326 83.9105 39.4992ZM103.048 23.0174C103.048 17.0429 98.0796 12.1514 92.0071 12.1514C89.2469 12.1514 86.8547 13.2398 84.8306 14.8679C76.3659 12.1514 63.6689 12.8776 50.0519 17.224C48.5798 15.413 46.3716 14.1453 43.7954 14.1453C39.379 14.1453 35.6988 17.7673 35.6988 22.1119V23.0174C27.7861 27.0034 20.9776 31.7119 16.0092 36.7827C13.433 39.3163 11.5929 41.8535 10.3048 44.3871C4.60036 44.7493 0 49.6408 0 55.4359C0 61.5915 5.1524 66.6641 11.4089 66.6641C13.9851 66.6641 16.1933 65.9397 18.0334 64.4909C20.9776 65.5757 24.4739 66.119 28.3382 66.3019H30.3624C36.2508 66.3019 42.8753 65.3964 49.4998 63.5854C51.708 67.2074 55.9403 69.7409 60.5407 69.7409C67.7172 69.7409 73.4217 64.1287 73.4217 57.064C73.4217 55.9792 73.2377 54.8926 73.0537 53.8042C78.5741 50.5462 83.5425 46.9243 87.4068 42.9383C90.535 39.8596 92.5592 36.7827 93.8473 33.704C99.1837 32.7985 103.048 28.2711 103.048 23.0174Z" fill="#82D339"/>
</svg>
