<svg width="409" height="83" viewBox="0 0 409 83" fill="none" xmlns="http://www.w3.org/2000/svg">
<path d="M140.498 30.9874V34.1797H131.516V38.76H139.797V41.9525H131.516V46.6716H140.639V50.0028H127.866V30.9874H140.498Z" fill="black"/>
<path d="M149.059 36.1228C152.989 36.1228 155.656 38.8989 155.656 42.924V44.3121H145.831C145.972 46.1165 147.235 47.5044 149.2 47.5044C151.165 47.5044 152.147 46.3941 152.568 45.5612L155.376 47.2268C154.393 48.6148 152.849 50.558 149.2 50.558C145.129 50.558 142.182 47.5044 142.182 43.3405C142.182 39.0377 144.989 36.1228 149.059 36.1228ZM152.147 41.8136C151.867 40.148 150.744 39.0377 149.059 39.0377C147.094 39.0377 146.112 40.148 145.831 41.8136H152.147Z" fill="black"/>
<path d="M162.816 36.1228C165.622 36.1228 167.587 37.3721 169.412 39.1764L166.885 41.1198C165.904 39.8704 164.499 38.7602 162.675 38.7602C161.412 38.7602 160.71 39.3153 160.71 40.148C160.71 41.1198 161.692 41.3973 163.096 41.536H163.518C167.868 42.0913 169.552 43.2016 169.552 45.5612C169.552 48.1984 167.026 50.1417 163.518 50.1417C159.727 50.1417 157.622 48.1984 156.359 46.3941L159.166 44.7285C160.008 46.5328 161.833 47.3657 163.657 47.3657C165.061 47.3657 166.324 46.8105 166.324 45.7001C166.324 44.7285 164.921 44.4509 163.518 44.3121H163.096C159.306 43.8956 157.622 42.6465 157.622 40.148C157.341 37.7884 159.587 36.1228 162.816 36.1228Z" fill="black"/>
<path d="M173.763 36.5393V32.3755H177.273V36.5393H181.062V39.4541H177.273V46.2553C177.273 46.8104 177.553 47.0882 177.975 47.0882H180.22V50.0029H176.431C174.887 50.0029 173.763 48.8924 173.763 47.3657V39.4541H170.254V36.5393H173.763Z" fill="black"/>
<path d="M184.85 30.2934C186.253 30.2934 187.236 31.265 187.236 32.653C187.236 34.041 186.114 35.0126 184.85 35.0126C183.447 35.0126 182.464 34.041 182.464 32.653C182.464 31.265 183.588 30.2934 184.85 30.2934ZM186.675 50.0029H183.166V36.5393H186.675V50.0029Z" fill="black"/>
<path d="M200.711 30.9874V46.6716H209.553V50.0028H197.06V30.9874H200.711Z" fill="black"/>
<path d="M217.415 36.1228C221.345 36.1228 224.011 38.8989 224.011 42.924V44.3121H214.187C214.327 46.1165 215.59 47.5044 217.554 47.5044C219.52 47.5044 220.503 46.3941 220.923 45.5612L223.731 47.2268C222.748 48.6148 221.204 50.558 217.554 50.558C213.485 50.558 210.536 47.5044 210.536 43.3405C210.677 39.0377 213.485 36.1228 217.415 36.1228ZM220.503 41.8136C220.221 40.148 219.099 39.0377 217.415 39.0377C215.449 39.0377 214.466 40.148 214.187 41.8136H220.503Z" fill="black"/>
<path d="M229.627 36.5393V38.7602H230.047C230.608 37.5109 231.872 36.4006 234.399 36.4006C237.346 36.4006 239.732 38.4824 239.732 42.0914V50.0028H236.223V42.3689C236.223 40.5645 235.101 39.4542 233.135 39.4542C230.889 39.4542 229.768 40.842 229.768 43.2016V50.1417H226.258V36.6782H229.627V36.5393Z" fill="black"/>
<path d="M245.906 36.5393V38.7602H246.326C246.889 37.5109 248.152 36.4006 250.678 36.4006C253.625 36.4006 256.012 38.4824 256.012 42.0914V50.0028H252.503V42.3689C252.503 40.5645 251.38 39.4542 249.416 39.4542C247.169 39.4542 246.047 40.842 246.047 43.2016V50.1417H242.537V36.6782H245.906V36.5393Z" fill="black"/>
<path d="M268.362 50.0029V47.7822H268.083C267.52 49.0313 266.258 50.1417 263.731 50.1417C260.784 50.1417 258.398 48.0597 258.398 44.451V36.4006H261.906V44.0345C261.906 45.8388 263.029 46.9493 264.993 46.9493C267.241 46.9493 268.362 45.5613 268.362 43.2017V36.2618H271.872V50.0029H268.362Z" fill="black"/>
<path d="M281.135 36.1228C284.784 36.1228 287.17 38.2049 287.17 41.3973V50.0028H283.801V48.0597H283.521C283.099 48.8924 282.116 50.2804 279.31 50.2804C276.222 50.2804 274.256 48.6148 274.256 46.1165C274.256 44.0345 276.081 42.5076 278.749 42.23L283.941 41.6749V41.3973C283.941 40.148 282.958 39.1764 281.135 39.1764C279.31 39.1764 278.186 40.148 277.344 41.536L274.538 39.7317C276.081 37.6497 277.907 36.1228 281.135 36.1228ZM280.152 47.5044C282.538 47.5044 283.941 46.1165 283.941 44.3121V44.0345L279.73 44.5896C278.467 44.7285 277.766 45.1448 277.766 45.9776C277.766 46.8105 278.608 47.5044 280.152 47.5044Z" fill="black"/>
<path d="M298.12 41.536L304.015 49.864H300.085L295.734 43.4792L293.628 45.1448V50.0028H290.12V30.9874H293.628V41.1196H293.909L299.383 36.5393H304.155L298.12 41.536Z" fill="black"/>
<path d="M312.297 36.1228C315.945 36.1228 318.332 38.2049 318.332 41.3973V50.0028H314.964V48.0597H314.542C314.122 48.8924 313.139 50.2804 310.331 50.2804C307.243 50.2804 305.279 48.6148 305.279 46.1165C305.279 44.0345 307.104 42.5076 309.77 42.23L314.964 41.6749V41.3973C314.964 40.148 313.981 39.1764 312.156 39.1764C310.331 39.1764 309.209 40.148 308.367 41.536L305.559 39.7317C307.104 37.6497 308.928 36.1228 312.297 36.1228ZM311.173 47.5044C313.559 47.5044 314.964 46.1165 314.964 44.3121V44.0345L310.753 44.5896C309.49 44.7285 308.787 45.1448 308.787 45.9776C308.787 46.8105 309.629 47.5044 311.173 47.5044Z" fill="black"/>
<path d="M334.755 50.0028H331.386V48.0597H330.964C330.262 49.1699 328.999 50.2804 326.613 50.2804C323.244 50.2804 320.438 47.3657 320.438 43.2016C320.438 39.0377 323.244 36.1228 326.613 36.1228C328.999 36.1228 330.262 37.2333 330.964 38.3437H331.245V30.9874H334.755V50.0028ZM323.946 43.2016C323.946 45.8388 325.63 47.2268 327.737 47.2268C329.842 47.2268 331.526 45.7001 331.526 43.2016C331.526 40.7033 329.982 39.1764 327.737 39.1764C325.49 39.1764 323.946 40.7033 323.946 43.2016Z" fill="black"/>
<path d="M343.875 36.1228C347.805 36.1228 350.473 38.8989 350.473 42.924V44.3121H340.647C340.788 46.1165 342.052 47.5044 344.016 47.5044C345.982 47.5044 346.963 46.3941 347.385 45.5612L350.191 47.2268C349.208 48.6148 347.665 50.558 344.016 50.558C339.945 50.558 336.998 47.5044 336.998 43.3405C336.998 39.0377 339.805 36.1228 343.875 36.1228ZM346.963 41.8136C346.683 40.148 345.56 39.0377 343.875 39.0377C341.911 39.0377 340.928 40.148 340.647 41.8136H346.963Z" fill="black"/>
<path d="M358.614 36.1228C362.544 36.1228 365.211 38.8989 365.211 42.924V44.3121H355.386C355.526 46.1165 356.791 47.5044 358.755 47.5044C360.721 47.5044 361.702 46.3941 362.124 45.5612L364.93 47.2268C363.949 48.6148 362.405 50.558 358.755 50.558C354.684 50.558 351.737 47.5044 351.737 43.3405C351.737 39.0377 354.545 36.1228 358.614 36.1228ZM361.703 41.8136C361.422 40.148 360.299 39.0377 358.614 39.0377C356.65 39.0377 355.667 40.148 355.386 41.8136H361.703Z" fill="black"/>
<path d="M370.683 36.5393V38.4825H371.104C371.665 37.2333 372.788 36.2618 374.752 36.2618C376.437 36.2618 377.84 37.2333 378.403 38.4825H378.823C379.384 37.2333 380.507 36.2618 382.753 36.2618C385.28 36.2618 387.245 38.0662 387.245 40.9809V50.0029H383.736V41.2585C383.736 40.0094 382.894 39.3154 381.49 39.3154C380.087 39.3154 378.964 40.1481 378.964 41.8137V50.0029H375.454V41.2585C375.454 40.0094 374.613 39.3154 373.208 39.3154C371.805 39.3154 370.683 40.1481 370.683 41.8137V50.0029H367.174V36.5393H370.683Z" fill="black"/>
<path d="M391.596 30.2934C392.999 30.2934 393.982 31.265 393.982 32.653C393.982 34.041 392.858 35.0126 391.596 35.0126C390.193 35.0126 389.21 34.041 389.21 32.653C389.21 31.265 390.332 30.2934 391.596 30.2934ZM393.419 50.0029H389.911V36.5393H393.419V50.0029Z" fill="black"/>
<path d="M402.826 36.1228C406.475 36.1228 408.861 38.2049 408.861 41.3973V50.0028H405.494V48.0597H405.072C404.652 48.8924 403.669 50.2804 400.861 50.2804C397.773 50.2804 395.809 48.6148 395.809 46.1165C395.809 44.0345 397.634 42.5076 400.3 42.23L405.494 41.6749V41.3973C405.494 40.148 404.511 39.1764 402.686 39.1764C400.861 39.1764 399.739 40.148 398.897 41.536L396.088 39.7317C397.634 37.6497 399.457 36.1228 402.826 36.1228ZM401.703 47.5044C404.089 47.5044 405.494 46.1165 405.494 44.3121V44.0345L401.283 44.5896C400.018 44.7285 399.317 45.1448 399.317 45.9776C399.317 46.8105 400.159 47.5044 401.703 47.5044Z" fill="black"/>
<path d="M137.691 56.11V57.7756H129.691V62.9111H136.989V64.5766H129.691V69.8511H137.691V71.5167H127.866V56.11H137.691Z" fill="black"/>
<path d="M144.288 60.5515C146.393 60.5515 148.077 61.3844 149.621 63.3276L148.358 64.1604C147.235 62.4949 145.832 61.9395 144.288 61.9395C142.884 61.9395 141.901 62.4949 141.901 63.6051C141.901 64.8544 143.024 64.9931 144.428 65.132L145.41 65.2707C147.937 65.6872 149.762 66.2423 149.762 68.3243C149.762 70.4063 147.797 71.7943 144.989 71.7943C141.901 71.7943 140.217 69.9899 139.375 68.3243L140.919 67.4916C141.621 69.2959 143.024 70.2675 144.989 70.2675C146.814 70.2675 147.937 69.4348 147.937 68.3243C147.937 67.0752 146.533 66.9363 145.13 66.7976L144.147 66.6587C141.761 66.3812 140.217 65.5484 140.217 63.6051C140.217 61.662 142.042 60.5515 144.288 60.5515Z" fill="black"/>
<path d="M154.112 56.9428H155.796V60.8293H159.305V62.356H155.796V69.4348C155.796 69.8512 155.937 70.1288 156.358 70.1288H158.603V71.6555H155.796C154.814 71.6555 154.112 70.9615 154.112 69.9899V62.4949H150.884V60.968H154.112V56.9428Z" fill="black"/>
<path d="M166.322 60.5515C169.551 60.5515 171.796 62.9111 171.796 66.2423C171.796 69.5736 169.551 71.9331 166.322 71.9331C163.094 71.9331 160.849 69.5736 160.849 66.2423C160.849 62.7724 163.094 60.5515 166.322 60.5515ZM166.322 70.2675C168.568 70.2675 170.112 68.6019 170.112 66.1036C170.112 63.6051 168.568 61.9395 166.322 61.9395C164.077 61.9395 162.533 63.6051 162.533 66.1036C162.533 68.7407 164.077 70.2675 166.322 70.2675Z" fill="black"/>
<path d="M176.148 60.8292V62.7724H176.428C176.99 61.6619 177.972 60.6904 180.219 60.6904C182.464 60.6904 184.569 62.0784 184.569 65.132V71.6554H182.884V65.2707C182.884 63.1888 181.762 62.2171 179.797 62.2171C177.692 62.2171 176.148 63.6051 176.148 66.1036V71.6554H174.463V60.9679H176.148V60.8292Z" fill="black"/>
<path d="M188.5 55.9712C189.343 55.9712 189.904 56.5263 189.904 57.3592C189.904 58.1919 189.202 58.7472 188.5 58.7472C187.658 58.7472 187.096 58.1919 187.096 57.3592C187.096 56.6652 187.658 55.9712 188.5 55.9712ZM189.343 71.5168H187.658V60.8292H189.343V71.5168Z" fill="black"/>
<path d="M197.482 60.5515C200.429 60.5515 202.254 62.2171 202.254 64.8544V71.6555H200.57V69.8512H200.289C199.728 70.8228 198.604 71.9331 196.218 71.9331C193.832 71.9331 192.147 70.6839 192.147 68.7408C192.147 66.7976 193.832 65.826 196.218 65.5484L200.57 65.132V64.7156C200.57 63.05 199.446 62.0784 197.482 62.0784C195.516 62.0784 194.395 63.05 193.832 64.438L192.288 63.744C193.13 62.0784 194.815 60.5515 197.482 60.5515ZM196.359 70.4063C199.026 70.4063 200.57 68.8796 200.57 66.6587V66.3812L196.499 66.7976C194.955 66.9363 193.832 67.3527 193.832 68.6019C193.832 69.7123 194.815 70.4063 196.359 70.4063Z" fill="black"/>
<path d="M207.027 60.8292V62.7724H207.308C207.869 61.6619 208.852 60.6904 211.097 60.6904C213.343 60.6904 215.449 62.0784 215.449 65.132V71.6554H213.765V65.2707C213.765 63.1888 212.641 62.2171 210.677 62.2171C208.571 62.2171 207.027 63.6051 207.027 66.1036V71.6554H205.342V60.9679H207.027V60.8292Z" fill="black"/>
<path d="M232.152 56.11L237.206 71.5167H235.24L233.977 67.6302H227.38L226.117 71.5167H224.151L229.205 56.11H232.152ZM233.555 65.9647L230.889 57.7756H230.608L227.941 65.9647H233.555Z" fill="black"/>
<path d="M239.451 60.8292L242.82 69.8511H243.1L246.469 60.8292H248.294L244.083 71.5167H241.697L237.485 60.8292H239.451Z" fill="black"/>
<path d="M251.52 55.9712C252.363 55.9712 252.925 56.5263 252.925 57.3592C252.925 58.1919 252.222 58.7472 251.52 58.7472C250.678 58.7472 250.117 58.1919 250.117 57.3592C249.977 56.6652 250.678 55.9712 251.52 55.9712ZM252.363 71.5168H250.678V60.8292H252.363V71.5168Z" fill="black"/>
<path d="M260.504 60.5515C263.451 60.5515 265.276 62.2171 265.276 64.8544V71.6555H263.592V69.8512H263.31C262.749 70.8228 261.628 71.9331 259.241 71.9331C256.855 71.9331 255.171 70.6839 255.171 68.7408C255.171 66.7976 256.855 65.826 259.241 65.5484L263.592 65.132V64.7156C263.592 63.05 262.47 62.0784 260.504 62.0784C258.538 62.0784 257.416 63.05 256.855 64.438L255.311 63.744C256.013 62.0784 257.698 60.5515 260.504 60.5515ZM259.38 70.4063C262.048 70.4063 263.592 68.8796 263.592 66.6587V66.3812L259.521 66.7976C257.977 66.9363 256.855 67.3527 256.855 68.6019C256.715 69.7123 257.837 70.4063 259.38 70.4063Z" fill="black"/>
<path d="M270.047 56.9428H271.731V60.8293H275.239V62.356H271.731V69.4348C271.731 69.8512 271.87 70.1288 272.292 70.1288H274.538V71.6555H271.731C270.749 71.6555 270.047 70.9615 270.047 69.9899V62.4949H266.819V60.968H270.047V56.9428Z" fill="black"/>
<path d="M278.469 55.9712C279.312 55.9712 279.874 56.5263 279.874 57.3592C279.874 58.1919 279.171 58.7472 278.469 58.7472C277.627 58.7472 277.066 58.1919 277.066 57.3592C276.926 56.6652 277.627 55.9712 278.469 55.9712ZM279.312 71.5168H277.627V60.8292H279.312V71.5168Z" fill="black"/>
<path d="M287.454 60.5515C290.681 60.5515 292.928 62.9111 292.928 66.2423C292.928 69.5736 290.681 71.9331 287.454 71.9331C284.226 71.9331 281.979 69.5736 281.979 66.2423C281.84 62.7724 284.226 60.5515 287.454 60.5515ZM287.454 70.2675C289.7 70.2675 291.243 68.6019 291.243 66.1036C291.243 63.6051 289.7 61.9395 287.454 61.9395C285.207 61.9395 283.663 63.6051 283.663 66.1036C283.524 68.7407 285.068 70.2675 287.454 70.2675Z" fill="black"/>
<path d="M297.138 60.8292V62.7724H297.417C297.98 61.6619 298.961 60.6904 301.207 60.6904C303.454 60.6904 305.559 62.0784 305.559 65.132V71.6554H303.874V65.2707C303.874 63.1888 302.751 62.2171 300.786 62.2171C298.682 62.2171 297.138 63.6051 297.138 66.1036V71.6554H295.453V60.9679H297.138V60.8292Z" fill="black"/>
<path d="M322.26 56.11L327.313 71.5167H325.349L324.085 67.6302H317.489L316.225 71.5167H314.4L319.453 56.11H322.26ZM323.664 65.9647L320.997 57.7756H320.716L318.05 65.9647H323.664Z" fill="black"/>
<path d="M334.192 60.5515C336.998 60.5515 338.964 62.356 339.384 64.7156L337.7 64.9931C337.561 63.3276 336.297 62.0784 334.192 62.0784C331.946 62.0784 330.262 63.744 330.262 66.2423C330.262 68.7407 331.946 70.4063 334.192 70.4063C336.297 70.4063 337.42 69.0183 337.7 67.4916L339.384 67.7692C338.964 69.8512 337.28 71.9331 334.192 71.9331C330.963 71.9331 328.577 69.5736 328.577 66.2423C328.718 62.9111 331.104 60.5515 334.192 60.5515Z" fill="black"/>
<path d="M346.684 60.5515C349.631 60.5515 351.456 62.2171 351.456 64.8544V71.6555H349.771V69.8512H349.49C348.929 70.8228 347.805 71.9331 345.419 71.9331C343.033 71.9331 341.349 70.6839 341.349 68.7408C341.349 66.7976 343.033 65.826 345.419 65.5484L349.771 65.132V64.7156C349.771 63.05 348.648 62.0784 346.684 62.0784C344.718 62.0784 343.594 63.05 343.033 64.438L341.489 63.744C342.332 62.0784 344.016 60.5515 346.684 60.5515ZM345.56 70.4063C348.227 70.4063 349.771 68.8796 349.771 66.6587V66.3812L345.701 66.7976C344.157 66.9363 343.033 67.3527 343.033 68.6019C343.033 69.7123 344.016 70.4063 345.56 70.4063Z" fill="black"/>
<path d="M364.928 71.5168H363.244V69.7123H362.962C362.401 70.8228 361.278 71.7943 359.032 71.7943C356.085 71.7943 353.84 69.4347 353.84 66.1036C353.84 62.7724 356.085 60.4128 359.032 60.4128C361.278 60.4128 362.401 61.5232 362.962 62.4948H363.244V55.9712H364.928V71.5168ZM355.665 66.1036C355.665 68.7407 357.209 70.2674 359.454 70.2674C361.7 70.2674 363.244 68.6019 363.244 66.1036C363.244 63.6051 361.7 61.9395 359.454 61.9395C357.209 61.9395 355.665 63.4664 355.665 66.1036Z" fill="black"/>
<path d="M372.93 60.4128C376.018 60.4128 378.123 62.6335 378.123 65.6871V66.6587H369.282C369.421 68.8796 370.965 70.2676 373.071 70.2676C374.895 70.2676 375.877 69.4347 376.438 68.1856L377.984 69.0183C377.142 70.4063 375.877 71.9332 373.212 71.9332C369.843 71.9332 367.597 69.4347 367.597 66.2424C367.597 62.9111 369.843 60.4128 372.93 60.4128ZM376.438 65.2707C376.438 63.1888 375.035 61.9395 372.93 61.9395C370.826 61.9395 369.561 63.1888 369.282 65.2707H376.438Z" fill="black"/>
<path d="M382.334 62.2171H382.614C383.176 61.2455 384.158 60.5515 385.701 60.5515C387.386 60.5515 388.228 61.3844 388.791 62.4949H389.07C389.633 61.3844 390.614 60.5515 392.299 60.5515C394.404 60.5515 395.949 61.9395 395.949 64.0216V71.3779H394.404V64.1604C394.404 62.7724 393.422 61.9395 391.879 61.9395C390.335 61.9395 389.211 62.9111 389.211 64.7156V71.3779H387.527V64.1604C387.527 62.7724 386.544 61.9395 385.141 61.9395C383.597 61.9395 382.334 62.9111 382.334 64.7156V71.3779H380.65V60.6904H382.334V62.2171Z" fill="black"/>
<path d="M409 60.8292L402.404 75.9582H400.579L402.545 71.6554L397.773 60.8292H399.596L403.247 69.4347H403.526L407.176 60.8292H409Z" fill="black"/>
<path fill-rule="evenodd" clip-rule="evenodd" d="M116.356 81.3714C117.338 81.2327 118.321 80.9551 119.163 80.6774C99.5131 82.7594 72.0031 58.3308 50.1074 46.8104C52.9146 44.3121 56.2831 43.8956 59.7921 43.8956C63.0203 44.5897 66.6696 46.3941 70.4592 48.8924C71.7225 48.0597 75.6524 44.4508 76.7753 43.4792C83.0914 38.76 95.0217 29.183 100.215 24.1862C107.373 17.2463 109.478 9.1959 109.899 0.0351562C108.215 4.89312 103.724 11.0003 98.3902 14.4703C95.162 16.5523 80.9859 27.6562 70.8802 35.1513C67.9328 37.3722 62.1782 41.9525 59.7921 43.7569C56.5639 42.9241 50.3882 41.9525 47.8617 42.3689C43.0895 42.9241 41.1246 46.2552 38.4578 49.864C41.1246 50.6969 43.9318 51.8073 46.8792 53.1951C38.3175 59.1636 23.5799 69.8512 16.9832 74.4315C11.6496 77.9015 4.9125 80.1222 0 79.9834C8.1407 83.1758 15.2989 83.731 24.1414 79.5671C34.3875 74.5703 46.1774 66.3811 56.1428 59.4412C76.4945 70.8227 98.8114 86.507 116.356 81.3714Z" fill="black"/>
</svg>
