<svg width="219" height="155" viewBox="0 0 219 155" fill="none" xmlns="http://www.w3.org/2000/svg">
<path fill-rule="evenodd" clip-rule="evenodd" d="M140.255 78.2839C131.984 86.6765 120.915 91.2986 109.238 91.2986C97.4401 91.2986 86.4323 86.7373 78.1004 78.3447C69.8294 69.952 65.329 58.701 65.329 46.8418C65.329 34.9825 69.8294 23.7315 78.1004 15.3997C86.4931 7.00699 97.44 2.44575 109.117 2.44575C120.915 2.44575 131.984 7.00699 140.255 15.3997C148.526 23.7315 153.148 34.9825 153.148 46.8418C153.148 58.701 148.587 69.952 140.255 78.2839ZM141.289 14.4266C132.714 5.60821 121.402 0.803711 109.238 0.803711C97.0752 0.803711 85.7025 5.66903 77.1274 14.305C68.5522 23.0017 63.8086 34.5568 63.8086 46.8418C63.8086 59.1267 68.4914 70.6818 77.0665 79.3785C85.5808 88.0145 97.136 92.7582 109.178 92.7582C121.341 92.7582 132.714 88.0145 141.289 79.3785C149.925 70.6818 154.668 59.1267 154.668 46.8418C154.668 34.5568 149.925 23.0017 141.289 14.3658" fill="#2C2F2D"/>
<path fill-rule="evenodd" clip-rule="evenodd" d="M81.9805 39.5438H82.2846V37.476H81.9805V39.5438ZM82.6495 40.3344C82.7711 40.3344 82.9536 40.1519 82.9536 39.9695V37.1111C82.9536 36.9287 82.7711 36.7462 82.5887 36.7462H81.494C81.3115 36.7462 81.1291 36.9287 81.1291 37.1111V39.9695C81.1291 40.1519 81.3115 40.3344 81.494 40.3344H82.6495ZM84.4132 39.5438H84.7172V37.476H84.4132V39.5438ZM83.6834 37.1111V39.9695C83.6834 40.1519 83.8658 40.3344 84.0483 40.3344H85.0821C85.2646 40.3344 85.3862 40.1519 85.3862 39.9695V37.1111C85.3862 36.9287 85.2646 36.7462 85.0213 36.7462H83.9266C83.7442 36.7462 83.5617 36.9287 83.5617 37.1111H83.6834ZM81.9805 44.5307H82.2846V42.463H81.9805V44.5307ZM82.6495 45.2605C82.7711 45.2605 82.9536 45.1389 82.9536 44.8956V42.0981C82.9536 41.9156 82.7711 41.7332 82.5887 41.7332H81.494C81.3115 41.7332 81.1291 41.9156 81.1291 42.0981V44.8956C81.1291 45.1389 81.3115 45.2605 81.494 45.2605H82.6495ZM81.9805 49.2744H82.2846V47.2066H81.9805V49.2744ZM82.6495 50.0042C82.7711 50.0042 82.9536 49.8217 82.9536 49.6393V46.8417C82.9536 46.6593 82.7711 46.4768 82.5887 46.4768H81.494C81.3115 46.4768 81.1291 46.6593 81.1291 46.8417V49.6393C81.1291 49.8217 81.3115 50.0042 81.494 50.0042H82.6495ZM84.4132 44.5307H84.7172V42.463H84.4132V44.5307ZM85.0213 41.7332H84.0483C83.8658 41.7332 83.6834 41.9156 83.6834 42.0981V44.8956C83.6834 45.1389 83.8658 45.2605 84.0483 45.2605H85.0821C85.2038 45.2605 85.3862 45.1389 85.3862 44.8956V42.0981C85.3862 41.9156 85.2038 41.7332 85.0213 41.7332ZM86.7242 39.5438H87.0283V37.476H86.785V39.5438H86.7242ZM86.3593 40.3344H87.3932C87.5756 40.3344 87.7581 40.1519 87.7581 39.9695V37.1111C87.7581 36.9287 87.5756 36.7462 87.3932 36.7462H86.3593C86.1768 36.7462 85.9944 36.9287 85.9944 37.1111V39.9695C85.9944 40.1519 86.1768 40.3344 86.3593 40.3344ZM83.9266 32.4282C84.0483 32.4282 84.2307 32.2458 84.2307 32.0633V29.8131C84.2307 29.6307 84.0483 29.4482 83.8658 29.4482C83.6225 29.4482 83.4401 29.6307 83.4401 29.8131V32.0633C83.4401 32.2458 83.6225 32.4282 83.805 32.4282" fill="#2C2F2D"/>
<path fill-rule="evenodd" clip-rule="evenodd" d="M145.351 41.8548C144.926 41.7332 144.621 41.5507 144.439 41.2466C144.317 40.9425 144.257 40.6385 144.317 40.3344C144.317 40.1519 144.317 39.9695 144.135 39.9087C143.892 39.787 143.648 39.9087 143.527 40.0911C143.283 41.1858 142.128 41.9156 140.972 41.5507C140.364 41.3683 139.878 40.9425 139.634 40.5168C139.33 40.0303 139.27 39.4829 139.452 38.9964C139.452 38.814 139.452 38.5707 139.148 38.5099C138.965 38.5099 138.783 38.5099 138.722 38.814C138.479 39.8479 137.263 40.5168 136.107 40.2127C135.499 40.0303 135.073 39.6046 134.769 39.1789C134.526 38.6923 134.465 38.145 134.587 37.6585C134.587 37.5368 134.587 37.2936 134.343 37.2936C134.161 37.2936 133.918 37.2936 133.918 37.5368C133.796 38.145 132.945 38.5707 132.276 38.3883C131.972 38.3883 131.668 38.145 131.363 37.7801C131.12 37.1719 131.059 36.3813 131.363 35.3474L148.21 39.7262C147.419 42.2805 145.534 41.794 145.412 41.794L145.351 41.8548ZM143.952 57.6671C143.831 57.7887 143.77 58.032 143.952 58.1536C146.02 61.1944 145.655 64.2352 142.614 67.8842C142.25 68.3099 142.128 68.7965 142.006 69.2222L141.155 68.1883C145.047 64.5393 144.317 61.0728 144.013 60.0997C143.405 58.1536 141.398 55.7209 140.182 54.4438L145.047 56.9981L144.013 57.7279L143.952 57.6671ZM140.06 70.1953C136.046 72.7495 133.188 72.7495 130.33 70.1953C130.33 70.0736 130.086 70.0736 129.904 70.1953L129.052 71.1075L127.106 65.634C128.201 66.8503 130.512 69.4655 132.154 70.3777C132.945 70.8034 133.979 70.9859 134.891 70.9859H136.229C137.749 70.621 139.27 69.7695 140.608 68.5532L141.641 69.7695C141.033 69.7695 140.547 69.7695 139.999 70.1344L140.06 70.1953ZM130.694 76.2769C129.6 76.2769 128.688 75.7904 128.262 75.243C128.14 75.1214 127.289 74.2091 128.079 73.4185C128.201 73.2969 128.383 73.2361 128.688 73.2361C129.113 73.2361 129.539 73.5402 129.782 73.8442C130.39 74.4524 130.694 75.3646 130.634 76.2769H130.694ZM136.168 75.9728C134.952 77.1891 133.431 77.7973 131.728 77.7973C130.025 77.7973 128.444 77.1891 127.289 75.9728C126.316 75.0606 126.255 73.3577 127.106 72.5063C127.532 72.0806 128.079 71.8981 128.627 71.8981L128.87 72.0197H129.113V71.8981C129.721 72.0197 130.147 72.263 130.512 72.6279C131.485 73.601 132.032 74.9389 131.972 76.2769H131.363C131.485 75.0606 131.12 74.0267 130.33 73.2361C130.025 72.8712 129.356 72.4455 128.748 72.4455C128.262 72.4455 127.897 72.5671 127.532 72.8712C126.62 73.8442 127.289 75.0606 127.775 75.5471C128.505 76.3985 129.782 76.9459 131.303 77.0067H131.668C133.31 77.0067 134.891 76.3985 135.925 75.4863C136.776 74.574 137.384 73.3577 137.628 72.2022L138.357 71.7765C138.175 73.2361 137.506 74.6348 136.35 75.7904L136.168 75.9728ZM125.647 79.6218C125.282 79.5002 125.039 79.2569 124.734 79.0136C124.552 78.7704 124.491 78.223 124.734 77.9189H124.917C125.282 77.9189 125.525 78.0406 125.525 78.223C125.829 78.5879 125.829 79.0744 125.647 79.6218ZM130.512 79.8042C128.688 81.6287 125.829 81.6287 123.822 79.8042C123.457 79.1961 123.214 78.5879 123.336 78.1014C123.336 77.6757 123.64 77.1891 123.944 76.8851C124.37 76.7026 124.795 76.581 125.16 76.7026C125.586 76.7026 126.133 77.0067 126.559 77.6757C126.924 78.4663 126.924 79.1961 126.559 79.9867H126.255C126.498 79.1353 126.498 78.4663 126.133 77.8581C125.951 77.554 125.525 77.25 125.039 77.25C124.674 77.1283 124.43 77.25 124.126 77.4932C123.64 78.1014 123.701 79.0744 124.126 79.561C124.917 80.3516 125.951 80.7773 127.167 80.7773C128.383 80.7773 129.356 80.2908 130.025 79.561C130.33 79.1961 130.512 78.9528 130.634 78.5879H131.424C131.181 79.0744 130.938 79.4393 130.512 79.8042ZM123.336 83.4532C121.085 84.4263 119.079 84.2439 117.497 83.0275C117.376 83.0275 117.254 82.7843 117.193 82.6626V82.541C117.193 82.4193 117.497 82.541 117.558 82.541C118.957 83.3924 120.842 84.1222 123.457 82.8451C124.065 82.4802 124.674 82.1153 125.16 81.6287C125.343 81.6287 125.525 81.6287 125.647 81.7504C125.039 82.4802 124.309 82.9667 123.214 83.4532H123.336ZM132.641 76.2769C132.641 74.6957 132.032 73.2361 130.999 72.1414C130.634 71.7765 130.147 71.5332 129.661 71.3508L130.086 70.925C131.546 72.1414 133.127 72.7495 134.708 72.7495C135.317 72.7495 135.925 72.7495 136.715 72.5063C136.411 73.4185 135.864 74.3308 135.134 74.9389C134.526 75.6687 133.674 76.1553 132.701 76.2769H132.641ZM132.032 68.5532C132.032 68.5532 132.823 69.1614 133.857 69.3438C134.83 69.6479 136.29 69.5871 137.932 68.4924L138.053 68.3708H138.175L138.297 68.0667C138.297 67.8842 138.297 67.7626 138.175 67.7018L131.363 59.7956L131.972 58.8226L139.999 68.0667C137.263 70.621 134.161 70.7426 132.397 69.7087C130.877 68.9181 128.748 66.6679 127.654 65.4516L132.762 67.2761L132.032 67.8842L131.85 68.2491C131.85 68.3708 131.972 68.4924 132.093 68.5532H132.032ZM131.059 60.4038L134.708 64.661C134.465 64.661 134.283 64.5393 134.1 64.4785C133.918 64.4785 133.735 64.4785 133.492 64.3569C132.762 64.1136 132.154 63.9312 131.546 63.2622C130.816 62.4107 130.634 61.4377 131.059 60.4646V60.4038ZM133.492 65.8773C132.276 65.4516 130.451 64.9042 129.843 63.8703C129.052 62.4107 128.627 60.0389 131.363 57.1805C132.58 55.9642 133.979 55.2344 135.256 55.2344C136.472 55.2344 137.202 55.8426 137.567 56.2075C137.992 56.694 138.175 57.3022 138.175 58.032C138.175 59.1267 137.567 60.2214 136.959 60.8295L136.35 60.0997C136.594 59.8565 137.567 59.005 137.567 57.9711C137.567 57.363 137.263 56.9373 136.776 56.5116C135.864 55.5993 134.648 55.7209 133.127 56.8156L131.789 58.1536C130.694 59.2483 129.174 61.4985 131.181 63.6271C131.789 64.5393 132.58 64.7218 133.431 65.0259C133.614 65.0259 133.735 65.0258 133.918 65.1475C135.925 65.7556 136.959 67.3369 137.384 67.945L136.776 68.3099C136.046 67.2152 135.195 66.2422 133.614 65.8773H133.492ZM128.627 56.5116L129.478 55.7818L130.573 56.9981C130.269 57.3022 129.965 57.6062 129.843 57.9103L128.748 56.5116H128.627ZM125.099 58.7009C124.795 58.8834 124.491 58.8226 124.248 58.7009V58.5185C123.944 58.2752 124.005 57.9103 124.248 57.7279L132.58 50.6124L133.005 50.4299C133.127 50.4299 133.31 50.4299 133.431 50.5515V50.734C133.735 50.9773 133.674 51.3422 133.431 51.4638L125.221 58.7618L125.099 58.7009ZM129.356 51.7679H129.965L129.052 52.5585L129.356 51.7679ZM122.059 50.6732C122.059 48.8487 123.518 47.2675 125.403 47.2675C126.924 47.2675 128.201 48.3013 128.627 49.7001H127.714C127.289 48.8487 126.498 48.3013 125.586 48.3013C124.37 48.3013 123.275 49.396 123.275 50.734C123.275 51.9503 124.309 53.045 125.586 53.045C126.498 53.045 127.289 52.4368 127.654 51.8287H128.748C128.262 53.045 127.045 54.0789 125.525 54.0789C123.701 54.0789 122.18 52.5585 122.18 50.6732H122.059ZM125.708 51.7679H126.62C126.376 52.1328 125.89 52.376 125.403 52.376C124.491 52.376 123.761 51.5854 123.761 50.6732C123.761 49.7609 124.491 49.0311 125.403 49.0311C125.89 49.0311 126.376 49.2744 126.62 49.6393H125.89C125.282 49.6393 124.795 50.1258 124.795 50.6732C124.795 51.2813 125.282 51.7679 125.829 51.7679H125.708ZM125.708 51.0381C125.464 51.0381 125.343 50.8556 125.343 50.6732C125.343 50.4907 125.464 50.3691 125.647 50.3691H130.147C130.33 50.3691 130.512 50.3691 130.512 50.6124C130.512 50.7948 130.33 50.9773 130.147 50.9773H125.89L125.708 51.0381ZM132.215 55.4169L131.242 54.2005L133.796 52.0111C134.404 51.5854 134.404 50.7948 133.918 50.1866H133.796C133.614 49.8217 133.188 49.5785 132.884 49.5785C132.58 49.5785 132.276 49.7609 132.032 49.9434L131.303 50.5515C131.303 50.065 130.877 49.6393 130.33 49.6393H129.843L133.796 43.8009L138.54 47.2675V53.045C138.54 53.045 138.418 53.2275 138.54 53.2883L140.243 61.1944C140.243 61.1944 140.364 61.3769 140.486 61.3769C140.608 61.3769 140.729 61.3769 140.851 61.2552L141.641 60.4646L141.885 61.681C141.885 62.8973 141.581 63.9312 140.668 64.965L137.506 61.3161C138.357 60.4038 138.965 59.0658 139.026 57.9103C139.026 56.9981 138.722 56.0858 138.114 55.4777C137.384 54.8695 136.411 54.383 135.317 54.383C134.587 54.383 133.492 54.5654 132.276 55.356L132.215 55.4169ZM130.999 56.4507L129.965 55.2344L130.694 54.6262L131.668 55.8426C131.424 55.9642 131.181 56.2075 130.938 56.4507H130.999ZM135.864 59.4916L133.796 57.0589C134.83 56.4507 135.621 56.4507 136.229 56.9373C136.594 57.2413 136.715 57.5454 136.715 57.8495C136.715 58.5793 136.107 59.2483 135.864 59.4307V59.4916ZM140.547 67.5193L132.58 58.3969L133.37 57.6671L140.486 65.6948C140.486 65.8773 140.608 65.8773 140.729 65.8773H140.972C143.892 62.8365 142.189 59.7956 142.067 59.7956C142.067 59.6132 141.945 59.5524 141.824 59.5524H141.52L140.79 60.2822L139.574 54.6871C140.668 55.9034 142.614 58.336 143.223 60.1605C143.527 61.0728 144.196 64.2352 140.79 67.5801L140.547 67.5193ZM135.681 40.8817L136.472 41.0034C137.202 41.0034 137.871 40.6993 138.418 40.2736L138.297 46.3552L134.039 43.1319L135.56 40.9425L135.681 40.8817ZM128.992 34.8001L130.208 35.165C130.208 35.5907 130.208 36.0164 130.086 36.3813H129.052V34.8609L128.992 34.8001ZM128.383 41.6115C125.647 38.3274 121.45 33.7054 118.166 32.185V28.536L122.423 28.9617C121.45 31.3944 121.572 34.0703 124.674 37.1111C124.674 37.2327 124.795 37.2327 124.917 37.2327H128.323V41.7332L128.383 41.6115ZM125.951 44.0442L120.477 37.9625L120.781 37.2327L126.072 42.7062C126.194 42.8887 126.437 42.9495 126.559 42.7062C126.741 42.7062 126.741 42.4021 126.559 42.2805L120.173 35.5907C119.991 35.4691 119.748 35.4691 119.565 35.5907C119.443 35.7123 119.443 35.9556 119.565 36.0772C120.173 36.6854 120.173 37.1111 119.687 37.7193C119.261 38.3274 118.47 38.3274 117.862 38.0234C117.862 37.9017 117.558 37.9017 117.436 38.0234C117.315 38.2058 117.436 38.4491 117.436 38.6315C117.741 38.814 117.923 39.118 117.923 39.4829C117.923 39.8478 117.923 40.0911 117.619 40.3952C117.132 40.8817 116.403 41.0034 115.794 40.3952H115.369C115.369 40.5776 115.247 40.8209 115.369 41.0034C115.551 41.2466 115.673 41.6115 115.612 41.8548C115.612 42.1589 115.369 42.463 115.004 42.5846C114.517 43.0103 113.787 42.8887 113.362 42.3413C113.24 42.1589 112.997 42.1589 112.875 42.3413C112.693 42.3413 112.632 42.463 112.632 42.5846V42.767C112.936 43.0711 112.997 43.3752 112.936 43.7401C112.936 44.105 112.754 44.3483 112.51 44.5915C111.902 44.9564 111.294 44.8956 110.929 44.4091V41.0642C112.571 41.0642 113.848 40.3344 114.578 39.2397C115.186 38.3883 115.186 37.2327 114.7 36.1989L114.335 35.5907V35.4691C114.092 34.6785 114.213 34.0095 114.578 33.5229C115.186 32.7931 116.22 32.6107 116.767 32.6715C119.991 33.2797 125.708 39.4829 129.721 44.8348C128.931 45.1389 127.167 45.5646 125.829 44.2266L125.951 44.0442ZM121.39 44.1658L118.349 40.6385L118.653 39.7262L122.302 43.5576C122.302 43.5576 122.302 43.6793 122.484 43.6793C122.484 43.6793 122.667 43.6793 122.728 43.5576C122.849 43.436 122.849 43.1928 122.728 43.0711L118.896 38.9356C119.2 38.9356 119.504 38.7532 119.869 38.5099L125.282 44.4091C125.099 44.5915 124.674 44.8348 124.187 45.0172C123.214 45.2605 122.363 45.0172 121.572 44.2874L121.39 44.1658ZM116.828 44.1658C116.524 43.9225 116.038 43.2536 115.734 42.9495C115.977 42.7062 116.159 42.3413 116.22 42.0981L118.045 44.1658L118.288 44.2874H118.47C118.592 44.0442 118.592 43.8617 118.47 43.6793L116.646 41.4899C116.95 41.4899 117.376 41.3683 117.741 41.125L120.781 44.6523L120.903 44.774C120.295 45.1389 118.288 45.9903 116.828 44.1658ZM113.423 44.4699L113.544 43.8617V43.4968C114.152 43.6185 114.639 43.6185 115.125 43.3752L116.22 44.7132C116.22 44.8348 116.403 44.8956 116.524 45.0172C115.916 45.2605 114.456 45.5038 113.483 44.4091L113.423 44.4699ZM108.922 55.1128L107.706 54.6262L107.28 40.6385V40.5168L107.158 38.6923H110.199L109.774 54.7479L108.922 55.1128ZM111.355 54.9303C112.267 54.6262 112.936 54.3222 113.179 54.3222C115.186 53.4707 116.524 52.9842 116.646 51.8895C116.646 51.2813 116.463 50.8556 116.038 50.5515C115.673 50.2475 115.004 50.1866 114.396 50.4299C113.362 50.8556 112.754 50.8556 112.45 50.4299C112.145 50.0042 111.841 49.3352 112.754 48.423C113.605 47.5107 115.186 47.2066 116.707 47.5107C118.653 48.1189 119.747 49.8217 119.322 52.0111C119.018 53.8356 117.923 55.2952 113.544 57.0589L112.754 56.6332L109.895 55.4169L111.355 54.9303ZM119.261 56.9981L118.47 58.2144C118.349 58.3969 118.47 58.5793 118.47 58.7009C118.774 59.005 119.079 59.3091 119.322 59.7348C119.443 59.8565 119.626 59.8565 119.747 59.7348L121.207 59.3091L122.18 61.012L120.964 61.985V62.4107L121.45 63.6271C121.45 63.7487 121.633 63.8703 121.754 63.8703H123.275C123.457 64.4785 123.579 65.0867 123.64 65.8165L122.241 66.303C122.119 66.303 121.998 66.5463 122.059 66.6679V68.1275C122.059 68.2491 122.059 68.4316 122.302 68.4316L123.701 68.9181C123.701 69.5263 123.518 70.1344 123.396 70.8642H122.241C122.119 70.8642 121.937 70.8642 121.876 71.1075L121.45 72.5063V72.932L122.667 73.9051L121.815 75.6079L120.416 74.9997C120.234 74.9997 120.052 74.9997 119.991 75.1822C119.687 75.6687 119.383 76.0944 119.018 76.3985C118.896 76.581 118.896 76.7634 119.018 76.8851L119.747 78.223L118.288 79.4394L117.072 78.4663C117.072 78.4663 116.828 78.3447 116.707 78.4663C116.463 78.6487 115.855 79.0745 115.125 79.3785C115.125 78.7704 115.125 78.3447 114.882 77.8581C118.531 75.7904 120.964 71.8981 120.964 67.5193C120.964 63.2622 118.531 59.2483 114.7 57.1805C116.038 56.694 117.132 56.1467 117.923 55.5385C118.531 55.9034 118.896 56.3291 119.443 56.7548L119.261 56.9981ZM111.963 83.9398C112.328 83.3316 113.058 81.9936 112.997 80.4124C112.997 79.0744 112.389 77.9798 111.051 77.1891L107.827 75.3646L105.395 74.1483C104.057 73.2969 102.354 72.0197 102.232 69.8912C102.232 68.1883 103.023 66.8503 104.847 66.1205C105.638 66.4246 106.672 66.7287 107.645 67.1544C107.645 67.1544 107.827 67.1544 107.888 67.2761C107.706 67.2761 107.584 67.2761 107.402 67.3977L106.672 67.7018C105.273 68.3099 104.847 69.1006 104.847 69.6479C104.726 70.3777 105.273 71.2291 106.185 71.8981L108.375 73.1144L111.416 74.7565C113.24 75.9728 114.335 77.6757 114.274 79.7434C114.274 81.9936 112.814 83.2708 111.963 83.8181V83.9398ZM108.922 86.0075H108.679L108.314 77.1283C108.496 77.1283 108.74 77.0067 108.922 76.8851C109.105 76.8851 109.226 77.0067 109.348 77.1283L108.983 86.0683L108.922 86.0075ZM106.733 77.1891C105.516 77.9189 104.908 79.0136 104.787 80.4124C104.787 81.9936 105.395 83.2708 105.881 83.9398C105.03 83.3316 103.692 82.1153 103.631 79.8651C103.51 77.7973 104.239 76.2161 105.881 75.243L107.402 76.0336L108.132 76.3985C107.949 76.3985 107.827 76.3985 107.706 76.581L106.672 77.1891H106.733ZM101.442 78.6487L100.225 79.6218L99.0091 78.4055L99.6173 77.1891C99.7997 76.9459 99.7389 76.8242 99.6173 76.7026L98.5834 75.3646C98.5834 75.243 98.3401 75.1822 98.1577 75.243L96.6981 75.8512L95.8466 74.1483L97.063 73.1753C97.063 73.1753 97.1846 72.932 97.063 72.7495L96.5764 71.1683C96.5764 70.9859 96.394 70.8642 96.2115 70.8642H94.7519L94.4479 69.0397L95.8466 68.4316C95.9683 68.4316 96.0899 68.2491 96.0899 68.1275V66.5463C96.0899 66.303 96.0899 66.1814 95.8466 66.1205L94.4479 65.634C94.4479 65.0259 94.6303 64.4177 94.8128 63.8095H96.3332C96.5764 63.8095 96.6981 63.6271 96.7589 63.5054C96.8805 63.0189 97.063 62.5324 97.3671 62.1067C97.3671 61.9242 97.3671 61.8026 97.1846 61.681L95.9683 60.7079C96.3332 60.0997 96.6981 59.4916 97.063 59.0658L98.4617 59.5524H98.8875C99.1307 59.0658 99.4956 58.7618 99.7997 58.336C99.9213 58.336 99.9213 58.0928 99.7997 57.9711L99.0699 56.5724H99.1916L100.286 55.5385C101.077 56.1467 102.111 56.7548 103.327 57.1197H103.449L102.719 57.7279C99.4348 59.9781 97.5495 63.5663 97.5495 67.4585C97.5495 71.5332 99.6781 75.3646 103.145 77.4932C102.962 78.1014 102.901 78.5271 102.841 79.0745L101.807 78.4663C101.685 78.3447 101.503 78.3447 101.381 78.4663L101.442 78.6487ZM113.119 74.8173C115.308 73.7226 116.524 72.0806 116.646 70.1953V69.4655H118.045C117.68 72.1414 115.977 74.3308 113.605 75.6687L112.997 75.0606C112.997 75.0606 112.997 74.9389 113.179 74.8781L113.119 74.8173ZM116.767 62.9581C117.376 63.9312 117.862 65.0259 117.984 66.2422H114.639L114.152 65.8165C115.369 65.2083 116.342 64.1136 116.707 62.8973L116.767 62.9581ZM107.402 60.2214V63.0797L106.915 62.8365C106.185 62.5324 105.699 62.0458 105.699 61.6201C105.699 61.012 106.185 60.6471 106.915 60.4038C107.098 60.4038 107.219 60.2822 107.341 60.2214H107.402ZM109.652 63.4446L109.165 63.7487L108.192 63.3838V59.9173L109.165 59.5524C109.409 59.5524 109.652 59.674 109.895 59.7956V63.4446H109.652ZM111.294 60.4038C112.145 60.6471 112.51 61.012 112.51 61.6201C112.51 62.0458 112.145 62.5324 111.476 62.8365C111.172 62.8365 110.868 63.0189 110.625 63.1405V60.0997C110.868 60.0997 111.051 60.2822 111.233 60.343L111.294 60.4038ZM103.692 66.2422H100.773C100.955 65.1475 101.381 64.1136 101.867 63.2014C102.293 64.2961 103.084 65.2083 104.3 65.8165L103.692 66.1814V66.2422ZM101.867 68.6748H100.347C100.347 68.6748 100.165 68.6748 100.104 68.7965L99.9822 69.0397C100.408 71.9589 101.989 74.5132 104.483 75.9728C104.178 76.3377 103.874 76.7026 103.753 77.1891C100.59 75.1822 98.5834 71.594 98.5834 67.8234C98.5834 64.9042 99.7997 62.1067 101.867 60.0997C101.685 60.5863 101.563 61.1944 101.624 61.7418V62.2283C100.834 63.4446 100.286 64.965 100.043 66.4855C100.043 66.4855 100.043 66.6679 100.165 66.7287H102.841C102.476 67.3369 102.232 67.8234 101.989 68.5532L101.867 68.6748ZM104.908 75.3646C102.78 74.1483 101.259 71.9589 100.773 69.4046H101.807V70.1344C101.807 71.9589 103.023 73.601 105.334 74.8173C105.334 74.9389 105.456 74.9997 105.577 74.9997L104.969 75.4863L104.908 75.3646ZM111.963 72.1414C112.997 71.5332 113.483 70.621 113.423 69.8304C113.423 69.2222 112.997 68.4316 111.598 67.8234L108.192 66.6071L105.334 65.3908C103.692 64.7826 102.536 63.323 102.415 61.7418C102.293 60.1605 103.145 58.7009 104.847 57.7887L105.091 57.9103C105.881 58.1536 107.037 58.5185 108.314 59.1267C108.071 59.1267 107.888 59.1267 107.706 59.2483L106.854 59.5524C105.821 60.0389 105.212 60.7687 105.212 61.4985C105.212 62.2891 105.699 63.0189 106.733 63.4446L112.814 65.9989C115.673 67.2152 115.977 69.0397 115.855 70.0736C115.855 72.1414 114.152 73.4793 112.814 74.2091L112.206 74.574L111.963 74.4524L110.017 73.2361L112.024 72.2022L111.963 72.1414ZM110.503 68.6748V68.3099C110.807 68.3099 111.112 68.4924 111.294 68.614H110.443L110.503 68.6748ZM112.45 69.4046C112.571 69.5263 112.693 69.7087 112.693 69.8912C112.693 70.4993 112.328 71.1075 111.659 71.5332C111.476 71.5332 111.051 71.8981 110.443 72.1414V69.4046H112.45ZM108.679 72.4455L108.496 68.0667L109.226 67.7626L109.834 68.0059L109.713 72.5671H109.53L109.287 72.7495C109.165 72.7495 109.105 72.7495 108.983 72.6279L108.679 72.4455ZM105.821 69.8912C105.821 69.7087 105.821 69.5263 106.003 69.4046H107.827V72.0806L106.854 71.4724C106.125 71.0467 105.76 70.4385 105.76 69.8912H105.821ZM107.645 68.3708V68.6748H107.037L107.219 68.5532C107.402 68.5532 107.584 68.4316 107.706 68.3708H107.645ZM114.031 76.2769C116.646 74.7565 118.47 72.0197 118.896 68.9789C118.896 68.9789 118.896 68.8573 118.774 68.7965C118.774 68.6748 118.592 68.6748 118.47 68.6748H116.463C116.281 67.945 115.855 67.4585 115.49 66.8503H118.714V66.4855C118.531 64.661 117.923 63.2622 116.889 61.9242V61.4985C116.889 60.7687 116.707 60.0389 116.281 59.3699C118.714 61.4377 120.173 64.4785 120.173 67.7626C120.173 71.7765 118.045 75.3646 114.7 77.3108L113.97 76.0944L114.031 76.2769ZM99.0091 52.3152C98.5834 49.8826 99.6173 48.0581 101.442 47.5715C102.901 47.1458 104.483 47.5715 105.395 48.4838C106.246 49.396 106.003 50.065 105.699 50.4907C105.395 50.9164 104.726 50.9164 103.753 50.4907C103.145 50.2475 102.536 50.3083 101.928 50.6732C101.624 50.9773 101.442 51.403 101.503 51.8895C101.503 53.1058 102.841 53.5924 104.847 54.3222L106.672 55.052L108.983 55.9642H109.105C110.747 56.5724 112.389 57.1805 112.754 57.4238L113.544 57.7887C115.247 58.7009 116.159 60.0997 116.159 61.6201C116.159 63.2622 115.125 64.661 113.362 65.4516H113.119C112.328 65.0258 111.294 64.5393 110.078 64.1136L111.72 63.5054C112.693 63.0797 113.301 62.2891 113.301 61.5593C113.301 60.7687 112.693 60.0997 111.598 59.7348L105.212 57.1805L103.996 56.7548C100.955 55.5385 99.374 54.2005 99.0091 52.1936V52.3152ZM92.1368 53.8356C91.1638 53.2275 90.4948 51.8287 90.4948 50.6124C90.4948 49.5785 90.9813 48.7879 91.7111 48.3013C92.5626 47.6932 93.9005 47.8148 94.9344 48.9095L94.1438 49.5177C93.5356 49.0919 92.9275 49.0311 92.3193 49.396C91.8328 49.7609 91.5895 50.3083 91.5895 50.9164C91.5895 51.7071 92.076 52.4977 92.8058 52.9842C93.5356 53.4099 94.2046 53.5924 94.8736 53.5924C95.725 53.5924 96.6981 53.2883 97.4279 52.8626L98.2793 52.2544V52.4977C98.2793 52.8018 98.4009 53.1058 98.5226 53.3491C97.063 54.4438 94.2654 55.2952 92.1368 53.9573V53.8356ZM93.0491 60.2214C90.9205 61.6201 87.2107 62.5324 84.2915 61.012C83.0752 60.4038 82.1629 59.1875 81.8589 57.6062C81.4332 56.0858 81.6156 54.5654 82.3454 53.4707C82.6495 52.8626 83.5617 51.4638 86.4201 51.7679C87.2715 51.7679 88.3662 52.376 89.2176 53.1666L88.427 53.7748C87.5756 53.1666 86.7242 52.8018 85.7511 52.8626C84.5348 52.8626 82.8319 53.8356 82.7103 55.7818C82.7103 58.5793 84.5348 60.2822 86.3593 60.6471H88.1838C90.6164 60.6471 92.4409 59.9173 93.7789 58.2144C94.6303 57.3022 94.9952 56.2075 94.9952 55.1736C95.4209 55.1736 95.7858 55.1736 96.2115 55.052C95.7858 57.2413 94.6911 59.005 93.1707 60.0997L93.0491 60.2214ZM84.3523 67.3977L83.7442 67.641L83.136 66.8503L84.1091 66.3638C84.2307 66.3638 84.2915 66.3638 84.4132 66.2422C85.9336 65.634 88.6703 64.661 90.0083 62.2283L91.2246 61.8026C90.0083 65.0867 86.5417 66.4854 84.3523 67.2761V67.3977ZM85.2646 71.5332C82.2238 69.1006 78.7572 68.3708 77.9666 68.2491L77.3584 67.2152L77.1152 66.972L72.4931 59.7956L75.8988 57.363L85.3862 71.4724L85.2646 71.594V71.5332ZM85.5687 72.1414C85.2646 73.1144 85.143 74.0875 85.2038 75.1822C84.4132 74.9997 83.6225 74.6957 83.0144 74.27C81.9197 73.5402 81.4332 72.4455 81.5548 71.3508C81.5548 70.9859 81.7372 70.621 81.9197 70.3169C82.9536 70.8034 84.0482 71.5332 85.0821 72.3238H85.5687V72.1414ZM88.6095 71.3508C89.2176 70.7426 89.8258 70.3777 90.434 70.3777C90.6772 70.3777 90.8597 70.3777 91.0421 70.5602C91.2246 70.6818 91.407 70.9859 91.4678 71.4724C91.5895 72.0806 91.3462 72.6887 90.9813 73.1753C90.0083 74.27 88.7919 74.9997 87.454 75.1214C87.454 74.0267 87.5756 72.5063 88.6703 71.3508H88.6095ZM87.7581 69.952C88.7311 68.9181 90.7989 68.1275 92.1977 69.3438C93.1099 70.2561 93.414 72.7495 92.1977 74.2091C90.6772 76.0336 88.3662 77.0067 85.9944 76.9459C84.3523 76.9459 82.8319 76.4593 81.7372 75.5471C80.156 74.3308 79.4262 72.6887 79.6695 71.0467C79.6695 70.5602 79.9127 70.0736 80.156 69.5871L81.1899 69.952C81.0074 70.3777 80.825 70.8034 80.7642 71.1683C80.5817 72.5671 81.1899 73.9051 82.5887 74.8173C83.5009 75.5471 84.8389 76.0336 86.2376 76.0336C88.1838 76.0336 90.1299 75.243 91.4678 73.601C92.076 72.9928 92.3193 72.2022 92.1977 71.3508C92.1977 70.7426 91.8327 70.1344 91.4678 69.952C90.4948 69.3438 89.2785 69.6479 88.1838 70.8034C86.8458 72.2022 86.6634 73.9659 86.785 75.243H85.9336C85.8119 72.9928 86.5417 70.9859 87.7581 69.952ZM93.4748 78.2838C93.5964 78.1014 93.7789 77.9798 93.9005 77.9798C94.083 77.9798 94.2046 77.9798 94.2654 78.1014C94.5087 78.4055 94.387 78.7095 94.2654 78.892C94.0221 79.1961 93.6572 79.3785 93.2315 79.5002C93.2315 79.0744 93.2315 78.5879 93.4748 78.2838ZM88.3662 79.3177C89.1568 80.1083 90.3732 80.534 91.6503 80.534C92.9883 80.534 94.083 80.1083 94.8128 79.3177C95.1168 78.9528 95.2385 78.223 94.8128 77.6149C94.5087 77.3716 94.2046 77.1891 93.7789 77.25C93.414 77.25 93.0491 77.4932 92.8058 77.8581C92.5626 78.3447 92.4409 79.0745 92.5017 79.6826L92.0152 79.8651C91.8936 79.0744 91.8936 78.3447 92.3193 77.6149C92.6234 77.0067 93.1707 76.7026 93.5356 76.581C93.9613 76.4593 94.4479 76.581 94.7519 76.7634C95.1168 77.0067 95.4817 77.3716 95.5426 77.9798C95.5426 78.5879 95.4209 79.1961 94.9344 79.6218C94.1438 80.5949 92.8058 81.1422 91.407 81.203C89.8866 81.203 88.4878 80.7165 87.5148 79.8042C87.1499 79.3177 86.6634 78.4663 86.2985 77.6149H87.2715C87.5148 78.223 87.8797 78.8312 88.3054 79.2569L88.3662 79.3177ZM94.6303 82.9667C96.7589 83.879 98.705 83.8181 100.53 82.6626V82.541C100.53 82.541 100.955 82.2369 101.138 82.4194V82.6018C101.138 82.6018 101.138 82.7234 100.955 82.7843C98.8875 84.0006 96.8197 84.2439 94.8736 83.3924C94.0221 83.0275 93.2924 82.4193 92.8058 81.6896C92.9275 81.6896 93.1099 81.6896 93.2315 81.5679C93.5964 82.1761 94.083 82.4802 94.6303 82.7843V82.9667ZM75.1691 68.0059L73.3446 65.1475L74.5609 64.4177L76.3854 67.2761L75.1691 68.0667V68.0059ZM81.2507 64.1136L84.474 61.8634C85.5078 62.3499 86.6025 62.4716 87.6972 62.4716H88.9136C87.6972 64.2961 85.3862 65.1475 84.0482 65.634H83.805L82.5887 66.2422L81.1899 64.0528L81.2507 64.1136ZM81.7372 59.3699C82.2238 60.2822 82.9536 61.012 83.7442 61.4985L80.9466 63.5663L79.3654 61.1336L81.798 59.4307L81.7372 59.3699ZM83.5617 55.9034C83.5617 54.2005 85.0213 53.5924 85.6903 53.5924C86.2985 53.5924 87.0283 53.714 87.6972 54.2005L83.5617 57.0589L83.4401 55.8426L83.5617 55.9034ZM86.1768 59.7956C85.2646 59.5524 84.3523 58.8226 83.8658 57.7887L90.5556 53.1666C90.7989 53.6532 91.1638 54.0789 91.7719 54.383C92.1976 54.7479 92.6842 54.9911 93.2315 55.1128L86.116 59.8565L86.1768 59.7956ZM92.4409 58.5793C92.4409 57.9711 92.3193 57.363 92.1368 56.7548L94.3262 55.2344C94.3262 56.025 94.0221 56.9373 93.2923 57.7887L92.5017 58.5185L92.4409 58.5793ZM90.6164 57.6062L91.5287 57.1197C91.6503 57.7279 91.7719 58.336 91.7719 59.0658C91.407 59.2483 91.1638 59.4307 90.7381 59.5524V59.1267C90.7381 58.6401 90.7381 58.1536 90.6164 57.6062ZM90.0083 58.0928C90.1299 58.3969 90.1299 58.7009 90.1299 59.1267V59.7348C89.2176 59.9781 88.3054 60.0389 87.2107 59.9173L90.0691 58.0928H90.0083ZM79.9735 34.1919L82.4062 32.5499L82.5278 32.2458V29.0225L83.9266 27.6237L85.2646 29.0225V32.2458L85.5079 32.5499L94.1438 36.5029C90.9813 39.6654 88.0621 43.5577 87.2107 44.7132C87.0891 44.7132 87.0891 44.8956 87.0891 45.0172L87.2715 45.2605C87.2715 45.2605 88.3662 45.8687 89.7042 45.8687C90.4948 45.8687 91.3462 45.5646 92.1368 44.9564C92.745 45.3213 93.5964 45.747 94.5695 45.747C95.1777 45.747 95.6642 45.6254 96.2115 45.3213C96.394 45.3213 97.4279 46.0511 98.7658 46.0511L95.5426 48.4838C94.3262 47.0242 92.5017 46.9026 91.407 47.5715C90.434 48.1797 89.8866 49.2744 89.8258 50.4907C89.8258 51.2205 90.0083 51.9503 90.2515 52.5585L89.8258 52.8018C88.7919 51.8287 87.5756 51.2205 86.5417 51.0989C85.7511 50.9773 83.3185 50.734 81.798 53.045C80.9466 54.2613 80.7033 56.0858 81.1899 57.7887C81.1899 58.0928 81.3723 58.3969 81.494 58.7009L79.9735 59.7348V34.1919ZM77.845 35.7123L79.2438 34.7393V38.9356L77.845 39.2397V35.7123ZM76.0205 29.4482H77.1152V39.3613L75.4123 39.787L76.0205 29.4482ZM76.6286 27.1372L77.845 25.9209C78.4531 25.3127 78.4531 24.5221 78.4531 24.0964V23.8531C78.4531 23.245 78.6964 22.7584 79.3654 22.3935C80.0952 21.7854 81.3115 21.1772 81.6764 20.8123C82.7103 20.0825 82.8927 19.2311 82.8927 18.3796C82.8927 17.4674 82.8927 16.6768 83.9266 16.4335C84.778 16.2511 85.3254 15.8254 85.6295 15.2172C86.0552 14.609 86.2376 14.4266 86.9674 14.2441C86.9674 14.609 86.9674 15.0956 86.8458 15.5821C86.8458 16.3727 86.2376 17.0417 85.3254 17.5282C84.2915 18.0147 83.9874 18.258 83.9266 19.6568V22.5152C83.805 23.0017 83.6225 23.3058 82.7103 23.4274C82.1021 23.549 81.494 23.9139 81.0074 24.1572C80.3993 24.5221 80.156 25.1911 80.156 25.7384V27.0764C80.156 27.6846 79.3046 27.9886 78.6356 27.9886C77.845 27.9886 77.4193 28.4144 77.2368 28.7793H76.0205C76.0205 28.4144 76.1421 27.6846 76.6286 27.198V27.1372ZM89.096 15.4605H90.4948V34.0703L88.4879 33.0972L89.096 15.4605ZM89.7042 13.0278C89.8258 12.7845 90.1299 12.6629 90.434 12.6629H92.076C93.0491 12.5413 93.4748 11.8723 93.9005 11.2641C94.083 10.7776 94.7519 10.7776 95.2993 10.96C95.4209 10.96 95.4817 10.96 95.6034 11.0817C96.2115 11.2641 96.5156 11.3858 96.8197 11.3858C97.2454 11.3858 97.6103 11.2033 97.7928 10.8992C97.9144 10.7776 98.036 10.4735 97.9144 10.0478L97.7928 9.6829C97.6103 9.19636 97.4887 8.9531 97.7928 8.46657C98.4009 7.98004 99.4956 8.10167 100.225 8.28412C100.955 8.28412 102.962 8.5882 103.996 7.98004L104.422 7.73677C105.03 7.43269 105.395 7.12861 106.672 7.73677C108.375 8.34493 110.443 8.34493 111.72 8.34493C111.537 8.5882 111.112 8.9531 110.503 9.19636C108.557 9.80453 107.219 9.80453 105.334 9.80453H102.476C101.989 9.80453 101.563 9.98698 101.259 10.2911C101.138 10.5343 101.016 10.8992 101.077 11.2641C101.077 11.4466 101.077 11.7507 100.955 11.9939C100.773 12.1764 100.469 12.1764 100.225 12.1764H97.7928C97.1846 12.1764 96.394 12.1764 95.9683 12.7845V13.0886C95.7858 13.4535 95.6642 13.6968 94.7519 13.6968H94.0221L93.1707 13.5751H91.6503C91.3462 13.5751 91.0421 13.6968 90.8597 13.8792C90.6772 14.1225 90.6164 14.4874 90.5556 14.6698H89.0352C89.0352 14.1833 89.1568 13.4535 89.6434 12.8454L89.7042 13.0278ZM92.9883 24.7046H95.9075V25.9209C95.9075 26.0425 96.0899 26.225 96.2724 26.225H97.9144V27.3805H97.3062C97.1846 27.3805 97.0022 27.5629 97.0022 27.7454V33.9487L96.5764 34.3136V29.205C96.5764 29.0833 96.394 28.9009 96.2115 28.9009H93.7789C93.5356 28.9009 93.3532 29.0833 93.3532 29.2658V35.3474L92.9883 35.2258V24.7046ZM100.347 17.6498V32.0025C99.7389 32.1242 99.1307 32.4282 98.5226 32.7931V17.6498H100.347ZM104.969 26.3466C105.152 26.3466 105.334 26.1642 105.334 25.9817V23.7315H106.733V36.3813C106.307 36.8678 106.125 37.476 106.003 38.2058H105.212V27.6846C105.212 27.5021 105.091 27.3197 104.908 27.3197H101.259V26.2858H105.091L104.969 26.3466ZM106.794 40.3344C106.185 40.3344 105.577 40.2127 105.152 39.9695V38.9356H106.733V40.3344H106.794ZM96.8197 44.774L99.8605 41.2466C100.165 41.4899 100.59 41.6115 101.077 41.6115L99.1307 43.8009V44.4091H99.4348C99.5564 44.4091 99.6781 44.4091 99.7389 44.2874L101.563 42.2197C101.563 42.5238 101.746 42.8279 101.989 43.0711L100.955 44.2874C99.4348 46.1119 97.5495 45.2605 96.8197 44.8956L96.9413 44.774H96.8197ZM97.7319 38.6923C97.9752 38.8748 98.3401 38.9964 98.6442 39.0572L94.8128 43.1928C94.6911 43.3144 94.6911 43.5577 94.8128 43.6793L95.056 43.8009C95.1777 43.8009 95.2385 43.8009 95.3601 43.6793L99.0091 39.8478C99.0091 40.1519 99.1307 40.456 99.3132 40.7601L96.2724 44.2874C94.8128 45.8079 93.1099 44.8956 92.6234 44.4091L97.7319 38.6315V38.6923ZM102.415 43.5576C102.901 43.7401 103.388 43.7401 103.874 43.5576C103.874 43.7401 103.874 43.8617 103.996 43.9834C103.996 44.2266 104.118 44.4091 104.178 44.5915C103.205 45.6254 101.746 45.3821 101.016 45.1997L101.32 44.8348C101.624 44.4699 102.232 43.7401 102.536 43.4968L102.415 43.5576ZM102.415 32.185C101.989 31.9417 101.503 31.8201 101.016 31.8201V28.0495H102.476V32.2458L102.415 32.185ZM104.361 39.4829C104.057 39.3005 103.753 39.0572 103.631 38.8748C103.205 38.0842 103.145 37.2327 103.51 36.4421C104.361 34.6176 103.935 33.5838 103.51 32.9756L103.145 32.6107V28.0495H104.361V39.6046V39.4829ZM97.6711 33.2189L97.4887 33.3405V27.9886H97.7319V33.158L97.6711 33.2189ZM97.3062 34.4352L97.4279 34.3136C98.6442 33.3405 99.8605 32.7323 100.712 32.4891C101.32 32.4891 102.354 32.6715 102.901 33.4621C103.388 34.0703 103.388 35.1042 102.901 36.1989C102.415 37.2327 102.476 38.3274 103.023 39.2397C103.753 40.3344 105.03 41.0642 106.672 41.0642V44.5307C106.246 45.1389 105.577 44.9564 105.03 44.6523C104.847 44.4699 104.665 44.1658 104.604 43.8617C104.604 43.5576 104.604 43.2536 104.847 42.9495V42.463C104.604 42.3413 104.361 42.3413 104.239 42.463C103.874 43.0711 103.023 43.1928 102.536 42.767C102.172 42.5846 101.928 42.3413 101.928 41.9764C101.928 41.6115 101.928 41.3683 102.172 41.0034C102.293 40.8817 102.172 40.6385 102.172 40.5168C101.989 40.3952 101.807 40.3952 101.563 40.5168C101.138 41.0034 100.347 40.9425 99.8605 40.5168C99.6781 40.2127 99.5564 39.9087 99.5564 39.6046C99.5564 39.3005 99.7997 38.9964 100.043 38.7532C100.225 38.6315 100.225 38.3883 100.043 38.2666C100.043 38.0842 99.7389 38.0842 99.6173 38.2666C99.1307 38.5707 98.4009 38.4491 97.9144 37.9017C97.4887 37.2936 97.4887 36.8678 97.9144 36.3813V36.2597C98.1577 36.138 98.1577 35.8948 97.9144 35.7731C97.9144 35.6515 97.6103 35.6515 97.4887 35.7731L97.3671 35.8948L91.2246 42.3413C91.0421 42.463 91.0421 42.7062 91.2246 42.8279C91.2246 43.0103 91.5287 42.9495 91.6503 42.8279L97.0022 37.3544C97.0022 37.5368 97.1846 37.7801 97.3671 38.0842L91.8936 44.1658C90.6772 45.3821 88.8528 45.0172 88.0621 44.774C90.9205 40.9425 94.5087 36.7462 97.6103 34.4352H97.3062ZM94.6911 34.6785L95.1777 35.2866L94.5695 35.8948L94.083 35.7731L94.6911 34.7393V34.6785ZM94.8128 30.2997L94.387 29.6915H95.2385L94.7519 30.2997H94.8128ZM95.2385 30.9078L95.6034 30.2997V31.516L95.1777 30.9078H95.2385ZM95.6034 33.3405V34.8001L95.1168 34.1919L95.6034 33.4013V33.3405ZM94.083 32.5499L94.8128 31.5768L95.4209 32.4282L94.8128 33.4013L94.2046 32.4891L94.083 32.5499ZM93.9005 33.5229L94.3262 34.1311L93.9005 34.7393V33.5229ZM94.387 30.9686L93.9005 31.5768V30.3605L94.387 30.9686ZM92.076 50.9164C92.076 50.5515 92.1977 50.3083 92.5017 50.065C92.745 49.8826 93.1099 49.9434 93.2923 50.065L92.076 51.0381V50.9164ZM105.821 48.0581C104.787 46.8417 102.962 46.416 101.198 46.8417C99.2524 47.4499 98.1577 49.1528 98.1577 51.403L97.2454 52.0111C96.1507 52.7409 94.4479 53.2275 93.1707 52.376C92.8666 52.2544 92.5626 52.0111 92.4409 51.7679L100.53 45.6862C101.016 45.9295 101.746 46.1119 102.354 46.1119C103.205 46.1119 104.178 45.8687 104.787 45.1997L104.908 45.3213C105.334 45.5646 105.76 45.747 106.125 45.747C106.49 45.747 106.733 45.747 106.976 45.6254L107.219 54.6262C107.098 54.6262 106.976 54.6262 106.915 54.5046C106.003 54.2005 105.334 53.8964 105.091 53.8964C103.145 53.1058 102.172 52.6801 102.05 51.9503C102.05 51.7071 102.05 51.5246 102.293 51.3422C102.597 51.1597 102.901 51.1597 103.327 51.3422C104.726 51.9503 105.76 51.7679 106.185 51.0381C106.794 50.065 106.794 49.0919 105.821 48.1189V48.0581ZM106.854 38.145C106.854 37.0503 107.827 36.1989 108.922 36.1989C110.139 36.1989 110.99 37.0503 111.051 38.145H106.854ZM110.564 33.158C109.956 31.6376 110.382 29.8131 111.355 28.4752L113.97 35.7731C113.97 35.7731 113.97 35.9556 114.092 36.0772C112.267 35.6515 111.051 34.6176 110.625 33.158H110.564ZM114.821 23.4274C114.821 23.9139 114.335 24.3397 113.727 24.3397C113.119 24.3397 112.693 23.9139 112.51 23.3666H114.943L114.821 23.4274ZM115.43 18.3188C115.855 19.1703 116.646 19.8392 117.619 19.9609V22.6976H113.544L115.369 18.4405L115.43 18.3188ZM117.619 16.9809H116.038L117.619 13.3319V16.9809ZM113.97 9.98698V7.79759L117.619 8.52738V10.5951L113.97 9.98698ZM120.052 23.3666C120.052 24.5829 119.018 25.3127 117.923 25.3127C116.707 25.3127 115.794 24.5221 115.734 23.4882H119.991L120.052 23.3666ZM123.275 23.3666C123.153 23.9748 122.667 24.4005 122.059 24.4005C121.45 24.4005 121.025 23.9748 120.842 23.4274H123.275V23.3666ZM118.41 19.9609C119.322 19.8392 120.234 19.1703 120.538 18.3188L122.363 22.6976H118.349V19.9609H118.41ZM119.991 17.7107C119.808 18.5621 118.896 19.2311 117.984 19.2311C117.072 19.2311 116.159 18.6229 115.977 17.7107H119.991ZM118.288 13.0886L118.47 13.4535L119.991 16.9809H118.288V13.0886ZM111.902 27.3805L112.875 24.8262C113.119 24.9478 113.483 25.0695 113.727 25.0695C114.335 25.0695 114.943 24.7654 115.247 24.2788C115.673 25.1303 116.585 25.7992 117.68 25.9209V27.7454L111.902 27.3805ZM117.132 31.9417C116.22 31.7593 114.943 32.1242 114.213 33.0364C114.213 33.2189 114.031 33.4013 113.909 33.6446L112.085 28.1711L117.558 28.5968V32.0633L117.132 31.9417ZM121.511 16.4335C122.241 16.7376 123.032 16.9201 123.822 16.9201C124.613 16.9201 125.464 16.7376 126.376 16.4335L125.586 18.8662V19.1703C125.586 20.265 126.194 21.2988 127.289 21.7854L124.248 26.0425H121.694C121.572 26.0425 121.39 26.2858 121.39 26.4682C121.39 26.7115 121.572 26.8331 121.754 26.8331H123.944L123.032 28.4144L118.531 27.9886V25.9817C119.504 25.7993 120.356 25.1911 120.721 24.2788C121.085 24.7046 121.633 25.0086 122.241 25.0086C123.275 25.0086 124.065 24.2788 124.065 23.3058H126.012C126.133 23.3058 126.255 23.1841 126.255 22.9409C126.255 22.7584 126.133 22.576 125.951 22.576H123.214L120.173 15.5213L121.633 16.4335H121.511ZM123.761 12.298C123.032 12.1156 122.849 12.0547 122.788 11.5074C122.667 10.2911 122.18 9.98698 121.572 9.6829C120.356 9.318 119.93 8.46657 119.747 7.98004L122.971 8.77065C123.579 8.9531 123.883 9.25718 123.944 9.80453C123.944 10.656 124.552 11.2033 125.768 11.3858L127.836 11.8115L127.228 13.8792C126.498 12.8454 124.917 12.4805 123.579 12.1764L123.761 12.298ZM131.059 18.8054H129.113V13.3927L131.12 18.6837L131.059 18.8054ZM128.383 12.8454V18.8662H126.376L128.323 12.7845L128.383 12.8454ZM128.748 21.3596C127.532 21.3596 126.559 20.5082 126.316 19.5352H131.181C131.059 20.5082 129.965 21.3596 128.748 21.3596ZM128.566 28.1711V36.5029H125.768L128.566 28.2319V28.1711ZM128.566 26.0425H125.221L128.079 21.907H128.566V26.0425ZM124.674 26.7723H128.323L125.039 36.2597C121.633 32.854 122.484 29.9956 124.674 26.7723ZM137.263 26.7723C135.742 28.5968 135.073 30.5429 135.195 32.5499L130.938 34.6785L129.235 34.1919V26.8939H137.263V26.7723ZM137.263 24.7654C136.837 24.4613 136.229 23.6707 136.168 22.9409C136.168 21.8462 135.742 20.9948 135.195 20.5082C133.553 19.1703 133.188 16.9809 133.066 15.7645C133.674 16.3727 134.526 17.3458 135.499 18.1972C136.107 18.8054 136.715 19.5352 136.715 20.0217V20.6299C136.715 21.6029 136.715 22.0894 137.445 22.7584C137.932 23.245 138.418 23.6707 138.661 23.7923V26.1642L137.871 25.4344L137.019 24.8262L137.263 24.7654ZM141.52 32.6715L139.452 30.847V26.1642L141.459 32.6715H141.52ZM139.452 31.8201L141.885 34.0703L142.979 37.7193L139.513 36.8678V31.8201H139.452ZM138.236 26.7115C138.601 27.0764 138.844 27.5629 138.844 28.536V30.7254L135.803 32.1242C135.803 30.1172 136.654 28.2927 138.236 26.6507V26.7115ZM136.229 35.8948L132.154 34.8001L135.438 33.2189C135.56 34.0703 135.864 35.0434 136.29 35.8948H136.229ZM137.141 36.0772C136.533 34.9825 136.168 33.8878 136.046 32.854L138.905 31.4552V36.5029L137.08 36.0164L137.141 36.0772ZM147.115 38.6923L143.952 37.8409L143.04 34.8001L147.115 38.6923ZM149.791 39.3005L148.574 39.0572L142.675 33.5838L139.634 23.6707V20.9339C139.634 20.7515 139.513 20.569 139.33 20.569C139.087 20.569 138.965 20.6907 138.965 20.8731V22.8192L138.236 22.2111C137.749 21.7246 137.749 21.4813 137.749 20.5082V19.9001C137.749 18.8662 136.411 17.6498 136.29 17.4674C134.769 16.2511 133.249 14.4266 133.249 14.4266C133.127 14.2441 132.945 14.1833 132.823 14.2441C132.823 14.2441 132.641 14.4266 132.641 14.5482C132.641 14.7307 132.397 18.6837 135.073 20.8731C135.438 21.1772 135.681 21.907 135.681 22.6976C135.681 23.7315 136.472 24.7046 136.898 25.1303C137.263 25.4344 137.506 25.7384 137.81 25.8601H129.478V21.907C130.999 21.6637 132.154 20.3866 132.154 18.9878V18.6229L129.296 11.3249V9.25718C129.296 9.07473 129.113 8.9531 128.931 8.9531C128.688 8.9531 128.566 9.13555 128.566 9.318V11.0209L126.316 10.5951C125.099 10.3519 124.978 9.80453 124.978 9.62208C124.978 8.83147 124.37 8.2233 123.518 8.04085C121.572 7.43269 119.747 7.06779 119.687 7.06779H119.383L119.261 7.43269C119.261 7.43269 119.504 9.56126 121.694 10.3519C122.18 10.5343 122.302 10.656 122.302 11.3858C122.423 12.4805 123.153 12.6021 123.883 12.8454C125.099 13.0886 126.62 13.4535 127.045 14.2441C127.167 14.4874 127.167 14.8523 127.045 15.1564V15.3996C125.221 16.1294 123.518 16.1903 122.18 15.5821C120.721 14.8523 119.869 13.636 119.443 12.7845L118.531 10.96V6.09473C118.531 5.91228 118.41 5.72983 118.227 5.72983C117.984 5.72983 117.862 5.91228 117.862 6.09473V7.55432L114.031 6.82452H113.787C113.666 6.94616 113.666 7.06779 113.666 7.18942V10.1086C113.666 10.2911 113.787 10.4127 113.909 10.4735L117.923 11.2033L113.058 22.5152H110.017C109.834 22.5152 109.652 22.6976 109.652 22.8801C109.652 23.1233 109.834 23.245 110.017 23.245H112.145C112.145 23.6099 112.267 23.9748 112.51 24.218L111.476 27.2588L110.017 27.0764C109.834 27.0764 109.652 27.198 109.652 27.3805C109.652 27.5629 109.774 27.7454 109.956 27.7454L110.99 27.867C109.774 29.4482 109.47 31.516 110.078 33.3405C110.686 35.165 112.267 36.3813 114.517 36.7462C114.761 37.476 114.7 38.145 114.274 38.7532C113.666 39.5438 112.693 40.0911 111.416 40.1519V38.9356H112.51C112.693 38.9356 112.875 38.6923 112.875 38.5099C112.875 38.2666 112.693 38.145 112.51 38.145H111.902C111.781 36.6246 110.564 35.4691 109.044 35.4691C108.618 35.4691 108.132 35.5907 107.827 35.834V23.3058C107.827 23.0625 107.584 22.9409 107.402 22.9409H105.273C105.03 22.9409 104.908 23.0625 104.908 23.3058V25.556H101.381V17.3458C101.381 17.1025 101.198 16.9809 101.016 16.9809H98.5834C98.2793 16.9809 98.1577 17.1025 98.1577 17.3458V25.556H96.9413V24.3397C96.9413 24.1572 96.8197 24.0356 96.5764 24.0356H92.9275C92.6842 24.0356 92.5017 24.1572 92.5017 24.4005V34.9217L91.4678 34.4352V15.0347C91.4678 14.9131 91.4679 14.6698 91.6503 14.4266H94.8736C96.0899 14.5482 96.4548 14.0617 96.6981 13.5143L96.8197 13.3319C96.9413 13.0278 97.4279 13.0278 97.8536 13.0278H100.286C100.894 13.0278 101.32 12.9062 101.624 12.6021C101.928 12.1156 101.867 11.5074 101.867 11.2641V10.96C102.05 10.7776 102.293 10.7168 102.476 10.656H105.395C107.219 10.656 108.74 10.656 110.747 10.0478C112.571 9.43963 112.693 8.2233 112.693 8.2233V7.8584C112.51 7.67595 112.45 7.67595 112.328 7.67595C111.112 7.67595 108.861 7.8584 107.037 7.06779C105.212 6.45963 104.604 6.88534 103.996 7.31106C103.996 7.43269 103.753 7.55432 103.631 7.61514C102.901 7.98004 101.198 7.91922 100.408 7.73677C99.5564 7.55432 98.2185 7.37187 97.3671 8.2233C96.7589 8.9531 97.0022 9.62208 97.1846 10.1694V10.4127C97.3062 10.5951 97.3062 10.656 97.1846 10.7168C97.1846 10.7168 97.1846 10.8384 96.9413 10.8384C96.6981 10.8384 96.3332 10.7168 95.9075 10.5343H95.6034C94.6911 10.1086 93.7789 10.4127 93.3532 11.1425C92.9275 11.7507 92.745 12.0547 92.2585 12.0547H90.5556C89.9474 12.0547 89.5825 12.2372 89.2176 12.6629C88.427 13.4535 88.4879 15.0956 88.4879 15.2172L87.8797 32.854L86.0552 31.9417V29.8131L87.0891 30.7254C87.2107 30.847 87.454 30.847 87.5756 30.7254C87.6972 30.5429 87.6972 30.2997 87.5756 30.1172L84.2915 26.8331H83.805L80.4601 30.2997C80.3384 30.4213 80.3384 30.6646 80.4601 30.7862L80.7642 30.9078C80.7642 30.9078 80.9466 30.9078 81.0074 30.7862L81.9197 29.8131V32.1242L79.487 33.7662L77.9666 34.8609V29.205C77.9666 29.205 77.9666 28.7184 78.7572 28.7184C80.0952 28.7184 80.9466 28.1103 80.9466 27.0764V25.7384C80.9466 25.4344 81.0682 25.0086 81.4331 24.7654C81.798 24.5829 82.3454 24.2788 82.8927 24.1572C83.6225 24.0356 84.5956 23.7315 84.7172 22.5152V19.8392C84.7172 18.8054 84.7172 18.7445 85.6903 18.3188C87.2107 17.589 87.5148 16.4943 87.6364 15.7645L87.7581 13.94C87.7581 13.94 87.7581 13.8184 87.6364 13.7576C87.5148 13.636 87.3932 13.636 87.3323 13.636C86.116 13.8792 85.7511 14.0009 85.0821 15.0956C84.8389 15.5213 84.474 15.7037 83.8658 15.8862C82.1629 16.3119 82.1629 17.8323 82.1629 18.5621C82.1629 19.3527 82.0413 19.9001 81.3723 20.3866L78.9397 21.907C78.1491 22.3327 77.7233 23.0017 77.7233 23.9139V24.0964C77.7233 24.5221 77.7233 25.0695 77.4801 25.3127L76.2637 26.7115C75.2907 27.5021 75.3515 28.9009 75.3515 29.1442L74.7433 39.9695L71.0944 40.8817C70.9119 40.8817 70.7903 41.125 70.8511 41.3683C70.8511 41.5507 71.0335 41.6723 71.216 41.6723L75.1691 40.6993L79.3046 39.6046V60.2214L78.9397 60.4646L76.3854 56.6332C76.2637 56.6332 76.0205 56.5116 75.8988 56.6332L71.8241 59.3699C71.7025 59.4916 71.6417 59.7348 71.8241 59.8565L74.2568 63.8095L72.7364 64.8434C72.5539 64.8434 72.5539 65.1475 72.6148 65.3299L74.865 68.7965L75.1082 68.9789H75.4123L76.8111 67.8842L77.4193 68.7965C77.4193 68.9181 77.5409 68.9789 77.6625 68.9789L79.487 69.4046L78.8789 71.0467C78.6964 72.8712 79.487 74.8173 81.3115 76.1553C82.4062 77.1891 83.9874 77.7365 85.5687 77.7973C85.9944 78.8312 86.6025 79.9259 87.1499 80.4732C88.1838 81.5679 89.7042 82.1761 91.407 82.1761H92.1368C92.6234 83.1492 93.5356 83.879 94.5695 84.3655C95.4817 84.7912 96.394 84.9736 97.3062 84.9736C98.5226 84.9736 99.9822 84.5479 101.32 83.7573C101.563 83.5749 101.807 83.2708 101.928 82.9667C101.928 82.7843 101.928 82.541 101.624 82.2369C101.32 81.7504 100.651 81.9328 100.225 82.2369C98.5834 83.3316 96.8805 83.4532 94.9952 82.4802C94.6911 82.2977 94.387 81.9936 94.083 81.6896C94.6911 81.3247 95.2993 80.8989 95.7858 80.3516C96.5156 79.561 96.5764 78.7704 96.5156 78.223C96.5156 77.4932 96.0291 76.8242 95.4817 76.3985C94.8736 76.0336 94.2654 75.912 93.6572 76.0944C92.8666 76.2161 92.2585 76.7026 91.8328 77.4324C91.407 78.3447 91.3462 79.2569 91.4678 80.0475C90.4948 80.0475 89.6434 79.6218 89.0352 79.0136C88.6703 78.7095 88.427 78.223 88.1838 77.6149C90.0083 77.25 91.6503 76.2769 92.745 74.8781C93.4748 74.0875 93.8397 73.0536 93.8397 71.8373C93.8397 70.621 93.4748 69.6479 92.8666 69.1006C91.1638 67.4585 88.6095 68.4924 87.3932 69.5871C86.9674 70.0736 86.5417 70.621 86.1768 71.2899L84.3523 68.4924H84.474L84.8389 68.3099C87.2715 67.3369 91.2854 65.7557 92.3193 61.7418L93.6572 60.9511C95.4817 59.7348 96.6981 57.5454 97.063 55.052C97.8536 54.8087 98.5226 54.4438 99.0091 54.0789C99.3132 54.6871 99.6173 55.1736 100.225 55.6601L99.2524 56.5116L98.8875 56.8156C98.7658 56.9373 98.7658 57.1197 98.8875 57.2413L99.4956 58.4577C99.374 58.7618 99.1307 59.0658 98.8875 59.2483L97.4887 58.6401C97.4887 58.6401 97.2454 58.6401 97.1846 58.8226C96.5764 59.5524 96.2115 60.2822 95.8466 61.0728C95.725 61.1944 95.8466 61.3769 95.8466 61.4985L97.063 62.4716L96.6981 63.4446H95.1777C94.9952 63.4446 94.8736 63.5663 94.8128 63.6879C94.5695 64.5393 94.387 65.3908 94.3262 66.2422C94.3262 66.4246 94.3262 66.5463 94.5695 66.6071L95.9683 67.2152V68.1275L94.5087 68.7357C94.387 68.7357 94.3262 68.9181 94.3262 69.1006C94.3262 69.952 94.5087 70.7426 94.6911 71.5332C94.6911 71.7765 94.8736 71.8981 95.056 71.8981H96.5156L96.8805 72.9928L95.6642 73.9659C95.6642 74.0875 95.5426 74.27 95.6642 74.3916C95.9683 75.1822 96.394 75.912 96.8805 76.581C96.8805 76.7026 97.1238 76.7026 97.2454 76.7026L98.6442 76.0944C98.8266 76.4593 99.1307 76.7026 99.374 77.0675L98.5226 78.4663C98.4009 78.6487 98.4009 78.8312 98.5226 78.9528C99.1307 79.561 99.7389 80.0475 100.347 80.534H100.834L102.05 79.561C102.293 79.7434 102.658 80.0475 103.266 80.2908C103.388 83.9398 106.672 85.1561 106.733 85.1561H107.037L107.219 84.9128V84.1222C107.219 84.1222 105.76 82.541 105.821 80.4732C105.821 79.1353 106.672 78.3447 107.402 77.9189L108.01 77.6149L108.253 86.4333C108.253 86.6157 108.375 86.7373 108.557 86.7981H109.774C109.895 86.7981 110.017 86.5549 110.017 86.4333L110.321 77.554L110.929 77.9189C111.659 78.3447 112.51 79.1353 112.51 80.534C112.632 82.541 111.294 84.183 111.294 84.183C111.172 84.183 111.172 84.3047 111.172 84.4263V84.7912C111.172 84.9128 111.294 84.9736 111.416 85.0345H111.72C111.72 85.0345 114.882 83.8181 115.186 80.3516L117.011 79.3177L118.105 80.3516H118.531L120.356 78.6487C120.477 78.5271 120.538 78.3447 120.356 78.223L119.747 76.8851C119.869 76.581 120.112 76.2769 120.356 76.0336L121.754 76.5202C121.937 76.5202 122.119 76.5202 122.18 76.3985C122.667 75.6687 123.092 74.9389 123.396 74.1483V73.7834L122.18 72.8104C122.18 72.4455 122.363 72.2022 122.484 71.7765L123.944 71.8981C124.065 71.8981 124.187 71.7765 124.248 71.594C124.43 70.7426 124.613 69.8912 124.674 68.9789C124.674 68.8573 124.552 68.6748 124.43 68.614L122.971 68.1275V67.1544L124.37 66.5463C124.491 66.5463 124.613 66.4246 124.613 66.2422C124.613 65.3299 124.37 64.4177 124.187 63.5663C124.187 63.4446 124.005 63.323 123.822 63.323H122.302L121.937 62.4716L123.153 61.4985C123.275 61.3769 123.275 61.1944 123.153 61.0728C122.849 60.2822 122.363 59.4916 121.937 58.7618C121.754 58.6401 121.572 58.5793 121.45 58.6401L119.991 59.2483L119.383 58.5185L120.416 57.1805V56.8156C119.808 56.2075 119.2 55.7818 118.714 55.4169C119.747 54.5654 120.295 53.5924 120.538 52.2544C120.964 49.7001 119.687 47.5715 117.376 46.9634C115.551 46.5377 113.727 46.9634 112.632 48.1797C111.781 49.0919 111.598 50.0042 112.267 51.0381C112.875 51.7679 113.727 51.8895 115.065 51.3422C115.43 51.1597 115.855 51.2205 116.099 51.3422C116.281 51.5246 116.342 51.7071 116.342 51.9503C116.342 52.6801 115.308 53.1666 113.423 53.7748L110.99 54.7479L111.233 45.5038C111.537 45.6862 111.841 45.747 112.085 45.747C112.45 45.747 112.875 45.6254 113.301 45.3821V45.2605C114.092 45.8687 114.943 46.1728 115.734 46.1728C116.524 46.1728 117.193 45.9903 117.68 45.747C118.288 46.1119 118.896 46.2336 119.383 46.2336C120.599 46.2336 121.815 45.6254 121.937 45.5038C122.545 45.8079 123.032 45.9295 123.579 45.9295C124.491 45.9295 125.403 45.5038 126.012 45.0781C126.741 45.6862 127.593 45.8687 128.444 45.8687C129.661 45.8687 130.755 45.2605 130.877 45.2605C130.877 45.2605 130.877 45.1389 130.999 45.0781V44.774L129.356 42.7062V37.3544H130.451C130.451 37.6585 130.634 37.9625 130.755 38.2666C131.059 38.7532 131.546 39.118 132.093 39.3005H132.701C133.066 39.3005 133.553 39.1789 133.918 38.9356C133.918 39.2397 134.1 39.5438 134.222 39.787C134.465 40.2127 134.83 40.5776 135.256 40.8209L129.478 49.3352C128.87 47.754 127.41 46.6593 125.708 46.6593C123.457 46.6593 121.633 48.4838 121.633 50.7948C121.633 53.1058 123.457 54.9303 125.708 54.9303C126.133 54.9303 126.559 54.9303 126.924 54.7479L124.065 57.1805C123.457 57.6671 123.457 58.5185 123.944 59.005L124.065 59.1875C124.248 59.4307 124.674 59.6132 124.978 59.6132C125.282 59.6132 125.586 59.4916 125.829 59.3091L128.383 57.0589L129.6 58.5793C128.079 61.1336 128.809 63.2014 129.478 64.2961C130.208 65.5124 131.911 66.1206 133.553 66.6071C134.769 66.9112 135.377 67.5801 136.229 68.614C134.769 69.0397 133.614 68.614 133.005 68.2491L133.918 67.5193L134.039 67.2152C134.039 67.0936 133.918 66.972 133.796 66.9112L126.376 64.1136C126.255 64.1136 126.072 64.1136 126.012 64.2352C125.89 64.3569 125.89 64.4785 125.89 64.6001L128.323 71.2899C127.714 71.2899 127.106 71.594 126.681 72.0197C125.464 73.2361 125.586 75.3646 126.802 76.6418C127.714 77.554 128.87 78.1622 130.086 78.4663L129.478 79.0745C129.052 79.6826 128.262 79.9867 127.471 80.0475C127.714 79.1353 127.654 78.223 127.289 77.4324C126.802 76.7026 126.072 76.2161 125.464 76.0336C124.856 75.912 124.248 76.0336 123.64 76.3985C123.032 76.7634 122.728 77.3716 122.667 78.1014C122.667 78.5879 122.667 79.4394 123.275 80.3516H123.396C123.761 80.7773 124.187 81.1422 124.613 81.3855C124.248 81.7504 123.822 81.9936 123.275 82.2977C120.964 83.514 119.261 82.7843 118.045 82.0545C117.436 81.7504 117.011 81.872 116.707 82.2977C116.585 82.4802 116.524 82.7234 116.585 82.9059C116.585 83.3924 117.011 83.6357 117.193 83.6965C118.227 84.5479 119.383 84.9128 120.66 84.9128C121.633 84.9128 122.606 84.7304 123.701 84.3047C124.917 83.6965 125.829 82.9667 126.498 82.0545H127.289C128.688 82.0545 130.025 81.4463 131.181 80.4124C131.789 79.8042 132.093 79.3785 132.397 78.7095C134.039 78.5879 135.621 77.8581 136.776 76.6418C138.114 75.243 138.905 73.4793 139.026 71.7765L140.364 70.925C141.581 70.1344 142.675 71.4116 142.797 71.5332C142.797 71.5332 143.04 71.6548 143.223 71.5332C143.344 71.4116 143.344 71.2899 143.344 71.1683C143.344 71.0467 143.344 70.9859 143.223 70.8642L142.979 70.621C142.675 70.1344 142.371 69.2222 142.979 68.3708C146.142 64.5393 146.628 61.3769 144.5 58.032L145.534 57.2413L145.716 56.8764C145.716 56.7548 145.594 56.694 145.473 56.6332L139.27 53.045V41.3683C139.695 41.794 140.182 42.1589 140.79 42.2805L141.52 42.4021C142.371 42.4021 143.223 42.0372 143.77 41.3683V41.5507C144.135 42.0372 144.561 42.4021 145.108 42.5846H145.716C146.75 42.5846 148.149 42.0981 148.757 39.9695L149.487 40.1519C149.73 40.1519 149.912 40.1519 149.912 39.9087C149.912 39.7262 149.912 39.5438 149.669 39.4829L149.791 39.3005Z" fill="#2C2F2D"/>
<path fill-rule="evenodd" clip-rule="evenodd" d="M71.7634 46.416H71.3377C71.0944 46.416 70.9119 46.416 70.7295 46.5985L69.6956 47.6932L69.4523 48.0581C69.4523 48.1797 69.4523 48.3622 69.574 48.4838C69.6956 48.6054 69.8781 48.6662 70.0605 48.6054L70.3646 48.3013L70.8511 47.8756V51.7071C70.9728 51.8895 71.0944 52.0112 71.3377 52.0112C71.5201 52.0112 71.7026 51.8895 71.7634 51.7679V46.416ZM75.0475 48.9095C74.6217 48.9095 74.3177 48.6054 74.3177 48.1189C74.3177 47.6324 74.6217 47.3283 75.0475 47.3283C75.4732 47.3283 75.7773 47.6324 75.7773 48.1797C75.7773 48.7879 75.4732 49.0311 75.0475 49.0311V48.9095ZM74.3177 51.7071C74.3177 51.9503 74.5609 52.1328 74.8042 52.1328H75.0475L75.2907 51.7071L76.3246 49.7001C76.5679 49.2136 76.7503 48.7271 76.7503 48.1797C76.7503 47.085 76.0205 46.4769 75.0475 46.4769C74.0744 46.4769 73.3446 47.085 73.3446 48.3013C73.3446 49.2744 73.9528 49.8826 74.7434 49.8826H75.1083L74.3785 51.2814C74.3785 51.5854 74.2568 51.6462 74.2568 51.7679L74.3177 51.7071ZM141.702 50.9165C141.702 51.0989 141.52 51.2205 141.52 51.5246C141.52 51.5246 141.52 51.7071 141.641 51.8287C141.641 51.9503 141.885 51.9503 142.128 51.9503H144.621L144.743 51.5246C144.743 51.3422 144.743 51.1597 144.561 51.0989H142.615L143.952 49.4569C144.439 48.8487 144.682 48.5446 144.682 47.9365C144.682 46.9634 144.074 46.416 142.979 46.416C142.493 46.416 142.128 46.5377 141.763 46.7809C141.52 46.9634 141.337 47.3891 141.337 47.6324C141.337 47.8148 141.337 47.8756 141.459 47.9973C141.459 48.1189 141.641 48.1797 141.763 48.1797C141.885 48.1797 142.006 48.1797 142.067 48.0581C142.067 48.0581 142.189 48.0581 142.25 47.8756C142.371 47.4499 142.615 47.2675 142.858 47.2675C143.344 47.2675 143.588 47.5715 143.588 47.8756C143.588 48.3013 143.466 48.4838 143.223 48.8487L141.398 50.9165H141.702ZM147.662 48.2405C147.297 48.2405 147.054 48.3622 146.872 48.4838V47.2675H149C149.122 47.2675 149.243 47.085 149.243 46.9026C149.243 46.7201 149.122 46.5985 149 46.5377H146.264C146.142 46.7809 146.142 46.9634 146.142 47.1458V48.9703C146.142 49.2136 146.142 49.396 146.264 49.4569L146.628 49.6393H146.872L147.115 49.396C147.237 49.2744 147.419 49.2136 147.723 49.2136C148.21 49.2136 148.331 49.5785 148.331 50.1867C148.331 50.5516 148.331 50.7948 148.149 50.9773C148.027 51.0989 147.906 51.1597 147.662 51.1597C147.358 51.1597 147.176 50.9773 147.054 50.6732C147.054 50.4907 146.932 50.4299 146.872 50.3691H145.959V50.7948C145.959 51.1597 146.081 51.403 146.324 51.6463C146.628 51.8895 146.932 52.0112 147.541 52.0112C148.149 52.0112 148.453 51.8287 148.757 51.5854C149.122 51.1597 149.183 50.734 149.183 50.1258C149.183 49.5177 149.183 49.092 148.696 48.6662C148.453 48.3622 148.088 48.2405 147.662 48.2405ZM115.551 47.9365C115.43 47.9365 115.186 47.9364 115.065 48.1189C114.7 48.8487 114.031 49.1528 114.031 49.1528C113.848 49.1528 113.788 49.4569 113.848 49.6393C113.848 49.7609 114.031 49.8826 114.152 49.8826L114.335 49.7609C114.335 49.7609 115.186 49.3352 115.734 48.5446C115.734 48.3013 115.734 48.0581 115.551 47.9365ZM103.692 49.7609H103.874C103.996 49.7609 104.118 49.7609 104.179 49.5785C104.179 49.396 104.179 49.2136 103.996 49.092C103.996 49.092 103.388 48.7879 102.962 48.1189C102.841 47.9973 102.597 47.9364 102.354 47.9973C102.354 48.1189 102.232 48.3622 102.354 48.6054C102.841 49.396 103.692 49.8218 103.692 49.8218" fill="#2C2F2D"/>
<path d="M74.0744 121.828H67.5062C67.3846 121.828 67.3238 121.828 67.3238 121.646V109.361C67.3238 109.239 67.3238 109.179 67.5062 109.179H74.1961C74.1961 109.179 74.3177 109.179 74.3177 109.361V110.091C74.3177 110.212 74.3177 110.273 74.1352 110.273H68.7226C68.6009 110.273 68.5401 110.273 68.5401 110.456V114.591C68.5401 114.713 68.5401 114.774 68.6618 114.774H72.9189C73.1014 114.774 73.1622 114.774 73.1622 114.895V115.625C73.1622 115.747 73.1622 115.808 72.9797 115.808H68.7226C68.5401 115.808 68.4793 115.808 68.4793 115.99V120.247C68.4793 120.43 68.4793 120.49 68.6009 120.49H73.892C73.892 120.49 74.0136 120.49 74.0136 120.673V121.403C74.0136 121.646 74.0136 121.707 73.7703 121.707L74.0744 121.828ZM82.2238 122.132H81.3724C80.0344 122.132 79.183 121.646 78.6357 120.916C78.4532 120.734 78.2099 120.43 78.2099 120.308C78.2099 120.308 78.2099 120.186 78.3316 120.126L79.1222 119.7H79.5479C80.0344 120.49 80.7642 120.916 81.3724 120.916H82.2846C83.501 120.916 84.474 119.943 84.474 118.727C84.474 117.267 83.2577 116.659 81.7373 115.99C80.1561 115.199 78.4532 114.47 78.4532 112.159C78.4532 110.212 79.7912 108.874 81.9197 108.874H82.2238C83.5618 108.874 84.4132 109.3 84.9606 109.969C85.2038 110.273 85.3863 110.577 85.3863 110.699C85.3863 110.699 85.3863 110.821 85.2646 110.881L84.5349 111.186L84.2916 111.307H84.1699C83.6834 110.517 82.9536 110.091 82.2238 110.091H81.9197C80.7034 110.091 79.7912 111.064 79.7912 112.28C79.7912 113.497 81.1291 114.105 82.6495 114.835C84.1091 115.443 85.6904 116.416 85.6904 118.788C85.6904 120.734 84.3524 122.072 82.163 122.072L82.2238 122.132ZM93.6573 110.273C93.4749 110.273 93.414 110.273 93.414 110.456V121.524C93.414 121.707 93.414 121.768 93.2316 121.768H92.2585C92.1369 121.768 92.0761 121.768 92.0761 121.585V110.577C92.0761 110.456 92.0761 110.395 91.8936 110.395H89.461C89.461 110.395 89.3393 110.395 89.3393 110.212V109.361C89.3393 109.239 89.3393 109.179 89.5218 109.179H96.2116C96.3332 109.179 96.3941 109.179 96.3941 109.361V110.091C96.3941 110.212 96.2724 110.273 96.1508 110.273H93.6573ZM106.307 112.219C106.307 111.003 105.334 110.091 104.118 110.091H103.51C102.293 110.091 101.381 111.003 101.381 112.219V118.727C101.381 119.943 102.293 120.916 103.51 120.916H104.118C105.334 120.916 106.307 119.943 106.307 118.727V112.219ZM104.179 122.072H103.57C101.442 122.072 100.043 120.673 100.043 118.727V112.219C100.043 110.273 101.442 108.935 103.57 108.935H104.179C106.307 108.935 107.706 110.273 107.706 112.219V118.727C107.706 120.673 106.368 122.011 104.239 122.011L104.179 122.072ZM120.417 121.828H119.504C119.504 121.828 119.383 121.828 119.322 121.707L114.457 112.828L114.031 112.098V121.646C114.031 121.646 114.031 121.768 113.848 121.768H112.875C112.754 121.768 112.693 121.768 112.693 121.585V109.422C112.693 109.3 112.693 109.239 112.875 109.239H113.788C113.909 109.239 113.97 109.239 114.031 109.361L118.896 118.301L119.322 119.031H119.443V109.3C119.443 109.179 119.443 109.118 119.565 109.118H120.538C120.66 109.118 120.721 109.118 120.721 109.3V121.585C120.721 121.707 120.721 121.768 120.599 121.768L120.417 121.828ZM126.133 121.828C126.012 121.828 125.951 121.828 125.951 121.646V109.361C125.951 109.239 126.072 109.179 126.194 109.179H127.167C127.289 109.179 127.35 109.179 127.35 109.361V121.646C127.35 121.768 127.35 121.828 127.167 121.828H126.133ZM135.742 112.219L135.499 111.429L135.195 112.219L133.735 117.51C133.735 117.632 133.735 117.693 133.918 117.693H136.837C137.019 117.693 137.141 117.693 137.141 117.51L135.742 112.219ZM139.574 121.828H138.54C138.418 121.828 138.357 121.828 138.357 121.707L137.567 118.909C137.567 118.788 137.445 118.788 137.384 118.788H133.553C133.431 118.788 133.37 118.788 133.37 118.909L132.58 121.707C132.58 121.828 132.58 121.828 132.458 121.828H131.364C131.242 121.828 131.12 121.828 131.12 121.646C131.12 121.524 131.12 121.342 131.242 121.159L134.891 109.239C134.891 109.118 134.891 109.118 135.012 109.118H135.803C135.925 109.118 135.986 109.118 135.986 109.239L139.635 121.038L139.756 121.646C139.756 121.768 139.756 121.828 139.574 121.828ZM151.433 121.828H150.46C150.46 121.828 150.338 121.828 150.277 121.707L145.412 112.828L145.047 112.098V121.646C145.047 121.646 145.047 121.768 144.865 121.768H143.952C143.831 121.768 143.77 121.768 143.77 121.585V109.422C143.77 109.3 143.77 109.239 143.952 109.239H144.865C144.865 109.239 144.986 109.239 145.047 109.361L149.913 118.301L150.338 119.031V109.3C150.338 109.179 150.338 109.118 150.521 109.118H151.494C151.494 109.118 151.615 109.118 151.615 109.3V121.585C151.737 121.707 151.615 121.768 151.494 121.768L151.433 121.828ZM6.81144 137.337C6.20328 137.945 5.47348 138.431 4.13552 138.431H3.52735C1.39878 138.431 0 137.093 0 135.147V128.64C0 126.694 1.39878 125.356 3.52735 125.356H4.13552C5.47348 125.356 6.26409 125.781 6.87226 126.45C7.05471 126.755 7.29797 127.059 7.29797 127.18C7.29797 127.18 7.29797 127.302 7.17634 127.363L6.38573 127.728C6.38573 127.849 6.26409 127.849 6.20328 127.849H6.08164C5.59511 127.119 4.86531 126.633 4.13552 126.633H3.52735C2.31102 126.633 1.39878 127.606 1.39878 128.822V135.33C1.39878 136.546 2.31102 137.519 3.52735 137.519H4.13552C4.74368 137.519 5.59511 137.154 6.08164 136.424H6.38573L7.17634 136.789L7.29797 136.972L6.81144 137.58V137.337ZM19.4613 138.188H18.549C18.4274 138.188 18.3666 138.188 18.3666 138.006V132.532C18.3666 132.532 18.3666 132.41 18.1841 132.41H13.3188C13.1363 132.41 13.0755 132.41 13.0755 132.593V138.066C13.0755 138.249 13.0755 138.31 12.8931 138.31H11.92C11.7984 138.31 11.7376 138.31 11.7376 138.127V125.964C11.7376 125.781 11.7376 125.721 11.92 125.721H12.8931C13.0147 125.721 13.0755 125.721 13.0755 125.903V131.133C13.0755 131.255 13.0755 131.316 13.258 131.316H18.1233L18.2449 131.072V125.781C18.2449 125.599 18.2449 125.538 18.4274 125.538H19.4613C19.6437 125.538 19.7045 125.538 19.7045 125.721V137.884C19.7045 138.066 19.7045 138.127 19.5221 138.127L19.4613 138.188ZM28.158 128.579L27.9147 127.788H27.7931L27.5498 128.579L26.0903 133.87C26.0903 133.992 26.0903 134.053 26.3335 134.053H29.2527C29.3743 134.053 29.496 134.053 29.496 133.87L28.0972 128.579H28.158ZM31.9894 138.188H31.0164C30.8339 138.188 30.7731 138.188 30.7731 138.066L29.9825 135.269C29.9825 135.147 29.8609 135.147 29.8001 135.147H26.0294C25.9078 135.147 25.847 135.147 25.847 135.269L25.0564 138.066C25.0564 138.188 24.9347 138.188 24.8739 138.188H23.6576C23.536 138.188 23.4143 138.188 23.4143 138.006C23.4143 138.006 23.4143 137.762 23.536 137.58L27.1849 125.66C27.1849 125.538 27.1849 125.538 27.3066 125.538H28.0972C28.2188 125.538 28.2796 125.538 28.2796 125.66L31.9286 137.458C31.9286 137.823 32.0503 138.066 32.0503 138.066C32.1719 138.249 32.0503 138.31 31.9286 138.31L31.9894 138.188ZM45.734 138.188H44.7609C44.6393 138.188 44.5784 138.188 44.5784 138.006V133.262C44.5784 131.681 44.7001 129.005 44.7609 128.579L44.1527 130.039L41.3552 136.12C41.3552 136.242 41.2335 136.303 41.1727 136.303H40.747C40.747 136.303 40.6254 136.303 40.5646 136.181L37.7062 130.039L37.2197 128.579L37.3413 133.262V138.127C37.3413 138.249 37.3413 138.31 37.1588 138.31H36.2466C36.125 138.31 36.0641 138.31 36.0641 138.127V125.842C36.0641 125.721 36.0641 125.66 36.2466 125.66H37.098C37.098 125.66 37.2197 125.66 37.2805 125.781L40.5646 133.444L40.8686 134.235L41.2335 133.444L44.5176 125.721L44.7001 125.599H45.6123C45.7948 125.599 45.8556 125.599 45.8556 125.781V137.945C45.8556 138.127 45.8556 138.188 45.734 138.188ZM57.5323 134.478C57.5323 133.262 56.5593 132.35 55.343 132.35H52.7887C52.667 132.35 52.6062 132.35 52.6062 132.532V136.911C52.6062 137.033 52.6062 137.093 52.7887 137.093H55.343C56.5593 137.093 57.5323 136.12 57.5323 134.904V134.478ZM57.5323 128.822C57.5323 127.606 56.5593 126.694 55.343 126.694H52.7887C52.667 126.694 52.6062 126.694 52.6062 126.876V131.012C52.6062 131.133 52.6062 131.194 52.7887 131.194H55.343C56.5593 131.194 57.5323 130.16 57.5323 128.944V128.761V128.822ZM51.5115 138.188C51.3899 138.188 51.3291 138.188 51.3291 138.006V125.842C51.3291 125.66 51.3291 125.599 51.5115 125.599H55.343C57.5323 125.599 58.9919 126.937 58.9919 129.066V129.309C58.9919 130.099 58.3838 131.255 57.4107 131.741C57.2891 131.741 57.2283 131.741 57.2283 131.863C57.2283 131.863 57.3499 131.863 57.4107 131.985C58.1405 132.35 58.9311 133.323 58.9311 134.417V134.782C58.9311 136.85 57.5932 138.188 55.4646 138.188H51.5115ZM63.9789 138.188C63.8573 138.188 63.7964 138.188 63.7964 138.006V125.842C63.7964 125.66 63.7964 125.599 63.9181 125.599H70.6079C70.6079 125.599 70.7295 125.599 70.7295 125.781V126.39C70.7295 126.572 70.7295 126.633 70.5471 126.633H65.3169C65.1952 126.633 65.1344 126.633 65.1344 126.815V130.951C65.1344 131.072 65.256 131.133 65.3777 131.133H69.6348C69.8173 131.133 69.8781 131.133 69.8781 131.316V132.106C69.8781 132.228 69.8781 132.289 69.6956 132.289H65.4385C65.256 132.289 65.1952 132.289 65.1952 132.471V136.728C65.1952 136.85 65.3168 136.911 65.4385 136.911H70.7295C70.912 136.911 70.9728 136.911 70.9728 137.093V137.823C70.9728 138.127 70.9728 138.188 70.7903 138.188H63.9789ZM81.7981 128.822C81.7981 127.606 80.825 126.694 79.6087 126.694H76.9936C76.872 126.694 76.8112 126.694 76.8112 126.876V131.012C76.8112 131.133 76.8112 131.194 76.9936 131.194H79.5479C80.7642 131.194 81.6765 130.16 81.6765 128.944V128.761L81.7981 128.822ZM83.0144 138.188H81.7981C81.7981 138.188 81.6765 138.188 81.6765 138.066L79.6695 132.471C79.6695 132.471 79.6695 132.35 79.5479 132.35H76.9936C76.872 132.35 76.8112 132.35 76.8112 132.532V138.006C76.8112 138.188 76.8112 138.249 76.6287 138.249H75.6556C75.534 138.249 75.4732 138.249 75.4732 138.066V125.903C75.4732 125.721 75.5948 125.66 75.7165 125.66H79.6087C81.7373 125.66 83.1361 126.998 83.1361 129.126V129.37C83.1361 130.404 82.163 131.62 81.1899 132.046C81.1899 132.167 81.0683 132.167 81.0683 132.228V132.471L82.8928 137.762L83.1361 138.249C83.2577 138.249 83.1361 138.37 83.0144 138.37V138.188ZM99.3132 128.579C99.3132 127.363 98.3402 126.45 97.1238 126.45H96.5157C95.2994 126.45 94.3871 127.424 94.3871 128.64V135.147C94.3871 136.364 95.2994 137.337 96.5157 137.337H97.1238C98.3402 137.337 99.3132 136.303 99.3132 135.086V128.579ZM97.1847 138.431H96.5765C94.4479 138.431 93.0491 137.093 93.0491 135.147V128.64C93.0491 126.694 94.4479 125.356 96.5765 125.356H97.1847C99.3132 125.356 100.712 126.694 100.712 128.64V135.147C100.712 136.972 99.3132 138.431 97.1847 138.431ZM112.51 126.633H107.219C107.098 126.633 107.037 126.633 107.037 126.815V130.951C107.037 131.072 107.037 131.133 107.219 131.133H111.477C111.659 131.133 111.72 131.133 111.72 131.316V132.106C111.72 132.228 111.72 132.289 111.537 132.289H107.28C107.098 132.289 107.037 132.289 107.037 132.471V137.945C107.037 137.945 107.037 138.066 106.854 138.066H105.821C105.821 138.066 105.699 138.066 105.699 137.884V125.538C105.699 125.417 105.699 125.356 105.881 125.356H112.571C112.693 125.356 112.754 125.356 112.754 125.538V126.268C112.754 126.45 112.754 126.511 112.571 126.511L112.51 126.633ZM128.931 137.337C128.323 137.945 127.532 138.431 126.194 138.431H125.586C123.457 138.431 122.059 137.093 122.059 135.147V128.64C122.059 126.694 123.457 125.356 125.586 125.356H126.194C127.532 125.356 128.323 125.781 128.931 126.45C129.113 126.755 129.357 127.059 129.357 127.18C129.357 127.18 129.357 127.302 129.235 127.363L128.444 127.728C128.444 127.849 128.323 127.849 128.262 127.849H128.079C127.593 127.119 126.863 126.633 126.133 126.633H125.525C124.309 126.633 123.397 127.606 123.397 128.822V135.33C123.397 136.546 124.309 137.519 125.525 137.519H126.133C126.741 137.519 127.593 137.154 128.079 136.424H128.323L129.113 136.789L129.235 136.972L128.748 137.58L128.931 137.337ZM139.756 128.579C139.756 127.363 138.783 126.45 137.567 126.45H136.959C135.742 126.45 134.83 127.424 134.83 128.64V135.147C134.83 136.364 135.742 137.337 136.959 137.337H137.567C138.783 137.337 139.756 136.303 139.756 135.086V128.579ZM137.019 138.431C134.891 138.431 133.492 137.093 133.492 135.147V128.64C133.492 126.694 134.891 125.356 137.019 125.356H137.628C139.756 125.356 141.155 126.694 141.155 128.64V135.147C141.155 136.972 139.817 138.431 137.688 138.431H137.019ZM154.839 138.188C154.717 138.188 154.656 138.188 154.656 138.006V133.262C154.656 131.681 154.778 129.005 154.839 128.579L154.23 130.039L151.433 136.12L151.25 136.242H150.825C150.825 136.242 150.703 136.242 150.642 136.12L147.784 130.039C147.784 129.795 147.358 128.701 147.297 128.518L147.419 133.201V138.066C147.419 138.066 147.419 138.188 147.237 138.188H146.324C146.203 138.188 146.142 138.188 146.142 138.006V125.842C146.142 125.66 146.142 125.599 146.324 125.599H147.237C147.237 125.599 147.358 125.599 147.419 125.721L150.703 133.384L151.007 134.174L151.372 133.384L154.656 125.66L154.839 125.538H155.812C155.994 125.538 156.055 125.538 156.055 125.721V137.945C156.055 138.127 156.055 138.188 155.933 138.188H154.839ZM169.982 138.188C169.86 138.188 169.799 138.188 169.799 138.006V133.262C169.799 131.681 169.921 129.005 169.982 128.579L169.374 130.039L166.637 136.12L166.394 136.242H166.029C166.029 136.242 165.907 136.242 165.846 136.12L162.988 130.039C162.988 129.795 162.562 128.701 162.502 128.518L162.623 133.201V138.066C162.623 138.066 162.623 138.188 162.441 138.188H161.528C161.407 138.188 161.346 138.188 161.346 138.006V125.842C161.346 125.66 161.346 125.599 161.528 125.599H162.441C162.441 125.599 162.562 125.599 162.623 125.721L165.907 133.384L166.211 134.174L166.576 133.384L169.86 125.66L170.043 125.538H171.016C171.198 125.538 171.259 125.538 171.259 125.721V137.945C171.259 138.127 171.259 138.188 171.077 138.188H169.982ZM176.611 138.188C176.611 138.188 176.489 138.188 176.489 138.006V125.842C176.489 125.66 176.489 125.599 176.672 125.599H183.362C183.362 125.599 183.483 125.599 183.483 125.781V126.39C183.483 126.572 183.483 126.633 183.301 126.633H178.01C177.888 126.633 177.827 126.633 177.827 126.815V130.951C177.827 131.072 177.827 131.133 178.01 131.133H182.267C182.449 131.133 182.51 131.133 182.51 131.316V132.106C182.51 132.228 182.51 132.289 182.388 132.289H178.131C177.949 132.289 177.888 132.289 177.888 132.471V136.728C177.888 136.85 177.888 136.911 178.071 136.911H183.362C183.483 136.911 183.544 136.911 183.544 137.093V137.823C183.544 138.127 183.544 138.188 183.362 138.188H176.611ZM194.491 128.822C194.491 127.606 193.518 126.694 192.302 126.694H189.747C189.626 126.694 189.565 126.694 189.565 126.876V131.012C189.565 131.133 189.565 131.194 189.747 131.194H192.302C193.518 131.194 194.491 130.16 194.491 128.944V128.761V128.822ZM195.707 138.188H194.491C194.491 138.188 194.369 138.188 194.369 138.066L192.423 132.471C192.423 132.471 192.423 132.35 192.241 132.35H189.808C189.686 132.35 189.626 132.35 189.626 132.532V138.006C189.626 138.188 189.626 138.249 189.443 138.249H188.47C188.348 138.249 188.288 138.249 188.288 138.066V125.903C188.288 125.721 188.288 125.66 188.47 125.66H192.362C194.491 125.66 195.89 126.998 195.89 129.126V129.37C195.89 130.404 194.917 131.62 193.944 132.046C193.944 132.167 193.822 132.167 193.822 132.228V132.471L195.646 137.762L195.89 138.249C195.89 138.249 195.89 138.37 195.707 138.37V138.188ZM207.019 137.337C206.411 137.945 205.681 138.431 204.343 138.431H203.735C201.606 138.431 200.208 137.093 200.208 135.147V128.64C200.208 126.694 201.606 125.356 203.735 125.356H204.343C205.681 125.356 206.472 125.781 207.08 126.45C207.262 126.755 207.506 127.059 207.506 127.18C207.506 127.18 207.506 127.302 207.384 127.363L206.593 127.728C206.593 127.849 206.472 127.849 206.411 127.849H206.289C205.803 127.119 205.073 126.633 204.343 126.633H203.735C202.519 126.633 201.606 127.606 201.606 128.822V135.33C201.606 136.546 202.519 137.519 203.735 137.519H204.343C204.951 137.519 205.803 137.154 206.289 136.424H206.593L207.384 136.789L207.506 136.972L207.019 137.58V137.337ZM212.067 138.188C212.067 138.188 211.945 138.188 211.945 138.006V125.842C211.945 125.66 211.945 125.599 212.128 125.599H218.818C218.818 125.599 218.939 125.599 218.939 125.781V126.39C218.939 126.572 218.939 126.633 218.757 126.633H213.466C213.344 126.633 213.283 126.633 213.283 126.815V130.951C213.283 131.072 213.283 131.133 213.466 131.133H217.723C217.905 131.133 217.966 131.133 217.966 131.316V132.106C217.966 132.228 217.966 132.289 217.784 132.289H213.527C213.405 132.289 213.344 132.289 213.344 132.471V136.728C213.344 136.85 213.344 136.911 213.527 136.911H218.818C218.939 136.911 219 136.911 219 137.093V137.823C219 138.127 219 138.188 218.818 138.188H212.067ZM49.2613 144.939L49.018 144.148L48.714 144.939L47.3152 150.23C47.3152 150.351 47.3152 150.412 47.5585 150.412H50.5993C50.5993 150.412 50.7817 150.412 50.7817 150.23L49.3829 144.939H49.2613ZM53.0928 154.548H52.0589C51.9372 154.548 51.8764 154.548 51.8764 154.426L51.0858 151.689C51.0858 151.568 50.9642 151.568 50.9034 151.568H47.1327C47.0111 151.568 46.9503 151.568 46.9503 151.689L46.2205 154.365C46.2205 154.548 46.038 154.548 45.9772 154.548H45.0042C44.8217 154.548 44.7001 154.548 44.7001 154.365C44.7001 154.244 44.7001 154.061 44.8217 153.879L48.4707 141.959C48.4707 141.837 48.4707 141.837 48.5923 141.837H49.2613C49.3829 141.837 49.4438 141.837 49.4438 141.959L53.0928 153.757L53.2144 154.365C53.2144 154.487 53.0927 154.548 52.9711 154.548H53.0928ZM64.952 154.548H63.9789C63.9789 154.548 63.8573 154.548 63.7964 154.426L58.8095 145.608L58.4446 144.878V154.365C58.4446 154.365 58.4446 154.487 58.2621 154.487H57.2283C57.1066 154.487 57.0458 154.487 57.0458 154.304V141.959C57.0458 141.837 57.0458 141.776 57.2283 141.776H58.1405C58.1405 141.776 58.2621 141.776 58.323 141.898L63.3099 150.899L63.6748 151.628V142.019C63.6748 141.898 63.6748 141.837 63.8573 141.837H64.8911C65.0128 141.837 65.0736 141.837 65.0736 142.019V154.365C65.0736 154.487 65.0736 154.548 64.952 154.548ZM76.7503 145.243C76.7503 144.026 75.7773 143.053 74.561 143.053H72.0067C71.885 143.053 71.8242 143.053 71.8242 143.236V153.149C71.8242 153.331 71.9458 153.392 72.0675 153.392H74.6218C75.8381 153.392 76.8112 152.419 76.8112 151.203V145.121L76.7503 145.243ZM74.561 154.548H70.6687C70.5471 154.548 70.4863 154.548 70.4863 154.365V142.08C70.4863 141.959 70.4863 141.898 70.6079 141.898H74.5001C76.6287 141.898 78.0275 143.236 78.0275 145.364V151.02C78.0275 153.21 76.6287 154.548 74.5001 154.548H74.561ZM89.7651 154.548H88.792C88.6704 154.548 88.6096 154.548 88.6096 154.365V142.08C88.6096 141.959 88.6096 141.898 88.792 141.898H89.7651C89.8867 141.898 89.9475 141.898 89.9475 142.08V154.365C89.9475 154.487 89.9475 154.548 89.7042 154.548H89.7651ZM103.084 154.548H102.172C102.05 154.548 101.989 154.548 101.928 154.426L97.063 145.608L96.6373 144.878H96.5157V154.365C96.5157 154.365 96.5157 154.487 96.3941 154.487H95.4818C95.3602 154.487 95.2994 154.487 95.2994 154.304V141.959C95.2994 141.837 95.2994 141.776 95.4818 141.776H96.3941C96.3941 141.776 96.5157 141.776 96.5765 141.898L101.442 150.899L101.868 151.628V142.019C101.868 141.898 101.868 141.837 102.05 141.837H103.023C103.145 141.837 103.205 141.837 103.205 142.019V154.365C103.205 154.487 103.205 154.548 103.084 154.548ZM114.943 145.243C114.943 144.026 113.909 143.053 112.693 143.053H110.078C110.078 143.053 109.956 143.053 109.956 143.236V153.149C109.956 153.331 109.956 153.392 110.139 153.392H112.754C113.97 153.392 114.943 152.419 114.943 151.203V145.121V145.243ZM112.693 154.548H108.861C108.679 154.548 108.618 154.548 108.618 154.365V142.08C108.618 141.959 108.618 141.898 108.801 141.898H112.632C114.761 141.898 116.159 143.236 116.159 145.364V151.02C116.159 153.21 114.821 154.548 112.693 154.548ZM125.039 154.791H124.43C122.302 154.791 120.903 153.453 120.903 151.507V142.202C120.903 142.019 120.903 141.959 121.086 141.959H122.119C122.241 141.959 122.302 141.959 122.302 142.141V151.446C122.302 152.662 123.214 153.635 124.43 153.635H125.039C126.255 153.635 127.228 152.602 127.228 151.385V142.202C127.228 142.019 127.35 141.959 127.471 141.959H128.444C128.566 141.959 128.627 141.959 128.627 142.141V151.446C128.627 153.27 127.289 154.73 125.16 154.73L125.039 154.791ZM136.837 154.791H135.925C134.587 154.791 133.735 154.365 133.188 153.696C133.006 153.392 132.762 153.088 132.762 152.966C132.762 152.966 132.762 152.845 132.884 152.784L133.675 152.358H134.1C134.587 153.149 135.317 153.575 135.925 153.575H136.837C138.053 153.575 138.966 152.602 138.966 151.385C138.966 149.926 137.749 149.317 136.229 148.648C134.648 147.919 132.945 147.189 132.945 144.878C132.945 142.932 134.344 141.594 136.472 141.594H136.776C137.992 141.594 138.905 142.08 139.452 142.81C139.695 142.993 139.878 143.418 139.878 143.418V143.601L139.148 143.966H138.783C138.297 143.236 137.567 142.871 136.837 142.871H136.533C135.317 142.871 134.404 143.783 134.404 144.999C134.404 146.216 135.742 146.824 137.263 147.554C138.783 148.162 140.304 149.074 140.304 151.446C140.304 153.27 138.966 154.669 136.776 154.669L136.837 154.791ZM148.149 142.993C148.027 142.993 147.966 142.993 147.966 143.175V154.365C147.966 154.487 147.966 154.548 147.784 154.548H146.811C146.689 154.548 146.628 154.548 146.628 154.365V143.236C146.628 143.114 146.628 143.053 146.507 143.053H144.074C143.952 143.053 143.892 143.053 143.892 142.871V142.263C143.892 142.08 143.892 142.019 144.074 142.019H150.764C150.764 142.019 150.886 142.019 150.886 142.202V142.81C150.886 142.932 150.764 142.993 150.642 142.993H148.149ZM161.164 145.243C161.164 144.026 160.251 143.053 159.035 143.053H156.481C156.359 143.053 156.298 143.053 156.298 143.236V147.371C156.298 147.493 156.298 147.554 156.481 147.554H159.035C160.251 147.554 161.224 146.581 161.224 145.364V145.182L161.164 145.243ZM162.38 154.548H161.285C161.285 154.548 161.103 154.548 161.103 154.426L159.096 148.953C159.096 148.831 159.096 148.77 158.913 148.77H156.359C156.237 148.77 156.177 148.77 156.177 148.953V154.426C156.177 154.548 156.055 154.608 155.933 154.608H155.082C154.96 154.608 154.899 154.608 154.899 154.426V142.141C154.899 142.019 154.899 141.959 155.082 141.959H158.974C161.103 141.959 162.502 143.297 162.502 145.425V145.668C162.502 146.702 161.528 147.919 160.555 148.344C160.555 148.344 160.434 148.344 160.434 148.466V148.709L162.258 154L162.502 154.487C162.502 154.608 162.502 154.669 162.38 154.669V154.548ZM173.935 142.81L170.894 148.709V154.365C170.894 154.487 170.773 154.548 170.651 154.548H169.678C169.556 154.548 169.495 154.548 169.495 154.365V148.709L166.455 142.81C166.211 142.506 166.029 142.202 166.029 142.08C166.029 141.959 166.029 141.898 166.272 141.898H167.488L167.61 142.019L170.043 147.128L170.286 147.371C170.286 147.371 170.408 147.371 170.468 147.189L172.901 142.141L173.084 142.019H174.3C174.3 142.019 174.482 142.019 174.482 142.202C174.239 142.202 174.117 142.506 173.874 142.993" fill="#383836"/>
</svg>
