<svg width="229" height="148" viewBox="0 0 229 148" fill="none" xmlns="http://www.w3.org/2000/svg">
<path d="M32.6163 147.804L41.9578 101.201H57.1576L47.8689 147.804H32.6163ZM78.4796 132.551H88.1378L85.6573 115.451L78.4796 132.551ZM57.1576 147.804L80.1685 101.201H95.1572L104.604 147.804H90.5128L89.6684 142.262H74.6796L72.3047 147.804H57.1576ZM118.59 147.804L123.815 112.76H110.515L112.785 100.99H153.634L151.365 112.76H138.698L133.579 147.804H118.59ZM169.678 132.551H179.337L176.856 115.451L169.678 132.551ZM148.409 147.804L171.367 101.201H186.356L195.803 147.804H181.606L180.92 142.262H165.931L163.556 147.804H148.409ZM229 48.5297H157.487C154.848 61.6185 145.77 72.5433 127.668 80.0905C129.726 86.3182 136.746 92.0709 144.029 92.0709H182.82C188.731 92.0709 193.428 87.1098 195.328 83.0988H155.904C153.476 82.6765 153.37 80.7238 155.798 80.5127H194.537C199.55 80.5127 204.089 76.2377 206.728 71.5933H161.604C159.334 71.2239 159.334 69.3239 161.604 68.9545H207.097C211.689 68.9545 215.858 63.624 217.6 60.0352H167.673C165.192 59.7185 165.192 57.3963 167.673 57.3435H218.497C222.456 57.3435 226.308 53.0158 229 48.5297ZM0 48.5297H71.513C74.0991 61.6185 83.2295 72.5433 101.279 80.0905C99.221 86.3182 92.2017 92.0709 84.9184 92.0709H46.18C40.269 92.0709 35.5718 87.1098 33.6718 83.0988H73.0963C75.4713 82.6765 75.6296 80.7238 73.2019 80.5127H34.4107C29.3969 80.5127 24.858 76.2377 22.272 71.5933H67.4492C69.7186 71.2239 69.7186 69.3239 67.4492 68.9545H21.9553C17.3637 68.9545 13.1943 63.624 11.4526 60.0352H61.3798C63.8603 59.7185 63.8603 57.3963 61.3798 57.3435H10.5554C6.54436 57.3435 2.69163 53.0158 0 48.5297ZM91.3044 9.26355C93.9433 11.533 96.8988 13.5385 100.065 14.8051C102.757 9.52744 106.504 4.9886 110.832 0.977539C103.707 1.92753 97.0044 4.61916 91.3044 9.26355ZM78.6379 35.2827H94.5766C94.9461 28.7383 96.3183 22.9856 98.9044 17.0746C95.3683 15.4913 92.3072 13.5913 89.3517 11.058C82.7545 17.6551 79.1129 26.1522 78.6379 35.2827ZM113.26 20.3467V35.2827H97.321C97.4266 29.4244 98.7988 23.4078 101.279 17.9718C105.079 19.344 109.196 20.2412 113.26 20.3467ZM137.696 9.26355C135.109 11.533 132.048 13.5385 128.935 14.8051C126.085 9.42188 122.549 5.09416 118.115 1.03032C125.293 1.92753 131.996 4.61916 137.696 9.26355ZM150.309 35.2827H134.423C134.212 28.8439 132.734 22.8273 130.201 17.0746C133.579 15.4913 136.798 13.4857 139.596 11.058C146.457 17.919 149.993 26.3633 150.309 35.2827ZM115.846 20.3467V35.2827H131.679C131.679 29.2661 130.201 23.5134 127.721 17.9718C123.921 19.344 119.857 20.2412 115.846 20.3467ZM91.3044 63.9407C93.9433 61.8824 97.0044 59.6129 100.065 58.5046C102.915 63.8351 106.451 68.2156 110.832 72.1739C103.707 71.2239 96.8988 68.5323 91.3044 63.9407ZM78.6379 37.8688H94.5766C94.9461 44.4659 96.3183 50.2714 98.9044 56.2352C95.3683 57.8185 92.3072 59.7185 89.3517 62.199C82.8601 55.6547 79.1129 47.1575 78.6379 37.8688ZM113.26 52.8575V37.8688H97.321C97.4266 43.8853 98.7988 49.8492 101.279 55.1797C105.079 53.8074 109.196 52.963 113.26 52.8575ZM137.696 63.9407C135.215 61.7768 132.048 59.7713 128.935 58.5046C126.085 63.8351 122.549 68.2156 118.115 72.1739C125.293 71.2239 131.996 68.5323 137.696 63.9407ZM150.309 37.8688H134.423C134.212 44.4659 132.787 50.3242 130.201 56.2352C133.579 57.8185 136.64 59.7185 139.596 62.199C146.14 55.6547 149.993 46.9464 150.309 37.8688ZM115.846 52.8575V37.8688H131.679C131.679 43.8853 130.201 49.7436 127.721 55.1797C124.026 53.8074 119.751 52.963 115.846 52.8575ZM113.26 2.50808C108.932 5.99137 105.079 10.7413 102.546 15.7024C105.976 16.8635 109.618 17.8134 113.26 17.8134V2.50808ZM115.846 2.50808C120.068 5.99137 123.921 10.583 126.454 15.7024C123.024 16.969 119.382 17.8134 115.846 17.8134V2.50808ZM113.26 70.6961C108.932 67.2656 105.079 62.5157 102.546 57.4491C105.976 56.2352 109.618 55.5491 113.26 55.5491V70.6961ZM115.846 70.8017C120.068 67.2656 123.921 62.5157 126.454 57.4491C123.024 56.3408 119.382 55.5491 115.846 55.5491V70.8017Z" fill="#004E81"/>
</svg>
