<svg width="436" height="79" viewBox="0 0 436 79" fill="none" xmlns="http://www.w3.org/2000/svg">
<path d="M10.9209 16.5275C26.1859 2.71624 55.5045 -4.47206 81.5116 5.3008C59.5429 3.60468 20.8553 13.3775 10.9209 16.5275Z" fill="#004B8D"/>
<path d="M6.47865 21.1312C19.4014 17.4159 74.7272 2.55471 93.6267 11.4391C97.9074 14.0237 102.269 18.789 103.238 19.8389C75.8579 8.20843 6.96326 27.2696 1.79414 29.6118C3.16719 26.6234 4.8633 22.4235 6.47865 21.1312Z" fill="#004B8D"/>
<path d="M0.501857 34.2963C19.0784 27.7542 84.9039 11.4391 107.357 25.9773C108.73 28.8041 109.78 32.7617 110.426 34.9425C90.396 15.2352 10.8401 36.6386 0.0980192 41.9692C-0.225051 40.2731 0.340322 34.9425 0.501857 34.2963Z" fill="#004B8D"/>
<path d="M0.178789 43.1807C12.617 46.0884 96.7767 50.2075 110.911 40.5962C110.669 43.6653 109.699 47.8652 109.215 49.1575C95.5652 58.6073 10.0324 53.4382 2.52104 51.2575C1.71337 49.3191 0.259557 44.3923 0.178789 43.1807Z" fill="#004B8D"/>
<path d="M4.78253 55.4574C15.8477 57.0727 97.9074 61.1919 107.276 53.519C105.096 57.6381 100.654 62.4034 98.4728 64.1803C85.3077 67.8148 15.2015 65.8764 11.4862 63.2918C10.194 61.9996 6.31711 58.2035 4.78253 55.4574Z" fill="#004B8D"/>
<path d="M17.2207 67.6533C32.3242 70.0763 79.5732 70.884 92.1729 68.5417C75.131 80.4145 38.1395 82.2722 17.2207 67.6533Z" fill="#004B8D"/>
<path d="M139.422 15.2356H149.356L193.213 52.6309V15.2356H202.178V63.2922H193.617L148.387 24.6854V63.2922H139.422V15.2356Z" fill="black"/>
<path d="M218.655 15.2356H259.361C270.669 15.2356 278.18 18.3855 278.18 27.5123C278.18 33.5698 275.192 35.8313 272.607 37.5274C276 38.9812 280.038 43.1004 280.038 49.3195C280.038 58.3654 272.85 63.2922 261.138 63.2922H218.655V15.2356ZM260.008 34.2159C266.146 34.2159 268.892 32.6814 268.892 28.643C268.892 24.5239 266.146 22.9893 260.008 22.9893H228.024V34.1352H260.008V34.2159ZM260.25 55.4578C266.227 55.4578 270.669 54.2463 270.669 48.5926C270.669 43.585 266.55 41.9696 260.25 41.9696H228.024V55.4578H260.25Z" fill="black"/>
<path d="M357.09 26.7043C357.009 17.6583 349.336 14.5084 338.029 14.5084H313.072C301.764 14.5084 294.172 17.6583 294.172 26.7043V63.0496H302.895V44.4731H348.367V62.9689H357.09V26.7043ZM302.895 27.5927C303.057 23.7159 306.53 22.2621 312.506 22.2621H338.917C345.056 22.2621 348.286 23.7966 348.286 27.9158L348.367 28.0773V36.8002H302.895V27.5927Z" fill="black"/>
<path d="M436 26.7043C435.919 17.6583 428.246 14.5084 416.939 14.5084H391.982C380.674 14.5084 373.082 17.6583 373.082 26.7043V63.0496H381.805V44.4731H427.277V62.9689H436V26.7043ZM381.805 27.5927C381.967 23.7159 385.44 22.2621 391.416 22.2621H417.827C423.966 22.2621 427.196 23.7966 427.196 27.9158L427.277 28.0773V36.8002H381.805V27.5927Z" fill="black"/>
</svg>
