<svg width="418" height="82" viewBox="0 0 418 82" fill="none" xmlns="http://www.w3.org/2000/svg">
<path d="M105.065 1.1943C97.6705 2.63914 95.8857 6.12376 95.9706 18.7024C95.9706 28.3063 97.0755 31.7059 100.985 34.0007C103.705 35.5305 105.405 35.7005 119.683 35.7005C131.242 35.7005 135.916 35.3605 137.361 34.5956C139.571 33.3207 141.781 28.8162 141.781 25.5016C141.781 23.4618 141.526 23.3768 137.106 23.3768C134.556 23.3768 132.432 23.7168 132.432 24.2268C132.432 24.6517 131.667 25.8416 130.732 26.7765C129.202 28.3063 127.927 28.4763 119.258 28.4763C107.529 28.4763 106.17 27.7114 106 20.9971C105.66 8.92845 106.594 8.07854 119.768 8.07854C128.437 8.07854 131.582 8.84346 131.582 11.0532C131.582 11.9881 132.772 12.3281 136.341 12.3281H141.186L140.676 8.84346C140.081 4.16897 138.041 2.38417 132.517 1.27929C127.417 0.344398 109.909 0.259407 105.065 1.1943Z" fill="#145DA5"/>
<path d="M237.225 1.44926C234.93 1.95921 232.89 3.14908 231.446 4.7639C229.406 7.22863 229.321 7.82356 229.321 18.3624C229.321 29.0712 229.406 29.3262 231.701 31.8759C233.06 33.4907 235.355 34.8506 237.395 35.2755C241.984 36.3804 263.827 36.2954 267.737 35.2755C271.901 34.0857 274.366 30.856 274.366 26.6915V23.3768H269.691C266.377 23.3768 265.017 23.7168 265.017 24.4817C265.017 25.1616 264.252 26.3515 263.402 27.1164C261.957 28.3913 260.257 28.5613 251.418 28.3063C238.925 27.9663 238.67 27.7964 238.67 18.5324C238.67 13.008 238.925 11.9881 240.795 10.2033C242.749 8.16352 243.429 8.07853 252.268 8.07853C261.277 8.07853 261.787 8.16352 263.657 10.2033C265.272 11.9031 266.462 12.3281 269.776 12.3281H274.026L273.686 9.01343C273.261 4.59392 270.711 2.38416 265.102 1.27928C259.493 0.259397 242.154 0.344387 237.225 1.44926Z" fill="#145DA5"/>
<path d="M4.26576 2.29918C3.58583 2.97911 3.24587 7.99355 3.24587 19.2973V35.2755H12.5098L12.7648 30.771L13.0198 26.3515L26.7033 25.9266C41.8316 25.4166 42.5965 25.1617 44.0414 20.0622C46.0811 12.668 44.2113 4.59393 39.7918 2.38417C36.8172 0.939332 5.7106 0.854341 4.26576 2.29918ZM32.9926 8.92845C35.2873 10.1183 35.9673 14.4528 34.3524 17.0026C32.9926 19.0423 32.6526 19.1273 22.7937 19.1273H12.5948V8.07854H22.0288C27.2132 8.07854 32.1427 8.4185 32.9926 8.92845Z" fill="#145DA5"/>
<path d="M55.345 11.3082C52.3703 16.7476 48.2908 24.3967 46.251 28.2213L42.4264 35.2755H52.9652L60.1045 21.0821C66.7337 7.99355 67.3287 7.05865 68.4335 8.58848C70.1333 10.7982 75.4878 21.4221 75.4878 22.5269C75.4878 22.9519 73.448 23.3768 71.0682 23.4618C67.5836 23.5468 67.0737 23.7168 68.6885 24.1418C74.7228 26.0116 82.287 31.7909 82.287 34.5106C82.287 34.9356 84.5817 35.2755 87.4714 35.2755C92.0609 35.2755 92.5709 35.1055 92.0609 33.8307C91.8059 32.9808 87.7264 25.3316 82.9669 16.8326L74.4679 1.27929H60.6144L55.345 11.3082Z" fill="#145DA5"/>
<path d="M148.58 35.2755H157.929V1.27929H148.58V35.2755Z" fill="#145DA5"/>
<path d="M169.148 2.29918C168.468 2.9791 168.128 7.99355 168.128 19.2973V35.2755H177.477V23.3768H202.974V16.5776H177.477V8.07854H203.824V1.27929H186.996C175.012 1.27929 169.912 1.53426 169.148 2.29918Z" fill="#145DA5"/>
<path d="M211.473 35.2755H220.822V1.27929H211.473V35.2755Z" fill="#145DA5"/>
<path d="M10.0451 62.9825C4.69068 72.0765 0.186175 79.8956 0.0161939 80.4055C-0.153787 80.8305 1.03608 81.1705 2.56591 81.1705C5.3706 81.1705 5.62557 80.9155 13.8697 66.7221C18.5441 58.8179 22.6237 52.2736 22.8787 52.2736C23.3886 52.2736 32.9925 67.9119 32.9925 68.7618C32.9925 69.0168 29.8479 69.2718 26.0233 69.4417L18.9691 69.6967L25.3434 71.2265C33.9274 73.3513 36.8171 74.8811 38.8569 78.2808C40.3017 80.6605 41.0667 81.1705 43.5314 81.1705H46.591L42.6815 74.5412C40.4717 70.9716 35.8822 63.1524 32.3976 57.1181C26.0233 46.4093 25.9383 46.3243 22.8787 46.3243L19.819 46.4093L10.0451 62.9825Z" fill="#6B6B6B"/>
<path d="M53.3903 81.1705H87.3866V76.9209H58.4898V71.4815C58.4898 67.9119 58.8297 65.9571 59.5946 65.7022C60.1046 65.4472 66.2239 65.4472 73.1931 65.5322L85.6868 65.8721V60.7727H58.4048L58.9147 50.9988L73.1931 50.7438L87.3866 50.5738V46.3243H53.3903V81.1705Z" fill="#6B6B6B"/>
<path d="M95.8856 81.1705H100.985V67.572H113.394C120.278 67.572 126.482 67.9969 127.417 68.4219C128.777 69.1868 129.032 70.2917 129.032 75.2211V81.1705H134.131V74.7962C134.131 69.4417 133.876 68.2519 132.517 67.402C130.902 66.3821 130.902 66.2971 132.942 63.9174C136.511 59.6678 135.321 50.1489 130.902 47.9391C129.287 47.0892 123.848 46.6643 112.289 46.4943L95.8856 46.1543V81.1705ZM125.122 51.4237C126.907 51.7637 128.777 52.6986 129.117 53.2935C130.477 55.3333 129.967 59.8378 128.182 61.6226C126.652 63.1524 125.377 63.3224 113.734 63.3224H100.985V57.5431C100.985 54.3134 101.24 51.4237 101.58 51.1688C102.43 50.3189 121.298 50.4888 125.122 51.4237Z" fill="#6B6B6B"/>
<path d="M149.515 47.4292C148.41 47.9391 146.625 49.5539 145.69 50.8288C144.16 52.9536 143.905 54.3984 143.905 63.1524C143.905 80.7455 144.84 81.4254 167.023 81.0005L182.576 80.7455L184.871 78.3657C187.166 76.071 187.251 75.731 187.505 65.1922C187.845 52.9536 187.251 50.4888 183.256 48.0241C180.706 46.4943 178.921 46.3243 166.003 46.3243C156.229 46.3243 150.875 46.6643 149.515 47.4292ZM180.366 52.3586C182.491 54.0584 182.576 54.3134 182.576 63.8324C182.576 77.2609 183.086 76.9209 166.173 76.9209C148.835 76.9209 149.43 77.3459 149.43 64.2573C149.43 54.2284 149.94 52.1886 152.829 51.1688C153.509 50.9138 159.544 50.6588 166.088 50.6588C176.967 50.5738 178.327 50.7438 180.366 52.3586Z" fill="#6B6B6B"/>
<path d="M202.379 47.2592C199.064 48.1941 197.024 51.6787 197.024 56.0982C197.024 59.6678 198.894 63.6624 201.019 64.6823C201.869 65.0222 208.583 65.5322 215.977 65.7871C228.131 66.2121 229.576 66.4671 230.681 67.9969C232.211 70.0367 231.616 74.3712 229.576 75.816C228.556 76.581 224.476 76.9209 216.487 76.9209C203.824 76.9209 202.124 76.411 202.124 72.1614C202.124 70.4616 201.699 70.1217 199.574 70.1217C197.449 70.1217 197.024 70.4616 197.024 72.1614C197.024 75.731 198.554 78.4508 201.274 79.8956C203.484 81.0855 206.373 81.2554 217.932 81.0005C231.701 80.7455 231.871 80.7455 234.08 78.4508C236.035 76.581 236.29 75.5611 236.205 71.7365C236.12 65.6172 235.61 64.5123 232.381 62.9825C230.171 61.9626 226.771 61.6226 218.102 61.6226C204.334 61.6226 202.549 60.9427 202.549 56.0982C202.549 51.4237 204.504 50.5738 216.317 50.5738C227.621 50.5738 230.001 51.2538 230.681 54.8234C231.106 56.7781 231.701 57.3731 233.315 57.3731C235.185 57.3731 235.355 57.1181 235.1 53.8035C234.93 51.1688 234.25 49.8939 232.466 48.5341C230.256 46.9192 228.726 46.7493 217.592 46.5793C210.708 46.4943 203.824 46.7493 202.379 47.2592Z" fill="#6B6B6B"/>
<path d="M246.319 81.1705H251.333L251.843 67.9969L265.867 67.572C273.601 67.317 280.485 66.807 281.25 66.4671C283.46 65.3622 284.565 61.9626 284.565 56.5232C284.565 52.4436 284.14 51.0838 282.525 49.129L280.485 46.7493L263.402 46.4943L246.319 46.1543V81.1705ZM276.916 51.6787C278.615 52.5286 279.125 53.4635 279.295 56.6932C279.72 63.0675 278.955 63.4074 264.337 63.1524L251.843 62.8975L251.588 57.883C251.418 55.1633 251.503 52.3586 251.758 51.7637C252.353 50.1489 273.771 50.0639 276.916 51.6787Z" fill="#6B6B6B"/>
<path d="M302.668 47.3442C301.563 48.789 282.865 80.3205 282.865 80.8305C282.865 81.0005 284.14 81.1705 285.67 81.1705C288.729 81.1705 288.729 81.0855 302.073 58.053C303.858 54.9084 305.642 52.2736 305.982 52.2736C306.577 52.2736 316.011 67.7419 316.011 68.7618C316.011 69.0168 312.867 69.2718 309.042 69.3568L301.988 69.4417L306.237 70.6316C319.326 74.3712 319.411 74.3712 321.706 77.8558C323.575 80.6605 324.34 81.1705 326.805 81.1705C329.695 81.1705 329.78 81.0855 328.59 79.2157C327.91 78.1958 323.236 70.3766 318.221 61.7926C309.297 46.7493 308.957 46.3243 306.237 46.3243C304.708 46.3243 303.093 46.8343 302.668 47.3442Z" fill="#6B6B6B"/>
<path d="M339.894 47.3442C338.789 47.9391 337.004 49.554 336.069 50.8288C334.454 52.9536 334.284 54.3984 334.284 63.5774C334.284 80.7455 335.134 81.4254 356.637 81.0005C373.465 80.6605 374.485 80.3206 375.25 73.1814C375.76 69.2718 375.76 69.2718 373.04 69.2718C370.66 69.2718 370.405 69.5267 370.405 71.7365C370.405 76.411 369.045 76.9209 355.532 76.9209C339.129 76.9209 339.384 77.1759 339.384 63.7474C339.384 50.4039 339.129 50.5738 355.192 50.5738C365.901 50.5738 367.176 50.7438 368.705 52.2737C369.64 53.2086 370.405 54.9084 370.405 56.0982C370.405 57.798 370.83 58.223 372.53 58.223C374.4 58.223 374.655 57.883 374.655 54.9084C374.655 52.5286 374.06 50.7438 372.615 49.129L370.575 46.7493L356.212 46.4943C345.928 46.3243 341.339 46.5793 339.894 47.3442Z" fill="#6B6B6B"/>
<path d="M384.004 81.1705H418V76.9209L403.807 76.7509L389.528 76.496L389.273 71.9065C389.103 69.3568 389.443 66.892 389.953 66.3821C390.463 65.8721 395.732 65.5322 403.807 65.4472H416.725V61.1977L389.018 60.6877L389.528 50.9988L403.807 50.7438L418 50.5738V46.3243H384.004V81.1705Z" fill="#6B6B6B"/>
</svg>
