<svg width="314" height="108" viewBox="0 0 314 108" fill="none" xmlns="http://www.w3.org/2000/svg">
<path d="M307.785 28.8979C307.891 28.8979 307.992 28.8559 308.067 28.7811C308.142 28.7064 308.184 28.605 308.184 28.4993C308.184 28.3935 308.142 28.2921 308.067 28.2174C307.992 28.1426 307.891 28.1006 307.785 28.1006C297.819 26.6232 264.801 22.5194 246.252 30.2815C224.232 39.4974 238.748 69.8655 300.821 90.103H300.563C294.208 87.5704 178.41 43.9061 307.785 28.8979Z" fill="#FFD700"/>
<path d="M314 75.1651H313.719C306.519 75.0244 174.354 71.4131 296.741 1.76587C296.826 1.71246 296.89 1.63183 296.924 1.53707C296.957 1.44231 296.958 1.339 296.925 1.24392C296.893 1.14884 296.829 1.06757 296.744 1.01333C296.66 0.95908 296.559 0.935042 296.459 0.945114C286.962 3.03219 254.835 10.9115 238.514 25.99C237.809 25.0129 236.891 24.2097 235.829 23.6419C234.767 23.074 233.589 22.7564 232.385 22.7134C231.181 22.6705 229.984 22.9032 228.884 23.3938C227.784 23.8845 226.81 24.6201 226.038 25.5444C225.081 25.4294 224.117 25.3823 223.154 25.4037L223.013 25.6851C225.663 26.1541 227.703 30.1407 227.961 34.0568C228.538 40.4105 230.725 46.5122 234.316 51.7852C234.574 52.1604 234.832 52.5122 235.113 52.8639V53.0046C245.08 65.785 271.485 76.2907 313.977 75.2589L314 75.1651Z" fill="#0057B7"/>
<path d="M0.000940889 60.1569C0.000940889 59.7114 0.235441 59.5003 0.704446 59.5003H3.04947C3.51847 59.5003 3.75298 59.7114 3.75298 60.1569V91.1816C3.70068 92.0947 3.9658 92.9978 4.50338 93.7377C4.83628 94.0601 5.23499 94.3066 5.67215 94.4605C6.10931 94.6143 6.57457 94.6717 7.03601 94.6288H21.6924C22.1614 94.6288 22.3959 94.8398 22.3959 95.2619V96.7627C22.3959 97.1614 22.1849 97.3725 21.7393 97.4194C19.6288 97.607 17.4245 97.7242 15.1263 97.7711C12.8282 97.818 10.3972 97.8415 7.83332 97.8415C6.56421 97.8715 5.29621 97.7455 4.05783 97.4663C3.18893 97.2819 2.38165 96.8782 1.71281 96.2937C1.08414 95.7272 0.642518 94.983 0.446492 94.1598C0.136658 93.0694 -0.0134189 91.9398 0.000940889 90.8064V60.1569Z" fill="#1C2B39"/>
<path d="M44.7679 96.7159C43.5247 97.0618 42.2535 97.2973 40.9689 97.4194C39.582 97.5605 38.1888 97.6309 36.7948 97.6304C27.6023 97.6304 23.006 92.9404 23.006 83.5603V82.3878C22.7927 78.7904 23.9678 75.2483 26.2891 72.4918C27.4814 71.2899 28.9153 70.3549 30.4959 69.7485C32.0765 69.1421 33.7679 68.8782 35.4581 68.9743C37.1957 68.9382 38.9262 69.2081 40.5703 69.7716C41.9527 70.2638 43.204 71.066 44.2285 72.1166C45.2195 73.0984 45.9734 74.2935 46.4328 75.6107C46.959 77.0366 47.2213 78.5464 47.2067 80.0662C47.283 80.8639 47.1699 81.6684 46.8765 82.4142C46.5831 83.1599 46.1177 83.8258 45.5183 84.3576C44.0257 85.3527 42.2411 85.8154 40.453 85.6708H26.6643C26.7973 88.1969 27.8577 90.585 29.6425 92.3776C31.7929 94.0815 34.5036 94.9182 37.2403 94.7226C38.4832 94.7226 39.7495 94.7226 40.9924 94.5585C42.2352 94.3943 43.3374 94.2771 44.6037 94.066C45.1196 93.9488 45.3541 94.066 45.3541 94.6054V96.0593C45.3456 96.2191 45.2829 96.3712 45.1764 96.4906C45.0698 96.61 44.9257 96.6894 44.7679 96.7159ZM40.8517 82.505C41.5953 82.5616 42.3369 82.3721 42.9622 81.9657C43.2146 81.7035 43.4063 81.3891 43.5238 81.0446C43.6413 80.7002 43.6817 80.3342 43.6423 79.9724C43.7283 78.8673 43.5829 77.7564 43.2155 76.7107C42.8481 75.6649 42.2666 74.7072 41.5083 73.8988C39.8328 72.4614 37.661 71.7374 35.4581 71.8821C34.2564 71.8254 33.0576 72.0429 31.9525 72.5183C30.8473 72.9937 29.8649 73.7144 29.0797 74.6258C27.406 76.8998 26.5768 79.6859 26.7346 82.505H40.8517Z" fill="#1C2B39"/>
<path d="M54.8979 96.5518C54.8979 96.9973 54.6634 97.2084 54.2178 97.2084H52.0604C51.5914 97.2084 51.3569 96.9973 51.3569 96.5518V72.3277C51.2799 71.8212 51.3896 71.304 51.6658 70.8726C51.9419 70.4411 52.3656 70.1248 52.8577 69.9826C55.91 69.1341 59.0705 68.739 62.2378 68.8101C65.463 68.5242 68.6837 69.4063 71.313 71.2958C72.3489 72.3419 73.1437 73.6016 73.6419 74.9869C74.1402 76.3722 74.3297 77.8496 74.1974 79.3158V96.5518C74.2142 96.6416 74.2089 96.7343 74.1818 96.8216C74.1548 96.909 74.1068 96.9884 74.0422 97.0531C73.9775 97.1178 73.898 97.1657 73.8107 97.1927C73.7233 97.2198 73.6307 97.2252 73.5408 97.2084H71.3365C70.8675 97.2084 70.633 96.9973 70.633 96.5518V79.48C70.7417 78.415 70.6177 77.3392 70.2694 76.3269C69.9212 75.3146 69.3571 74.3901 68.6163 73.6174C66.6322 72.2781 64.2465 71.6652 61.8626 71.8821C59.4963 71.8571 57.1353 72.1089 54.8275 72.6325L54.8979 96.5518Z" fill="#1C2B39"/>
<path d="M83.5781 96.5518C83.5781 96.9973 83.3435 97.2084 82.8745 97.2084H80.7171C80.2716 97.2084 80.0371 96.9973 80.0371 96.5518V72.3277C79.96 71.8212 80.0698 71.304 80.346 70.8726C80.6221 70.4411 81.0457 70.1248 81.5379 69.9826C84.5902 69.1341 87.7507 68.739 90.918 68.8101C94.1513 68.5508 97.3706 69.4575 99.9932 71.3662C101.003 72.4132 101.777 73.6645 102.262 75.0358C102.748 76.4072 102.934 77.8666 102.807 79.3158V96.5518C102.807 96.9973 102.596 97.2084 102.174 97.2084H99.9932C99.5242 97.2084 99.2897 96.9973 99.2897 96.5518V79.48C99.3984 78.415 99.2744 77.3392 98.9262 76.3269C98.578 75.3146 98.0139 74.3901 97.273 73.6174C95.2785 72.2817 92.8868 71.6693 90.4959 71.8821C88.1296 71.8564 85.7684 72.1083 83.4608 72.6325L83.5781 96.5518Z" fill="#1C2B39"/>
<path d="M127.641 69.9593C127.641 69.5137 127.875 69.3027 128.344 69.3027H130.478C130.947 69.3027 131.182 69.5137 131.182 69.9593V94.1833C131.253 94.6922 131.137 95.2096 130.857 95.6404C130.577 96.0712 130.151 96.3865 129.658 96.5284C126.603 97.3655 123.444 97.7603 120.278 97.7009C117.049 97.9843 113.827 97.0934 111.202 95.1917C110.192 94.15 109.417 92.903 108.932 91.5352C108.446 90.1675 108.261 88.7113 108.388 87.2655V69.9593C108.388 69.5137 108.599 69.3027 109.021 69.3027H111.366C111.835 69.3027 112.046 69.5137 112.046 69.9593V87.031C111.934 88.0981 112.059 89.1768 112.412 90.1902C112.764 91.2036 113.336 92.1266 114.087 92.8936C116.071 94.2329 118.456 94.8458 120.84 94.6289C123.208 94.6607 125.571 94.4008 127.875 93.855L127.641 69.9593Z" fill="#1C2B39"/>
<path d="M131.111 107.48C130.931 107.445 130.77 107.344 130.662 107.196C130.553 107.048 130.504 106.865 130.525 106.682V105.346C130.525 104.9 130.736 104.712 131.158 104.736C131.592 104.818 132.031 104.873 132.472 104.9C132.964 104.9 133.456 104.9 133.972 104.9C134.453 104.943 134.938 104.888 135.398 104.739C135.857 104.59 136.281 104.35 136.646 104.032C137.279 103.123 137.57 102.018 137.466 100.914V69.9593C137.466 69.5137 137.701 69.3027 138.17 69.3027H140.327C140.796 69.3027 141.031 69.5137 141.031 69.9593V99.999C141.043 101.146 140.949 102.293 140.749 103.423C140.6 104.311 140.282 105.163 139.811 105.932C139.369 106.612 138.732 107.144 137.982 107.456C137.053 107.835 136.054 108.011 135.051 107.972C133.722 107.988 132.396 107.822 131.111 107.48Z" fill="#1C2B39"/>
<path d="M167.131 96.5517C165.586 96.9146 164.019 97.1808 162.441 97.349C160.688 97.5339 158.927 97.6278 157.165 97.6304C155.274 97.6722 153.385 97.4912 151.537 97.0911C150.203 96.8262 148.941 96.2828 147.832 95.4965C146.921 94.833 146.221 93.9211 145.815 92.87C145.379 91.6846 145.172 90.4274 145.205 89.1649C145.112 87.9658 145.306 86.7619 145.771 85.6527C146.236 84.5436 146.958 83.561 147.878 82.7864C150.17 81.2666 152.897 80.5415 155.64 80.7228C156.438 80.7228 157.258 80.7228 158.103 80.7228C158.947 80.7228 159.768 80.887 160.612 81.0277C161.456 81.1684 162.206 81.3325 162.957 81.5201C163.707 81.7077 164.411 81.8953 165.044 82.1064V80.4883C165.072 79.0952 164.946 77.7032 164.669 76.3376C164.464 75.3258 163.966 74.3963 163.238 73.6643C162.428 72.9252 161.43 72.4224 160.354 72.2104C158.813 71.8789 157.239 71.7294 155.664 71.7648C154.491 71.7648 153.319 71.7648 152.006 71.929C150.692 72.0931 149.661 72.1869 148.558 72.3511C148.392 72.4101 148.209 72.4101 148.043 72.3511C147.963 72.3161 147.896 72.2558 147.854 72.1796C147.812 72.1033 147.796 72.0153 147.808 71.929V70.4282C147.805 70.2849 147.853 70.1452 147.943 70.0337C148.033 69.9222 148.16 69.846 148.301 69.8185C149.562 69.4743 150.848 69.2234 152.146 69.0681C153.601 68.8859 155.066 68.7997 156.532 68.8101C158.466 68.7731 160.397 68.9859 162.277 69.4433C163.662 69.7972 164.942 70.4811 166.005 71.4365C166.968 72.3614 167.664 73.5276 168.022 74.8134C168.466 76.3364 168.679 77.9172 168.655 79.5034V94.2536C168.707 94.5046 168.708 94.7633 168.659 95.0148C168.61 95.2663 168.512 95.5057 168.37 95.7192C168.229 95.9327 168.046 96.1161 167.834 96.259C167.621 96.4019 167.382 96.5014 167.131 96.5517ZM157.399 94.6288C158.712 94.6288 160.049 94.6288 161.386 94.4647C162.651 94.3643 163.906 94.1604 165.138 93.8549V84.4749C163.881 84.1772 162.603 83.9734 161.315 83.8652C159.936 83.7314 158.551 83.6688 157.165 83.6775C154.947 83.5022 152.724 83.9403 150.739 84.9439C150.128 85.4567 149.636 86.0972 149.299 86.8204C148.962 87.5435 148.787 88.3318 148.787 89.1297C148.787 89.9277 148.962 90.7159 149.299 91.4391C149.636 92.1622 150.128 92.8027 150.739 93.3156C152.808 94.3242 155.103 94.7768 157.399 94.6288Z" fill="#1C2B39"/>
<path d="M194.591 96.5517C193.046 96.9146 191.48 97.1808 189.901 97.349C188.141 97.5345 186.372 97.6284 184.601 97.6304C182.711 97.6699 180.822 97.4889 178.973 97.0911C177.648 96.8217 176.394 96.2786 175.292 95.4965C174.381 94.833 173.681 93.9211 173.275 92.87C172.847 91.6831 172.648 90.4259 172.689 89.1649C172.596 87.9658 172.79 86.7619 173.255 85.6527C173.72 84.5436 174.442 83.561 175.362 82.7864C177.653 81.2666 180.38 80.5415 183.124 80.7228C183.921 80.7228 184.742 80.7228 185.586 80.7228C186.431 80.7228 187.251 80.887 188.096 81.0277C188.94 81.1684 189.69 81.3325 190.441 81.5201C191.191 81.7077 191.894 81.8953 192.528 82.1064V80.4883C192.555 79.0952 192.429 77.7032 192.152 76.3376C191.947 75.3258 191.45 74.3963 190.722 73.6643C189.911 72.9252 188.914 72.4224 187.838 72.2104C186.297 71.8789 184.723 71.7294 183.148 71.7648C181.975 71.7648 180.802 71.7648 179.489 71.929C178.176 72.0931 177.144 72.1869 176.042 72.3511C175.875 72.4101 175.693 72.4101 175.526 72.3511C175.446 72.3161 175.38 72.2558 175.338 72.1796C175.295 72.1033 175.279 72.0153 175.292 71.929V70.4282C175.288 70.2881 175.332 70.1511 175.418 70.04C175.503 69.929 175.624 69.8507 175.761 69.8185C177.031 69.4766 178.324 69.2258 179.63 69.0681C181.084 68.8859 182.549 68.7997 184.015 68.8101C185.95 68.7731 187.881 68.9859 189.76 69.4433C191.146 69.7972 192.425 70.4811 193.489 71.4365C194.451 72.3614 195.148 73.5276 195.506 74.8134C195.949 76.3364 196.163 77.9172 196.139 79.5034V94.2536C196.19 94.5063 196.19 94.7666 196.14 95.0193C196.09 95.2721 195.989 95.5124 195.845 95.7262C195.701 95.94 195.516 96.1231 195.301 96.2648C195.086 96.4065 194.845 96.504 194.591 96.5517ZM184.859 94.6288C186.173 94.6288 187.509 94.6288 188.846 94.4647C190.111 94.3643 191.366 94.1604 192.598 93.8549V84.4749C191.341 84.1772 190.063 83.9734 188.776 83.8652C187.396 83.7314 186.011 83.6688 184.625 83.6775C182.407 83.5022 180.185 83.9403 178.199 84.9439C177.588 85.4567 177.097 86.0972 176.759 86.8204C176.422 87.5435 176.247 88.3318 176.247 89.1297C176.247 89.9277 176.422 90.7159 176.759 91.4391C177.097 92.1622 177.588 92.8027 178.199 93.3156C180.268 94.3242 182.563 94.7768 184.859 94.6288Z" fill="#1C2B39"/>
<path d="M211.569 68.8804C213.992 68.7288 216.392 69.4344 218.347 70.8737C219.664 70.2173 221.058 69.7288 222.497 69.4198C224.035 69.063 225.609 68.8821 227.187 68.8804C229.697 68.7002 232.189 69.4147 234.222 70.8971C235.095 71.71 235.77 72.7114 236.197 73.825C236.624 74.9385 236.79 76.1347 236.685 77.3225V96.5517C236.685 96.9973 236.45 97.2083 235.981 97.2083H233.824C233.355 97.2083 233.12 96.9973 233.12 96.5517V77.9322C233.213 77.0795 233.116 76.2168 232.836 75.406C232.557 74.5951 232.101 73.8562 231.502 73.2422C230.125 72.3067 228.473 71.8608 226.812 71.9759C224.476 71.9551 222.16 72.4182 220.012 73.336C220.583 74.6189 220.863 76.0123 220.832 77.4163V96.6455C220.832 97.0911 220.598 97.3021 220.129 97.3021H217.971C217.502 97.3021 217.268 97.0911 217.268 96.6455V77.9322C217.36 77.0871 217.272 76.232 217.01 75.4235C216.747 74.6149 216.315 73.8714 215.744 73.2422C214.39 72.2517 212.726 71.7776 211.054 71.9055C209.996 71.9103 208.939 71.9729 207.888 72.0931C206.9 72.2222 205.922 72.4101 204.956 72.6559V96.5751C204.956 97.0207 204.722 97.2318 204.253 97.2318H202.119C201.65 97.2318 201.416 97.0207 201.416 96.5751V72.3276C201.338 71.8212 201.448 71.304 201.724 70.8725C202.001 70.4411 202.424 70.1248 202.916 69.9826C204.258 69.5745 205.63 69.2765 207.02 69.0915C208.53 68.921 210.05 68.8505 211.569 68.8804Z" fill="#1C2B39"/>
<path d="M92.2544 38.9111V40.6464H87.3298V54.1537H85.2662V40.6464H80.3182V38.9111H92.2544Z" fill="#1C2B39"/>
<path d="M101.165 54.1537H100.321C100.174 54.1806 100.023 54.1806 99.8754 54.1537C99.8132 54.1179 99.7612 54.0668 99.7243 54.0052C99.6874 53.9437 99.6667 53.8737 99.6644 53.802L99.4533 52.7936C99.1895 53.0414 98.9073 53.2687 98.6091 53.4737C98.351 53.6811 98.0672 53.8545 97.7649 53.9896C97.4578 54.1295 97.135 54.2318 96.8034 54.2945C96.4371 54.3328 96.0677 54.3328 95.7013 54.2945C95.3029 54.295 94.9071 54.2316 94.5288 54.1068C94.1746 54.0068 93.8465 53.8307 93.5673 53.5909C93.2848 53.3518 93.067 53.0453 92.9341 52.6998C92.7587 52.301 92.6707 51.8692 92.6762 51.4335C92.6748 50.9945 92.7967 50.5639 93.028 50.1907C93.3104 49.7431 93.707 49.3788 94.177 49.1354C94.8141 48.7811 95.5024 48.5279 96.2172 48.385C97.2359 48.1807 98.2737 48.0863 99.3126 48.1036V47.2359C99.356 46.5597 99.1656 45.889 98.7733 45.3365C98.5747 45.1133 98.3279 44.9381 98.0516 44.8244C97.7754 44.7106 97.4768 44.6612 97.1787 44.6799C96.7799 44.6736 96.3831 44.7371 96.0061 44.8675C95.7229 44.9621 95.4545 45.0963 95.2088 45.2661L94.5991 45.6413C94.4584 45.7534 94.2863 45.8189 94.1067 45.8289C93.9985 45.8524 93.8865 45.8524 93.7784 45.8289C93.6826 45.7607 93.6027 45.6727 93.5439 45.571L93.2156 44.9613C93.7671 44.4111 94.4202 43.9731 95.1385 43.6715C95.883 43.3718 96.6812 43.2281 97.4835 43.2494C98.0384 43.2352 98.5899 43.3391 99.1016 43.5542C99.5492 43.7362 99.9499 44.0167 100.274 44.375C100.606 44.7481 100.854 45.1879 101.001 45.6648C101.167 46.2037 101.246 46.7658 101.236 47.3297L101.165 54.1537ZM96.2641 52.9812C96.5678 53.0183 96.8749 53.0183 97.1787 52.9812C97.4449 52.9122 97.704 52.818 97.9525 52.6998C98.1975 52.5599 98.4326 52.4032 98.656 52.2308C98.8863 52.0486 99.1056 51.8529 99.3126 51.6446V49.4168C98.5666 49.4031 97.8208 49.4581 97.0848 49.581C96.5785 49.6673 96.083 49.8088 95.6075 50.0031C95.2765 50.1383 94.9858 50.3563 94.7633 50.6362C94.5978 50.8781 94.508 51.1639 94.5053 51.457C94.4971 51.7068 94.5452 51.9552 94.646 52.1839C94.7299 52.3824 94.8583 52.5589 95.0212 52.6998C95.1703 52.8434 95.3575 52.9411 95.5606 52.9812C95.7937 53.0166 96.0309 53.0166 96.2641 52.9812Z" fill="#1C2B39"/>
<path d="M107.028 38.489V54.1538H105.129V38.489H107.028Z" fill="#1C2B39"/>
<path d="M113.078 38.489V54.1538H111.179V38.489H113.078Z" fill="#1C2B39"/>
<path d="M119.574 39.9898C119.62 40.1587 119.62 40.3368 119.574 40.5057C119.508 40.663 119.412 40.8063 119.293 40.9278C119.16 41.0503 119.009 41.153 118.847 41.2326C118.514 41.3566 118.148 41.3566 117.815 41.2326C117.656 41.1586 117.513 41.0552 117.393 40.9278C117.273 40.8063 117.178 40.663 117.112 40.5057C117.035 40.3446 116.995 40.1683 116.995 39.9898C116.995 39.8112 117.035 39.6349 117.112 39.4739C117.172 39.3066 117.268 39.1545 117.393 39.0283C117.513 38.9009 117.656 38.7974 117.815 38.7235C118.148 38.5973 118.515 38.5973 118.847 38.7235C119.009 38.8031 119.16 38.9057 119.293 39.0283C119.418 39.1545 119.514 39.3066 119.574 39.4739C119.62 39.6428 119.62 39.8209 119.574 39.9898ZM119.152 43.3666V54.1537H117.252V43.3666H119.152Z" fill="#1C2B39"/>
<path d="M123.232 54.1537V43.3666H124.358C124.478 43.3587 124.596 43.3949 124.691 43.4683C124.786 43.5417 124.851 43.6473 124.874 43.7653L125.014 44.9378C125.471 44.4383 126.001 44.0113 126.586 43.6715C127.209 43.352 127.902 43.1909 128.602 43.2025C129.132 43.1919 129.658 43.2876 130.15 43.4839C130.58 43.6831 130.964 43.9708 131.276 44.3281C131.598 44.7007 131.83 45.1418 131.956 45.6178C132.122 46.1568 132.201 46.7189 132.19 47.2828V54.1537H130.314V47.2828C130.359 46.6028 130.159 45.9293 129.751 45.3833C129.536 45.148 129.27 44.9645 128.974 44.8467C128.677 44.7289 128.358 44.6799 128.04 44.7033C127.488 44.7014 126.945 44.8471 126.468 45.1254C125.966 45.4085 125.514 45.773 125.132 46.2041V54.1537H123.232Z" fill="#1C2B39"/>
<path d="M136.013 54.1537V43.3666H137.138C137.258 43.3587 137.376 43.3949 137.471 43.4683C137.567 43.5417 137.631 43.6473 137.654 43.7653L137.795 44.9378C138.251 44.4383 138.781 44.0113 139.366 43.6715C139.989 43.352 140.682 43.1909 141.383 43.2025C141.912 43.1919 142.438 43.2876 142.93 43.4839C143.361 43.6831 143.744 43.9708 144.056 44.3281C144.377 44.7049 144.616 45.144 144.759 45.6178C144.914 46.1593 144.993 46.7196 144.994 47.2828V54.1537H143.094V47.2828C143.139 46.6028 142.94 45.9293 142.532 45.3833C142.316 45.148 142.05 44.9645 141.754 44.8467C141.457 44.7289 141.138 44.6799 140.82 44.7033C140.268 44.7014 139.725 44.8471 139.249 45.1254C138.746 45.4085 138.295 45.773 137.912 46.2041V54.1537H136.013Z" fill="#1C2B39"/>
<path d="M156.602 54.1538H155.758C155.611 54.1828 155.459 54.1828 155.312 54.1538C155.249 54.1162 155.196 54.0652 155.155 54.0043C155.115 53.9435 155.088 53.8744 155.078 53.802L154.867 52.7937C154.606 53.0353 154.332 53.2623 154.046 53.4737C153.781 53.671 153.498 53.8436 153.202 53.9896C152.893 54.1255 152.571 54.2277 152.24 54.2945C151.866 54.3341 151.489 54.3341 151.114 54.2945C150.716 54.293 150.321 54.2297 149.942 54.1069C149.59 54.0016 149.263 53.8261 148.98 53.591C148.713 53.3386 148.498 53.0357 148.347 52.6999C148.18 52.2993 148.1 51.8675 148.113 51.4335C148.111 50.9945 148.233 50.5639 148.465 50.1907C148.744 49.7489 149.131 49.3857 149.59 49.1354C150.227 48.7811 150.916 48.5279 151.63 48.385C152.649 48.1807 153.687 48.0864 154.726 48.1036V47.2359C154.781 46.5584 154.59 45.8837 154.186 45.3365C153.993 45.1137 153.75 44.9386 153.478 44.8248C153.205 44.7109 152.91 44.6613 152.615 44.6799C151.908 44.6744 151.214 44.8784 150.622 45.2661L150.036 45.6413C149.893 45.7496 149.722 45.8147 149.543 45.8289C149.428 45.8559 149.307 45.8559 149.192 45.8289C149.101 45.7546 149.022 45.6678 148.957 45.571L148.629 44.9613C149.185 44.4164 149.837 43.9791 150.552 43.6715C151.297 43.3749 152.095 43.2314 152.897 43.2494C153.444 43.2371 153.987 43.341 154.491 43.5543C154.942 43.7301 155.344 44.0116 155.664 44.375C155.995 44.7481 156.243 45.1879 156.391 45.6648C156.565 46.2024 156.652 46.7645 156.649 47.3297L156.602 54.1538ZM151.677 52.9813C152.262 52.9977 152.843 52.8688 153.366 52.6061C153.617 52.4773 153.853 52.3199 154.069 52.137C154.305 51.9609 154.524 51.7647 154.726 51.5508V49.323C153.988 49.3093 153.25 49.3643 152.521 49.4872C152.007 49.5718 151.504 49.7134 151.021 49.9093C150.697 50.0575 150.409 50.2734 150.176 50.5424C150.011 50.7844 149.921 51.0701 149.919 51.3632C149.91 51.613 149.958 51.8615 150.059 52.0902C150.143 52.2886 150.271 52.4651 150.434 52.6061C150.596 52.7449 150.789 52.8416 150.997 52.8875C151.187 52.9456 151.385 52.9772 151.583 52.9813H151.677Z" fill="#1C2B39"/>
<path d="M141.336 61.6343C141.32 62.5577 141.21 63.477 141.008 64.378C140.95 64.5948 140.822 64.7863 140.644 64.9222C140.466 65.0581 140.247 65.1306 140.023 65.1284H138.17C137.701 65.1284 137.467 64.9173 137.467 64.4952V61.6343C137.467 61.1888 137.701 60.9777 138.17 60.9777H140.656C141.101 60.9777 141.336 61.1888 141.336 61.6343Z" fill="#1C2B39"/>
</svg>
